<mxfile host="app.diagrams.net" modified="2023-05-28T17:36:20.437Z" agent="Mozilla/5.0 (X11; Ubuntu; Linux x86_64; rv:109.0) Gecko/20100101 Firefox/113.0" etag="VMpB_fSclx5YveR4X4Ey" version="21.2.9" type="device">
  <diagram name="Page-1" id="jVczomIQyQJ3YpkyBtzx">
    <mxGraphModel dx="4216" dy="3540" grid="1" gridSize="10" guides="1" tooltips="1" connect="1" arrows="1" fold="1" page="1" pageScale="1" pageWidth="850" pageHeight="1100" math="0" shadow="0">
      <root>
        <mxCell id="0" />
        <mxCell id="1" parent="0" />
        <mxCell id="XqwRq8SYC38xC89JIGz4-27" value="CosmosDB" style="text;html=1;strokeColor=none;fillColor=none;align=center;verticalAlign=middle;whiteSpace=wrap;rounded=0;" vertex="1" parent="1">
          <mxGeometry x="994" y="360" width="60" height="30" as="geometry" />
        </mxCell>
        <mxCell id="XqwRq8SYC38xC89JIGz4-28" value="Cognitive Search" style="text;html=1;strokeColor=none;fillColor=none;align=center;verticalAlign=middle;whiteSpace=wrap;rounded=0;" vertex="1" parent="1">
          <mxGeometry x="519.1" y="360" width="100" height="30" as="geometry" />
        </mxCell>
        <mxCell id="XqwRq8SYC38xC89JIGz4-37" style="rounded=0;orthogonalLoop=1;jettySize=auto;html=1;entryX=0.25;entryY=0;entryDx=0;entryDy=0;exitX=0.06;exitY=0.996;exitDx=0;exitDy=0;exitPerimeter=0;" edge="1" parent="1" source="XqwRq8SYC38xC89JIGz4-39" target="XqwRq8SYC38xC89JIGz4-31">
          <mxGeometry relative="1" as="geometry">
            <mxPoint x="130" y="-30" as="sourcePoint" />
          </mxGeometry>
        </mxCell>
        <mxCell id="XqwRq8SYC38xC89JIGz4-40" value="Ask &lt;br&gt;question" style="edgeLabel;html=1;align=center;verticalAlign=middle;resizable=0;points=[];" vertex="1" connectable="0" parent="XqwRq8SYC38xC89JIGz4-37">
          <mxGeometry x="0.1511" y="4" relative="1" as="geometry">
            <mxPoint x="-39" y="-96" as="offset" />
          </mxGeometry>
        </mxCell>
        <mxCell id="XqwRq8SYC38xC89JIGz4-41" style="rounded=0;orthogonalLoop=1;jettySize=auto;html=1;exitX=0.751;exitY=-0.322;exitDx=0;exitDy=0;entryX=1;entryY=1;entryDx=0;entryDy=0;exitPerimeter=0;" edge="1" parent="1" source="XqwRq8SYC38xC89JIGz4-31" target="XqwRq8SYC38xC89JIGz4-99">
          <mxGeometry relative="1" as="geometry" />
        </mxCell>
        <mxCell id="XqwRq8SYC38xC89JIGz4-43" value="Receive&lt;br&gt; answer" style="edgeLabel;html=1;align=center;verticalAlign=middle;resizable=0;points=[];" vertex="1" connectable="0" parent="XqwRq8SYC38xC89JIGz4-41">
          <mxGeometry x="0.1542" y="-2" relative="1" as="geometry">
            <mxPoint x="33" y="-64" as="offset" />
          </mxGeometry>
        </mxCell>
        <mxCell id="XqwRq8SYC38xC89JIGz4-69" style="rounded=0;orthogonalLoop=1;jettySize=auto;html=1;exitX=0.5;exitY=1;exitDx=0;exitDy=0;entryX=0;entryY=0.25;entryDx=0;entryDy=0;targetPerimeterSpacing=1;" edge="1" parent="1" source="XqwRq8SYC38xC89JIGz4-31" target="XqwRq8SYC38xC89JIGz4-85">
          <mxGeometry relative="1" as="geometry">
            <mxPoint x="510" y="338" as="targetPoint" />
          </mxGeometry>
        </mxCell>
        <mxCell id="XqwRq8SYC38xC89JIGz4-31" value="&lt;div style=&quot;font-size: 14px;&quot;&gt;Question answering&lt;/div&gt;" style="text;html=1;strokeColor=none;fillColor=none;align=center;verticalAlign=middle;whiteSpace=wrap;rounded=0;fontSize=14;fontStyle=1" vertex="1" parent="1">
          <mxGeometry x="68.62" y="90" width="140" height="10" as="geometry" />
        </mxCell>
        <mxCell id="XqwRq8SYC38xC89JIGz4-45" style="rounded=0;orthogonalLoop=1;jettySize=auto;html=1;entryX=0.5;entryY=1;entryDx=0;entryDy=0;exitX=0.25;exitY=0;exitDx=0;exitDy=0;" edge="1" parent="1" source="XqwRq8SYC38xC89JIGz4-33" target="XqwRq8SYC38xC89JIGz4-39">
          <mxGeometry relative="1" as="geometry" />
        </mxCell>
        <mxCell id="XqwRq8SYC38xC89JIGz4-68" value="Receive&lt;br&gt;question" style="edgeLabel;html=1;align=center;verticalAlign=middle;resizable=0;points=[];" vertex="1" connectable="0" parent="XqwRq8SYC38xC89JIGz4-45">
          <mxGeometry x="0.8332" y="-1" relative="1" as="geometry">
            <mxPoint x="-26" y="11" as="offset" />
          </mxGeometry>
        </mxCell>
        <mxCell id="XqwRq8SYC38xC89JIGz4-54" style="edgeStyle=orthogonalEdgeStyle;rounded=0;orthogonalLoop=1;jettySize=auto;html=1;exitX=1;exitY=0.5;exitDx=0;exitDy=0;entryX=0;entryY=0.5;entryDx=0;entryDy=0;" edge="1" parent="1" source="XqwRq8SYC38xC89JIGz4-33" target="XqwRq8SYC38xC89JIGz4-65">
          <mxGeometry relative="1" as="geometry" />
        </mxCell>
        <mxCell id="XqwRq8SYC38xC89JIGz4-55" value="Original question &lt;br&gt;+ answer &lt;br&gt;+ correct answer" style="edgeLabel;html=1;align=center;verticalAlign=middle;resizable=0;points=[];" vertex="1" connectable="0" parent="XqwRq8SYC38xC89JIGz4-54">
          <mxGeometry x="0.3248" relative="1" as="geometry">
            <mxPoint x="-21" y="25" as="offset" />
          </mxGeometry>
        </mxCell>
        <mxCell id="XqwRq8SYC38xC89JIGz4-70" style="rounded=0;orthogonalLoop=1;jettySize=auto;html=1;entryX=0.25;entryY=0;entryDx=0;entryDy=0;" edge="1" parent="1" source="XqwRq8SYC38xC89JIGz4-33" target="XqwRq8SYC38xC89JIGz4-85">
          <mxGeometry relative="1" as="geometry">
            <mxPoint x="526.2305882352944" y="320" as="targetPoint" />
          </mxGeometry>
        </mxCell>
        <mxCell id="XqwRq8SYC38xC89JIGz4-33" value="Question generation" style="text;html=1;strokeColor=none;fillColor=none;align=center;verticalAlign=middle;whiteSpace=wrap;rounded=0;fontSize=14;fontStyle=1" vertex="1" parent="1">
          <mxGeometry x="349.65" y="85" width="146.62" height="20" as="geometry" />
        </mxCell>
        <mxCell id="XqwRq8SYC38xC89JIGz4-51" style="rounded=0;orthogonalLoop=1;jettySize=auto;html=1;exitX=0.25;exitY=0;exitDx=0;exitDy=0;entryX=1;entryY=1;entryDx=0;entryDy=0;" edge="1" parent="1" source="XqwRq8SYC38xC89JIGz4-35" target="XqwRq8SYC38xC89JIGz4-100">
          <mxGeometry relative="1" as="geometry" />
        </mxCell>
        <mxCell id="XqwRq8SYC38xC89JIGz4-52" value="Give&lt;br&gt;feedback" style="edgeLabel;html=1;align=center;verticalAlign=middle;resizable=0;points=[];" vertex="1" connectable="0" parent="XqwRq8SYC38xC89JIGz4-51">
          <mxGeometry x="0.3294" y="-1" relative="1" as="geometry">
            <mxPoint x="37" y="-43" as="offset" />
          </mxGeometry>
        </mxCell>
        <mxCell id="XqwRq8SYC38xC89JIGz4-72" style="rounded=0;orthogonalLoop=1;jettySize=auto;html=1;entryX=0.75;entryY=0;entryDx=0;entryDy=0;" edge="1" parent="1" source="XqwRq8SYC38xC89JIGz4-35" target="XqwRq8SYC38xC89JIGz4-85">
          <mxGeometry relative="1" as="geometry">
            <mxPoint x="540" y="320" as="targetPoint" />
          </mxGeometry>
        </mxCell>
        <mxCell id="XqwRq8SYC38xC89JIGz4-35" value="Answer evaluation" style="text;html=1;strokeColor=none;fillColor=none;align=center;verticalAlign=middle;whiteSpace=wrap;rounded=0;fontSize=14;fontStyle=1" vertex="1" parent="1">
          <mxGeometry x="640.9" y="85" width="129.1" height="20" as="geometry" />
        </mxCell>
        <mxCell id="XqwRq8SYC38xC89JIGz4-42" value="Define&lt;br&gt;topic" style="rounded=0;orthogonalLoop=1;jettySize=auto;html=1;entryX=0.078;entryY=0;entryDx=0;entryDy=0;exitX=0;exitY=1;exitDx=0;exitDy=0;entryPerimeter=0;" edge="1" parent="1" source="XqwRq8SYC38xC89JIGz4-100" target="XqwRq8SYC38xC89JIGz4-33">
          <mxGeometry x="-0.7473" y="-21" relative="1" as="geometry">
            <mxPoint as="offset" />
          </mxGeometry>
        </mxCell>
        <mxCell id="XqwRq8SYC38xC89JIGz4-49" style="rounded=0;orthogonalLoop=1;jettySize=auto;html=1;exitX=0.532;exitY=1.036;exitDx=0;exitDy=0;entryX=0.75;entryY=0;entryDx=0;entryDy=0;exitPerimeter=0;" edge="1" parent="1" source="XqwRq8SYC38xC89JIGz4-39" target="XqwRq8SYC38xC89JIGz4-33">
          <mxGeometry relative="1" as="geometry" />
        </mxCell>
        <mxCell id="XqwRq8SYC38xC89JIGz4-50" value="Give&lt;br&gt;answer" style="edgeLabel;html=1;align=center;verticalAlign=middle;resizable=0;points=[];" vertex="1" connectable="0" parent="XqwRq8SYC38xC89JIGz4-49">
          <mxGeometry x="-0.2659" y="-2" relative="1" as="geometry">
            <mxPoint x="14" y="-50" as="offset" />
          </mxGeometry>
        </mxCell>
        <mxCell id="XqwRq8SYC38xC89JIGz4-39" value="" style="text;html=1;strokeColor=none;fillColor=#d5e8d4;align=center;verticalAlign=middle;whiteSpace=wrap;rounded=0;labelBackgroundColor=none;" vertex="1" parent="1">
          <mxGeometry x="40" y="-160" width="730" height="30" as="geometry" />
        </mxCell>
        <mxCell id="XqwRq8SYC38xC89JIGz4-73" style="rounded=0;orthogonalLoop=1;jettySize=auto;html=1;entryX=1;entryY=0.25;entryDx=0;entryDy=0;" edge="1" parent="1" source="XqwRq8SYC38xC89JIGz4-56" target="XqwRq8SYC38xC89JIGz4-85">
          <mxGeometry relative="1" as="geometry">
            <mxPoint x="570" y="338" as="targetPoint" />
          </mxGeometry>
        </mxCell>
        <mxCell id="XqwRq8SYC38xC89JIGz4-74" style="rounded=0;orthogonalLoop=1;jettySize=auto;html=1;entryX=0.25;entryY=0;entryDx=0;entryDy=0;" edge="1" parent="1" source="XqwRq8SYC38xC89JIGz4-56" target="XqwRq8SYC38xC89JIGz4-87">
          <mxGeometry relative="1" as="geometry">
            <mxPoint x="797.9100000000001" y="347" as="targetPoint" />
          </mxGeometry>
        </mxCell>
        <mxCell id="XqwRq8SYC38xC89JIGz4-78" style="rounded=0;orthogonalLoop=1;jettySize=auto;html=1;exitX=0.75;exitY=0;exitDx=0;exitDy=0;entryX=1;entryY=1;entryDx=0;entryDy=0;" edge="1" parent="1" source="XqwRq8SYC38xC89JIGz4-56" target="XqwRq8SYC38xC89JIGz4-102">
          <mxGeometry relative="1" as="geometry" />
        </mxCell>
        <mxCell id="XqwRq8SYC38xC89JIGz4-82" value="List of&lt;br&gt;similar alerts" style="edgeLabel;html=1;align=center;verticalAlign=middle;resizable=0;points=[];" vertex="1" connectable="0" parent="XqwRq8SYC38xC89JIGz4-78">
          <mxGeometry x="0.7987" y="-2" relative="1" as="geometry">
            <mxPoint x="35" y="4" as="offset" />
          </mxGeometry>
        </mxCell>
        <mxCell id="XqwRq8SYC38xC89JIGz4-56" value="Similarity analysis" style="text;html=1;strokeColor=none;fillColor=none;align=center;verticalAlign=middle;whiteSpace=wrap;rounded=0;fontSize=14;fontStyle=1" vertex="1" parent="1">
          <mxGeometry x="847.41" y="90" width="129.1" height="20" as="geometry" />
        </mxCell>
        <mxCell id="XqwRq8SYC38xC89JIGz4-75" style="rounded=0;orthogonalLoop=1;jettySize=auto;html=1;entryX=0.75;entryY=0;entryDx=0;entryDy=0;" edge="1" parent="1" source="XqwRq8SYC38xC89JIGz4-57" target="XqwRq8SYC38xC89JIGz4-87">
          <mxGeometry relative="1" as="geometry">
            <mxPoint x="827.9100000000001" y="329" as="targetPoint" />
          </mxGeometry>
        </mxCell>
        <mxCell id="XqwRq8SYC38xC89JIGz4-80" style="rounded=0;orthogonalLoop=1;jettySize=auto;html=1;exitX=0.75;exitY=0;exitDx=0;exitDy=0;entryX=1;entryY=1;entryDx=0;entryDy=0;" edge="1" parent="1" source="XqwRq8SYC38xC89JIGz4-57" target="XqwRq8SYC38xC89JIGz4-103">
          <mxGeometry relative="1" as="geometry" />
        </mxCell>
        <mxCell id="XqwRq8SYC38xC89JIGz4-84" value="Alert&lt;br&gt;information" style="edgeLabel;html=1;align=center;verticalAlign=middle;resizable=0;points=[];" vertex="1" connectable="0" parent="XqwRq8SYC38xC89JIGz4-80">
          <mxGeometry x="0.8516" y="1" relative="1" as="geometry">
            <mxPoint x="28" y="12" as="offset" />
          </mxGeometry>
        </mxCell>
        <mxCell id="XqwRq8SYC38xC89JIGz4-57" value="Alert information" style="text;html=1;strokeColor=none;fillColor=none;align=center;verticalAlign=middle;whiteSpace=wrap;rounded=0;fontSize=14;fontStyle=1" vertex="1" parent="1">
          <mxGeometry x="1103.3" y="90" width="129.1" height="20" as="geometry" />
        </mxCell>
        <mxCell id="XqwRq8SYC38xC89JIGz4-58" value="" style="shape=image;verticalLabelPosition=bottom;labelBackgroundColor=default;verticalAlign=top;aspect=fixed;imageAspect=0;image=data:image/png,iVBORw0KGgoAAAANSUhEUgAAAJYAAACcCAYAAACdmlKEAAAACXBIWXMAAA7EAAAOxAGVKw4bAAAgAElEQVR4nO2deVyU1ffHP88MDDsqICCouOAuml+XTHmEQUkcyX1DAQncAfuqfV1QlEzLMFMRA0MMNxSCXBIVrcSlwlwC3BLBREVFUZYBhmGW+/vDH/OKYIZZnlkw3/+Uz7333DMzh/vc5dxzKEIIwVvewjAsfSvQHIQQPHr0CK9evdK3Km9RASN9K6CI0tJSLFiwACUlJWCxWBg8eDC+/PJLfav1RlNTUwNzc3ON5RisYT1+/BgffvghOBwOvv/+e/D5fMyePRtFRUVwcXHRt3pvLEwYFWDAr8Lg4GB07twZGRkZaNu2Lbp06QJnZ2ds2bJF36q9RQkMcsRKS0uDRCLB9u3bGzy3sbHRy1yLEILMzEycO3cOffr0QUBAACiK0rkeLQmDNKw9e/Zg6NChMDMza/CcoihIpVKd67Nw4ULcvn0bHTp0wG+//YY//vgDW7du1bkeLQmDM6za2lrw+XysW7euURmLpfs393//+1/cvXsXBw4cQMeOHfHs2TNMmzYNubm56N+/v871aSkY3ByrqKgIhBAYGTW2eVNTU4hEIp3p8t133+H69evYuHEjOnbsCABwdHSEl5cXIiIidKZHS8TgDMvFxQUsFgtCobBRmZ2dHQQCgcL2UqkUfD4fV65cwYMHDyASiSCRSFR+hRYUFCA2NhbLli3DsGHDGpR5e3uDz+erJO/fhsG9Ck1NTWFlZYXVq1fjq6++alBWW1vb4HUolUohFAqRnZ2NL7/8Enw+H/UHCSwWS/b/f3/Wpk0brFixAgMGDICpqalcPcLDwzFgwACMHz++UZmbmxsAQCwWNzmyvsUADQsA1q9fjyVLliA/Px/du3eXPTc2NoapqSmysrKQlJSEoqIiSCQSmJqa4t1330Xv3r3h6ekJe3t7mQESQkAIQVlZGU6fPo3c3FysXbsWQqEQrVu3RnR0NHr27Nmg/+LiYlRXV+Pjjz9uUr96Y3q7MpQPZahnhaGhoXj48CHS0tJw7tw55OTk4Pr163jy5AmMjIzQv39/TJ06Fb1790abNm1U+pEJISgqKsJXX32FnJwcBAcHIygoSFY+YcIEODk54euvv26yfWlpKSZNmoSsrCy9LChaBMRAefz4MRkwYAAZNGgQcXd3J6NGjSKLFy8mfD6fSKVSxvo5duwYoWma+Pn5EUIIyczMJO7u7qSqqooQQohYLG7U5sSJE8TDw4MxHd5EDOpVWFRUhF27duG3336DVCrFu+++i0WLFqFv375ae+2MGzcOPXr0wLx58xAVFYXs7GwMHz4cFhYWSE9Px/79+/Hdd9/B2NhY1ub48ePo0qWLVvR5Y9C3ZYvFYrJv3z4yefJkQtM0mTRpEsnIyCBlZWU61ePx48ckKiqKcLlcIhaLyf3798mIESNIcnJyg3pPnz4lNE2TgoICnerX0tDbiPXHH39g06ZNePbsGQBg0KBB2L17N1q1aqWXSbGzszMuXbqEhQsXgs1mIyQkBIMGDYKfn1+DenPmzEGPHj3QtWtXnevYktCZYRFCUFpaiitXrmDLli0Qi8Xo06cP5syZA29vb12poVA/V1dX/Oc//4G/vz9at27d4MCbEILw8HDU1ta+Pc5RAq0bllQqxY4dO3Dq1CkIBAJwOBzMmDEDs2bNYsxFgwkoikJcXBykUikqKyuxevVqWRkhBKtWrcLNmzcRGxsLS0tLPWraMtDqdkNMTAzS09NhZGSERYsW4b333oOjo6PBL9FLS0thZ2cH4PUfxvTp0/HixQskJia+fQUqiVZGrPv372Pu3LmgKArBwcGYPXu2NrpRmbq6Ojx58gSEEFhaWqJt27ZN1qs3qlu3biE0NBROTk7IyMiAhYWFLtVt0TA6Yj148AD79u3Djz/+CC8vL6xevbrBMl1f/PHHH8jOzsaRI0dQW1sLiqJACEGHDh3w1VdfwcHBocl2T58+xZUrV2BsbIza2lpMnDhRx5q3XBgxLLFYjLlz56KwsBCWlpaIjo5G3759mdBPY7Zu3Yq0tDRIpVJ4eXmhvLwcLBYLc+bMQUREBAghSE5ORuvWreXKuHDhAtasWYPBgwer7cH6rztX1HS/Ijs7m3h4eJCxY8eSyspKTcUxSnFxMaFpmhw9epQcOXKE9O3bl/Tu3Zv079+f9O/fn9TV1REej0dWrFjRrKy8vDxC0zQ5ffq0WrrU1NSo1a6lovYs+tq1a/jggw+wfPlyjBkzBidOnICVlRWTNq8xX375JVq1agUul4uNGzdCKpXCyckJoaGhcHR0xJgxYxAWFobLly83K8vNzQ1cLhcxMTFq6fJPb9g3HZUN69atW1iwYAGWLFmCjh074vDhw1ixYoU2dNOIgoICXL16FbGxsViyZAlqamoAAAKBAMOGDcPevXtRU1MDKysrSCQSpRwI165dCz6fj/Pnz2tb/RaP0nMsqVSKuXPnIj8/H/b29ti+fTvat2+vbf3UZtGiRSgvL8eBAwcwbNiwRo55u3fvhrGxMU6dOoXs7Gz4+fnB39+/WbkBAQGora3Fd999py3V3wiUGrHq6uowb948PHz4EPv370d6erpBGxXwestj/PjxOHnyJMRicaPy/Px8mJiYIC8vDzY2Nrh69apScrdu3YqSkhLcv3+faZXfKJo1rF9//RUTJkxAcXExUlJS0KlTJx2opTkSiQTGxsYoLi5GXV1do/L4+HisWbMG1dXVCuXk5eUhMTFR9m87Ozt06tTp7Y3sZlBoWJ9++imWL18OZ2dnnDx5EjY2NrrSS2NYLBZEIpHcY6PKykoUFhbCyMgIpaWlGDVqVJP1rKyssG/fvgaj3uzZs3Hz5k2t6P2m0KRhVVZWYuLEicjKykJMTAwSEhJanBtuz5498eOPP2LcuHFyV2RsNhvdu3dHdXU1Ro8e3WSdzp07g6IoHDlyRPZs5MiRsLKywubNm7Wi+5tAI8MihGDGjBngcDhITk7Gf/7zH8Y6S0lJQVpaGmPyFOHv74979+7BzMwMPXr0aFRuYWEh2x4xNjZWeELg6emJlJSURs8yMzOZVfoNopFhJSYmoqqqCocOHZJ71KEOd+/exc6dOxmT1xzvvPMOKIrCL7/8gsTERPTq1QutWrWCtbU1bGxsYGpqiqlTp+L3339HZGSkQlmzZ8/G8+fP8eLFC9mzjz/+GHV1ddi3b5+2P0qLpJFh5eXlye72MYVYLMbSpUvRq1cvTJkyhTG5ijA2NsaECROwYcMGGBsbIy0tDZmZmfD390dgYCAOHz6M9PR0+Pr6wtPTU6GsTp06oX379sjPz5c9oygKvr6+SE5ObnLV+a/nn1vxvr6+5NixY4xu7+/du5dwuVzC5/MZldscAoGAeHh4kH379jV4fvnyZcLj8cjUqVOVllVZWdnoYkVtbS3x9PQk6enpjOj7JmH0DyMDgCaX5+oilUqxe/duzJs3T+cOcqampvjwww+RkJCAgwcPwsLCAhUVFairq0PXrl0bbCM0R1PHVSYmJpg/fz62b9+OSZMmMal6i6fBzntxcTEmTJiAwMBAhIeHayy8uroakyZNQtu2bXHgwAGN5WmiR1JSEp48eYLu3bvD398fbDabMfm+vr5wcXHR6RzS0GkwYrHZbIhEIhQVFWksWCKRYO7cuTAxMcH+/fs1lqcJFhYWCA0N1Zr86dOnY/fu3ZBIJIwabEumwQy9TZs2YLFYePXqlcZxqL788ks8ffoUhw4danF7YKri7+8PFouFzz//XN+qGAwNDIvD4cDIyAgFBQXgcrlqH7TGxcUhIyMD69at+1e481IUhZiYGJw5cwbFxcX6VscgaLSnYG5ujsmTJyMkJAQ7duzAjRs3VBJ46NAhHDp0CEuXLm12Gf8m4ebmBldXVyxZsgTEMMNh6JRGhmVtbQ0HBwcEBgbC29sbH330kdJf1M8//4y4uDisXbsWEyZMYFxZbcKEMURHR+P58+dITU1lQKOWTSPDYrFYqK2tBQBERkbC0tIS77//vtygsvX38CZOnIh169ZhwYIFcg90DZVnz57B399f43mlnZ0dZsyYgdjYWJSWljKkXcukkaPftGnTMHToUCxduhTA67/kxYsXIzc3Fw4ODhg4cCAcHR3x5MkT5ObmoqSkBFKpFN26dUNYWBgGDBiglw+iKV5eXhgxYgSioqI0lhUaGoqCggKkpqaiVatWmivXAmlkWPPnz4eRkVGjPZmbN2/i+PHjuHnzJurq6sDhcNCzZ09wuVz07NlT7h29lsLly5exfPly7Nu3j5EEBTweD927d8e2bdsY0K7l0eg+kpOTE/Ly8hpV7Nu3r8Fc6dIG7777Lt555x28fPmSEcP66quvMHfuXLx48aLF/9GpQ6M5Vps2bVBRUaEPXZSiPqqyNti+fTtjbkI9e/bEmDFjMHnyZOzZs4cRmS2JJg1LmRsrd+7c0cuyesWKFQgNDWX0PFNbREREIDIyEklJSdi4caO+1dEt/zyVvn37NqFputlwjJMmTSJpaWlMHogrRWlpKRk5ciTx9vYmFRUVOu+fEEIuXbpEZs6cqXT9mzdvkhEjRpBZs2ZpUSvDotGIVR+luLlLBo6OjkhPT9eOtSvA1tYWZ8+eRZ8+fTB27Fjs2rVL5zoMHDgQ5eXlmDRpklK+WH369MG3336LV69eYfTo0bJgc28yjQyLzWbDxMSkWaPp2rVrA49KXUJRFLZu3YqVK1fi4MGDyMjI0Gn/pqamSE5ORmVlJRYtWqTUlKBLly7IyMhAly5dEBAQ8MYn9mzSTbR169bIyclR2HD27Nmora3VS9KkesaOHYv58+fr5SpWq1atkJKSgvz8fCxZskSpNhRFITY2Fm3btsWsWbO0rKF+adKw+vXrh3v37ilsaGNjA4qi9PI6rIcQgrNnz6KqqgqrVq3Sef+2traIiYnB9evXlfY3Y7PZOHDgAExMTDB69Og3doe+ScNatWoVKisrcefOHbkNKYpS6QaxNlizZg0ePnyIRYsW4dKlS7h7967OdejXrx+WLl2KxMREPHr0SKk2LBYLR44cgbOzM6ZPn47c3Fwta6kH5M3qeTwe+eKLLxTO/FNSUgiPx2M0oL+yxMfHE3d3d1JYWEgIIWTq1Klk4sSJOtejnt9++40IBAKV2kgkEvLZZ58RmqbJxYsXtaSZfpBrWEePHm3WaGpqaghN0+Tp06daUU4eQqGQeHp6kri4uAbPR4wYQTIzM9WWW1VV1WQmCm3zxRdfEHd3d3Lq1Cmd960t5N7x6t27N6qqqhRuO5iamoLD4eCXX37Rymgqj23btsHIyAgLFixo8Dw0NFSj0JTh4eF68Vtfvnw5/P398dlnnyEwMFDhFKTFIM/ihEIh8fDwkL1q5BEfH094PB7jFi+PjIwMQtM0+fXXXxmXffr0aVlmCn3w4MEDMnv2bELTNPH39yf37t3Tix5MIHfE4nA4cHZ2xjfffKPQMD09PcHn83VyafPGjRv4/PPPERQUhPfee49x+VwuFxKJBOXl5YzLVgYXFxckJSXh3LlzEAqF+PDDDzFx4kSDPruVh8LrzjRN49q1awoFdO/eHZaWlloPRHblyhWEhYVh9OjRCA4O1kofHA4Hbm5uCAkJ0Yp8ZWGz2UhNTcXWrVthZ2eHDz74ADNnzkRmZiaePHmiV92URtFwVh8c9v79+wqHvcjISOLj48PoUFqPVColUVFRhKZpsnnzZq308Xdu3bpFPD09db4gUcSff/5Jli1bRry8vGQp8LZu3Urq6ur0rZpcmo2aHBAQQGbMmKGwzvfff09ommZMqXouXLhARowYQbhcLrl8+TLj8uVx7NgxIhKJdNafKtTU1JCwsDDi4eFB3N3dSUBAABEKhfpWqxHNGlb9loKiMNQikYjQNE1SU1MZUUoikZAdO3YQmqbJ+vXrGZGpbX766Sfi6+tLrly5orM+z58/T2bMmEFGjBhBzp07RyQSic76bg6lgtsmJCRg//79cHd3x8KFC9G+fftGl1CXLl0qS7WrCvUJw3/55RcUFBQgPz8f169fh5GREdavX98og7yhQgjBF198gZMnT8LDwwOffPKJznIG7d27F99++y1sbW2xYcMG9OrVSyf9KkLpqMn37t3D4sWLUV1dDYqiYGlpidatW8PV1RWBgYHo0KEDfHx8sGXLFoUXKoRCISIjI1FYWAiBQICqqioAr38YIyMj2NnZITo6Gs7OzuBwOMx8Sh3y4MEDBAcHg6IorF+/HsOHD9dJv7W1tQgPD8fdu3cxfvx4LFu2TCf9ykPllCcSiQSXL19GZmYmXrx4gefPn6OsrAwikQgSiQRGRkYwMTEBi8WSZZCnKAoikUi2JWFvbw8XFxfY2tpi7Nix6Nu3L1gs1ht1FT8qKgrnzp2DlZUVdu7cyYgfvTKkp6dj+/bt8PPzw8KFC3XSZ1MwkkuHEAKRSIRXr14hJycHZWVlSEhIAJ/PR6tWrTBnzhwYGxvDwcEBbm5u/5orUcXFxdi8eTNevXqFxMREjU4F4uLicO/ePXC5XIwdO1bhazYzMxMbN27Exx9/jHHjxqndpyZoLV8hIQR3797FokWLYGZmhv3797eoqMtMUl1drXEMi4cPH2LFihUoLi6GkZERevTogR07dshN/FQ/co0ePbpBUk+doYsVQkBAAPHw8CB//vmnLrp74zl27BiZOHEioWmabN++Xe5q8MSJE8Td3V0vEQd1YlhSqZREREQQmqZb7Al+fn4+uX37tr7VaMCJEyeIh4cHiYiIkFtn586dSp35Mo1ODKue2NhYMnz4cHLgwAGt98X0ns7y5ctJcHAwozKZ4N69e2TMmDGkqKhIbp2QkBDi7e2t0xiwOk3OHBoaitWrV2PXrl14/Pix1vqpq6uDn58fo/74QqHQIKP1ubq64siRI+jYsaPcOgkJCXBwcICvry9evnypE710nvV7zJgxcHV1xfLly7XWB5vNxtOnTxmV6ejoiLKyMkZlMoWJiYnCcoqisH//frzzzjuYOnWqToLD6SWd/OrVq/H48WNZuCRtweRtaTs7O1nOw5bKtm3bYG9vj/nz56OyslKrfenFsLp27YqOHTti3rx5WpFfv9HKpOGOHz9eq6Osrjh06BBMTEwwbtw4CIVCrfWjF8MCgCFDhjT7utJ0jsSk82Hbtm3h4eHBmDx9QVEU0tLS0LlzZ/B4PK29FvVmWLNmzYJQKIRAIGiyvLCwEAsXLtQo8Ii2h/uWCkVR+Pbbb2Fvb48FCxZo5XvSm2HZ2tqCzWbLdX02NzfHnTt31LrQWX/c8SZfYz958qRK9b///vtGr76DBw+CoiitZNXQm2EBr92a5UVldnR0hJmZGW7fvq2WbGNj4xbpK64MIpEIhw4dgoeHB44fP95sfUIILly4AB8fHzx//lz2nMViIT09Ha1btwaPx2M2NJTOdsyaICcnh4waNUru3cUlS5aQwMBAtWRnZGSQ0tJSTdQzeFJSUghN02TDhg3N1pVIJMTPz4/weDxSXV3doEwkEhEvLy+yePFixnTTq2FVV1cTmqbl7hrHx8cTLy8vHWvVsrhy5YrsulhzSKVS4u3tTfz8/BqVvXjxgri7u5MLFy4wohfzr0IVVnJmZmZgs9l4+PBhk+Vubm6oq6t7G5BfAYMGDcLhw4fx+PFjLF68WOFKmqIoJCcno7i4GCdOnGhQZmdnh4CAAERGRjLyfTNvWCq441IUBXNzc7nHDEOHDkW7du3e2LkSUzg5OSElJQU3btxAQkKCwrp2dnYICQnB5s2bG82pQkJCYGlpiTVr1misk14n7wDQoUMHnDt3rskyFouFpKQktG7dmtE+9bGDXldXp9a+nLIRdOzt7bFjxw506NCh2boBAQFwcHBodH+SzWbD398fFy9e1HgPUe+GNXjwYDx48EBuubm5OaP9lZeXY+bMmToN15iQkAAfHx+cPn1apXYCgQBLly5tNmd1PX379gWPx2u2Xn1SqQcPHjRalU+fPh0ANI5hoXfDcnJyajbeKZPU1NSgrKysyYypTFNSUoIpU6bg8OHD+N///qfUj/53zMzMEBkZifPnzyM+Pp5R3RwdHeHq6oovvviiwXOKojBlyhScPHkSEolEbfl6NyxjY2OdJusuKioCh8NhfCT8Jzk5OZg5cyYEAgHS09MxZswYteQMHToU69evR3JyMuOxVrds2YJHjx41im4THh6OmpoalTdh/47eDcvc3Fx2m0cXHDt2DAMHDtTqjaANGzYgPDwcw4cPR0ZGhsZzRE9PT8yZMwebNm3CwYMHGdLydbjPgQMH4uLFiw2eUxSF4OBgbNu2Tf25FiObFhqQn59PaJrW2S3e2tparXlS1tbWktDQUELTNDlz5gzj8g8fPkxomibnz59nTKZUKm1yg7qqqopwuVySlZWllly9G1ZlZSWhaVpvMamYQiKRkOnTp5ORI0eShw8faq2f2NhYwuVyyfPnz7XWRz1RUVHE29tbrbZ6fxVaWlqCoii9hvVmgvo4VqdOnVJqya8uoaGhcHR0VBjOWyKRMPJ9hoeHQyAQqHWYr3fDAl5P4Jl2JdYlaWlpKCsr0/hSqrLs3r0bFhYWOHToUJPlmzZtQkBAgMaOjjY2NrCzs8OKFStUb8zw6KkWvr6+ZO/evfpWQy2ePXtGvLy8yI4dO3Tab0VFhdz4WHV1dWTkyJHko48+0rif58+fE5qmSU5OjkrtDGLEat++Pc6cOaNvNVRGJBLB398flpaWCAsL02nf1tbWckdHY2Nj7Ny5E9evX9f4TdC2bVtYW1s3OltsDoMwrHbt2jXwE2ophIWFwdzcXOXQTbqgR48e4HK58Pf311jWRx99hPPnz6u0JWQQhmVhYaFUjkRD4syZM7h9+zY+/fRTncyr1GHVqlUQi8VKp2ORR7du3VBbW6vS9TeDMCwrK6sWtSqUSCSIjo4GTdPo16+fvtWRi6mpKYYMGaKxYbm4uMDCwkKlAMYGYViurq463X3XlKSkJEgkEnz22Wf6VqVZNm/eDIFAgCNHjiisFx4eLvd2OkVR8PHxUemVbxCG5ebmBqlUKtewkpOTdXpQrYh6f/Pw8HB9q6I0EyZMwO7duxX+4d6/fx9bt26VW+7j4wOhUKj0lMUgDKs+RZ28D/7NN98gOztbx1o1TXFxMUQikdqHyvpg2rRp4PP5ChOXxsfH48qVK3JXkT169ACHw8G+ffuU6tMgDKs+TGRBQUGT5UZGRgazgbp9+3Z07NgRZmZm+lZFaZydnWFvb6/Q9aZ9+/awtLRU+Mq0s7NDXl6eUn0ahGFRFAUWiyXXEc7Z2VnuNTFdk5eXBy6Xq281VCYkJEShlwVFUVi4cKHCeVSbNm2UTgdjEIYFvD4zlOfV+fnnn2PixIk61qgxUqkUIpEI7u7u+lZFZcaMGYPFixcrrOPl5QWJRCL3KMjX1xfFxcVKLbIMxrAGDBiAwsLCJsucnJwwdOhQHWvUmPovtGvXrk2WSyQSxpwW9REewMLCAvb29nIvU/j4+Cjtu28whrVixQo8e/YMfD5f631VVlaqdUDL5/NBUZRcJ8G0tDT4+flpvG0ilUoREBCg9i1wTfD09GzWCVKZUxKDMSxLS0uwWCxcv35d6319/fXXagXYf/XqFdhsttwv3tfXF+Xl5Rpfn2KxWGjfvj3WrVunkRx1WLRoETZt2tRkWX1EQ2UykBmMYQFAq1atlF51aEK3bt3UymKqaK8NeP0qCQsLw4ULFzQ+olq5ciVKSkp0nkaOoii5ITGlUikqKirkXjD+OwZlWP7+/oxfGGiKTp06QSwWq/zKsra2bnZ+MX78eFhbWzc7UW6ODh06YODAgY3SE+sTFosFqVTa8gyrf//+qKmp0fqFUjc3NwCqB2azsbFR6uhpz549uHXrVrNJRJsjKCgIZWVlWg+pqQomJibIyckBAIggPzqNQRlWt27dYG5ujlOnTmm1Hw6HA1NTU5VHx/q5VXMG6eDggH79+mkcB6F///6wsrJCVFSUym21de4aFBSER48eoRQlMIb8JFoGZVgURcHNzQ2pqala78ve3h4//fSTWm2VWW5HRUXB3d1do0ufwOvjmGvXrqnk/ZGQkIDAwECN+m0KqVSKEydOQCwVoRKKw3oblGEBr/eISkpKtN7P4MGD4ejoqFKb+hFLmeMlOzs7REREyM11oyyzZ8+GUCjEhQsXlG4THByMoqIixlfYLBYLFRUV8PL1Qhf0VlyX0Z4ZwN/fH1KpVJbHUFX++OMPpeotXrwYERERKsmuP9O8cuWKOqqpBUVRcHR0xNGjR5Vuw2az4erqqtBbQR2kUinYbDZCZzfvhm1whmVpaQlLS0u5eymKePXqFSIiIpRysVG00akIKysrrWbVaIqVK1ciNzdXpS2MhQsX4uHDh4x65rJYLLBYLFy+fLn5uoz1yiDDhg1T69DZxsYG5ubm2LJlixa0ek1AQAAyMzN16vHas2dPuLq6quST5ubmBoqiGM+mYWVlhaKiombrGaRhrVq1CmVlZbJlrSp4eHggKyuLeaX+Hx6PB4FAgPz8fK318U/Mzc0RFxenUgwIU1NTdO3aFStXrmyyvLmNaIlEgq1btzZaARsZGSm1TWOQhsVms9GuXTu5oboVERQUBJFIpLXLGVZWVnBzc8P69eu1Il8e6iwChgwZgvv37zd6TghBZGRko2Agf4fFYuHMmTPYv39/g+cVFRWwt7dvtm+DNCwA+PTTT3Hr1i2l/X/qsba2BpvNxrFjx7SkGTBz5kw8fvzY4H30J0yY0KTHRX2yeEWXIyiKwujRoxsYVmlpKaRSqVLeswZrWN26dYOTk5NaCbNbt26t1ARTWf45nxo2bBjMzc3x6aefMtaHNnBwcACHw8GePXsalbVp06bZ5Azz5s2DSCSSnavGxMTAxsYG1tbWzfZtsIZFURSio6NRXFys8iuxa9eujK3c6urq4O/v3yCrA0VR4PF4yMrKMvhRa+jQoV+th6YAAAxCSURBVE0uNDp37tzs28Dc3Bw0Tcu+yz///BOdOnVSrmONL/drmbS0NELTNMnPz1e6zcWLFxUmJlCFHTt2EB6P12QZTdPkxIkTGvehD27fvk08PDyU/o6kUikZOXIk+e6775Sqb7AjVj2TJ0+Gq6srPv74Y6VTcgwZMgRCoZCRtGnZ2dlys5e2a9cO6enpGvehD7p37w4LCwulvyNCCIRCIUaMGKFUfYM3LOD11aTa2lql7/JxOByw2WxGDrOfPXuGQYMGNVmWkJCAgoICtbZF9A2bzUZiYiJMTU2VbiMUCmFra6tU3RZhWBwOB2vWrMGdO3eUntP4+vpi165dGh0CSyQS2RyrKaytrTFw4MBGkYdbCqqclbJYLFhbW+PX3EvK1VdXKV0zbNgwUBSl9Otw/vz5EAqF+Pnnn9XuUygUghCicA8pMDAQxcXFLSr2hDpcvHgRQqEQQ/ood6mlxRgWi8UCm81WmGzg71haWmLSpEnYsGGD2n1WV1c3e6Y4YMAA2Nvbw8/PT+1+WgKpqamwt7dvNrF5PS3GsCiKgqmpKS5dUm4oBl7HrzI1NcWqVavU6rPeA5TVTH6gyMhIFBcXq+Ta0pKoqqpCXl6eSmewLcawgNcbnzdv3gTQvIdkcXExKioqEBoait9//12tuVZRUZFSRyn9+/fHqFGjsGnTJo0d+wyR48ePw9jYGO3bt1e6TYsyLHt7e/z555+YNm0auFwuZsyYIdfAQkJCcPHiRYwbNw4SiUStqHsvX76EpaWlUnXXrl0LgUCAmJgYlfsxdJKSkhAUFKTSeWWLMCyBQIAbN26grKwMZWVlsLCwQHR0NCoqKhAUFITCwkIEBARg8eLFyM/PR3FxMWpqavDee+8BAEaNGoXDhw+r1CchBL/++qvSV/tZLBaio6Nx9OhRbNu2TeXPaKgQQlBbW4uBAweq1E4zv1ktU15ejp07d+Ls2bMAgI4dOyI+Ph7vvPMOACA9PR0ffPABgoKC0KtXL1RVVWHOnDkQi8UYPHgw7OzsAAAzZszAmTNnUFVVpfQIJBQKwefzMXbsWKX1HTx4MD7//HOsXLkSRUVFjHtw6oO4uDhYWFigZ8+eqjVU6zxAB6xYsYLQNE1GjRpF8vLySG1tLSHkdQaIH374QXYUwefzG2RpePnyJdm8eTP566+/ZM8EAgEZMWIEuX//vtL916diqaqqUln3Fy9eEA8PD+Lv76+zVC7awsvLi0RFRancziBfhSKRCL/88guio6Nx9uxZuLm54dWrVwgKCoKnpydSU1NlRxGWlpZo27atrK2NjQ1+/vlnJCcny56ZmprCyspKpRUln88Hm81WaWcaeB3XYMGCBRCLxbhx4wZGjhyJvLw8vSTf1JRt27ZBLBYrnS/x7xikYRFCQFEUevXqhezsbEyePBne3t4oKChAVFQU9u7dq/AHl0gkjSIZu7q6KnRs+ycPHz4EIaTZrYZ6SkpKEBERgSlTpsDIyAgxMTH4/fff0b17dwQHB2Ps2LFKR8MzBK5evYrvv/8eq1atUvo7+DsGOcficDiwtraGr6+vLMLLkiVLMHPmzGYj6RFCIBAIMHz48AbPbW1tVYol/9dff6G8vBw8Hg/t27dH27Zt8d5776FXr15wcXEBm82WfeGxsbFITU2FtbU1vv76a/Tt21cmZ9euXSguLsb58+exa9cupKWlYffu3Up5YeoLQghWrFiBiRMnwsfHRy0ZFCGG61C0atUqZGdn4+zZs42WuvWhfkJCQuDl5SV7npiYiH379uH8+fMN6sfHx+OHH37ADz/8ALFYDA5H/i1e4LVPeFhYGHx8fFBYWIiXL1+iqqoKYrEYUqkURkZGWLhwITIzM3Hv3j0sWrRIlvZWHoQQ+Pn54cmTJ1i1ahVGjx6t1migbT744ANQFIXjx4+rL4TJiR6T1Pv/3L17t8FzkUhEsrKyiJ+fH+nbty9JTExsUMbj8cjGjRsbyTt+/DgZPnw44fF4xMvLi9y6dUtWdvXqVXLy5ElSU1MjeyaRSMiIESPIkydPGugklUpJVVUVuXbtGtm/fz/x9PQkjx49Uumz7dmzh3C5XDJmzBhy+fJlldpqm40bNxKapsnTp081kmPQI9a4ceNgY2MDe3t7SKVSlJaW4sGDB7K9FUtLS2RmZspGs4iICFy+fLnBs3rEYjEWLFgADoeDkpISlJeX46effkJycjLi4uJk4XsGDhyIdevWwczMDF5eXkhNTW3SC4AQAk9PTwQGBjbKBq8MNTU1WLlyJXJyctCpUyesXbsWrq6u6n1RDBETE4O0tDTExcWhT58+mgljwMi1xl9//UWmTZtGxo0bRyZOnEiCg4PJ06dPyYMHDwhN0+TFixeyutHR0UplqXr58iWhaZp4eHgQHo9HaJomP//8MyHktecpj8cj7u7uZNiwYWTUqFGybY5/cufOHULTtEIPzC1btpAtW7Yo1KeyspJMnz6duLu7E29vb5KdnU2EQqHc+kx4xTbFpUuXCE3T5Pfff2dEnkEbljyWLVtGpkyZIvt3YmIicXd3J6dPn5bbRiQSkYsXLxJ/f3/i4+ND7ty5Q/z8/Mjy5csb/FiJiYkkKCiI/Prrrw1ejf/k4cOHhKZpIhKJmiyXSCRk2LBhZP369Up9ppqaGhIVFUW4XC6haZp4e3uTWbNmkcOHD5NTp06RtLQ0MnnyZMLlcomfnx8pLCxUSq4yXLhwgdA0zWhqP4NcFSqitrYWV65ckZ20f/vtt0hKSsKGDRvg4eHRqP7Ro0dx+vRp3L17F1KpFK6urti1axc6duzYYK+rnrKyMhQVFcmOg+TRoUMHmJiYYN68eYiJiYGFhQWA14uKvXv34uTJkygvL0fnzp2V+lxmZmZYt24dxGIx8vLycPToUWRlZSEhIQEURcHY2BjDhg0Dl8vFwYMHERQUBB8fHyxbtkxpV5Z6BAIBsrKycP36dVy7dg2lpaXw8/NjNEJNizOssrIy2T7V+++/D4FAgE8++aSRUeXk5OC///0vJBIJ2rVrh4MHD8LJyalZ+U5OTko77R09elS2JK/32yL/vwfXs2dP2Nra4tatW0rJkkqlyMnJwdq1a1FZWQlCCJydnXHgwIFG88Xhw4fj5MmT2Lx5M06dOgUOhwMbGxsMGTIE48ePR5cuXUAIAZ/Ph7W1NaqqqrBjxw5cunQJAoEAUqkULBYLxsbGGD58ONauXatxVJx/YtCT96YQiUSYO3cunjx5gt69e+N///sfnJ2dG9QhhMDDwwPvv/8+IiIiZEv6uro6GBkZKVziX7t2DUuWLMH58+eVDhpSU1ODy5cvg6Io9OvXDzY2NgBeezxcvXoV+/fvB0VRqKysxLNnz1BTU4MnT56gpKQEubm5ePToESQSCTgcDvr16wdPT0/4+voqtRWRn5+P9PR0PH/+HEVFReDz+TIvWzabLTN0Gxsb9OrVC4MHDwaPx1MYpJcJWpxh1VP/hTVFbW0tRo0ahY0bN8LFxQW5ubk4deoUsrOzMXXqVKxevVqu3OzsbCxfvlwlw5LHX3/9hXnz5jW6k8jhcGBubg5zc3O4uLjA29sbffr0gYODg8Z91v+c9d9P/X+1aURN0eJehfUo+qJMTU3Rq1cvREZGoq6uDtXV1WCxWIiMjGzgBhMdHQ1XV1dMmjRJ9uzBgweM/RCdO3fG6dOnIRAIZDqbmZlpdVO0Xu9//lfXGN62L0PExMSge/fu4HA4mDlzJnJzczFlyhRZqOnCwkL88MMPsLKyatDu0aNHjM432Gy2LOaXhYWFQe60a4MWO2I1R0hICPh8PpKSktClSxfZ8+rqanzyySe4dOkSOnXqBG9v7wbtrl+/Louq/Bb1eSMNSyKRoKioCCkpKWjXrh2EQiHS09Nx4sQJPH78GFKpFBRFISkpqUG76upqtWJFvKUxb6RhsdlsuLi4YObMmbJn9RPl2NhYbNq0Cba2tg0OogkhWL16NaysrJT2Mn2LfN5IwwJep/sVi8UyT4b6uY1QKERxcXGDleHjx48RFhaGqqoqfPPNN3qb8L5JvLGGBbyOgvfPiXhdXR0IIbLd6pSUFMTHx8PKygppaWkqhWN8i3xa7D6WuhBCMH78eFlsKBaLhfHjx2PJkiV61uzN4l9nWMDrsN1Hjx6FkZERpk+frvJZ21ua519pWG/RPv+O3bq36Jy3hvUWrfB/vsxS4MKZkKsAAAAASUVORK5CYII=;" vertex="1" parent="1">
          <mxGeometry x="808.6800000000001" y="77.5" width="38.46" height="40" as="geometry" />
        </mxCell>
        <mxCell id="XqwRq8SYC38xC89JIGz4-61" value="" style="shape=image;verticalLabelPosition=bottom;labelBackgroundColor=default;verticalAlign=top;aspect=fixed;imageAspect=0;image=data:image/png,iVBORw0KGgoAAAANSUhEUgAAAK0AAAB3CAYAAABxCsAKAAAACXBIWXMAAA7EAAAOxAGVKw4bAAAYjElEQVR4nO2deXAcx33vPz07e+Bc3BAInliQkqiDsm7RFGVLlJaSHDs6YpPypedKFIP1yqpy6REvNn0lqpTBxFXPfzwhpSQOK7IFKpGlxJIT4Vkiw0M3H3VYvGQsSIAXCGBxLM7dnZnOH7OzWCwXIC4SGO58qlDFGs7OdPd859e//vWve4SUUuLgYCOU+S6Ag8N0cUTrYDsc0TrYDke0DrbDEa2D7XBE62A7HNE62A51vgtgN6ISBqMwqsHpuM6IJlHE7K4pgTxVoUJVyFGhyOc8mMlw2maKtAzBoZMab50e4v2TUbpGdAb6BojFNMQsRQvg9brJL8inPNfF52pyuPGKXK5e6qLGN/trX24IZ0ZsYnTgUJfO84cG2P3pIAfPRdDiOqgJlQoF5kCwSAEYpsmVEqFLvB43N1cV8MA1eTy8qpArSxxPzsIR7QQc7ZX84r0ILx3tIdQdAVUBVWXMrAoQkrlRbYLURyElxDXQDK6vLuJbn6nga2tyKM2Zu9vZFUe0GfiP4zo/bj7LgY4+pIIpVjD1aeigGWBI0Oe46RRhWnGXav47YXnRNLzCxZ3LSvjBPeWsX+ya2/vaDEe0KUQl/PrTON975SRtA4PgcY9ZVkOHuI7HpRLw51GVq1JZoOBxCYxZGFwBIGEoLukdkZyIxGiPDKJhgNuy7AKkATGda0pzaXxoOXcuyV7hOqJNEJfws3eG2P5GO726Bm63+R9SQjyOT3Vz/4oS7qz1c1eNl8W5Aq8PXEqiV5+NlyBBNyAegyP9BnuOjfLmyQj/daKXqKGD22WK15AQ16nO9fE3G5ex+Xr3XFTddjiiTbDjcJSnftNGOBodE6yuIyTcvqSIb99UzJeuzMXvvTTlOReFVw4P8Xfv9XGwowfpcoGSGIyNxggU5vDzL67gwVXZFwByRAu8fVpnc1M7bYMD4PGYB3WdfA3+7I6l/K97CqiaJ6N2PAJ/+UaYXx08Q9ybItxojOsq/PzyK0u4viy7IgvZVdsMdMTgJ7u7Ej6sJVgDv1vlr++vYfu98ydYgBWF8LdfKKV+wwoKEKZvDeB18/tzERr2hRk15q9880HWi7b5WJTdLT3gSXSzhoEbePK2Kv7n7TmoC2C8U+qGv7grn2/cUglxHQwDEOBx8fKhbn53QpvvIl5Sslq0bUPwzN6zxIRhDnSkROgGj6+p4vt3Fs5lBHbW5AI/XF/Cg7WV5qgNQFEY0XR2HOihP4t0m9Wife3TOEfCQ2YIQAC6xqqiXLasLUoa3oVERQ78+O5yqnN8EI+bZXYpvHWsl/c79Pku3iUja0XbHYdXDocZ0A1zcGMY5ErB4zdVcl3ZQrKx41l9hcJ9V5YhUMwQmKIQ1mO8fmSUbJFt9oq2H46dGzatlRCg66wsLmDzDXksADd2QnJd8Odr/awu9IGugyKIC8GeUJjWofku3aUha0W773SMrtG4mVMgDYQUfHZVEZW5812yC3NNuWBVWZ5paSWgwIm+EU52znfJLg1ZK9rDZ+JEtHhiAAYeCbdW5+CzQYvkA9cuLsCtmINHFIURQ3BqOD7fRbsk2OARXRz6hzVkcv5VoghB5UIcfU1AVbGKDwUwra1mGEQ0g2wI2WanaCV0RYbN0FEim0oVkpL8hTsAS2dlmYpPMV0bhGBUGrR3x4hnwfxmdooWMDDGJbm4fGpyQswOeMVYhhgCDCS9I4Y573CZY5/+cBYMSxgYAS0OowYc6NJoHYwlUrQAJF7VzXtndYaEwrAuLzixYEhBlSooUgUuFQpyoOAShh3K3S7cigK6BgikrnO2N4qmwYIOf8wBl61oDQmdMfjgrEHzsUE+au9nMCoY1gzCsSjdmjaW3K0o9ERj/Oi1E7iFQDKFPlYKclUXOaqC1y1YXZXHvav83L7MxbJccF1kT8OjgEskypnI+R0Y0hxLa0cMoLUfdhwc4PWPe+gYjnIqFkfXddMZUoQ5mSCUcUtn4oakQ4vCVARrMYrpU0o40NnHbw91sjjPy9qrivnGGj/XVwku1rrESFwSs7LPExGExeW+ZFbl5cxlJdpzI5KmT4b5v+900RoeMEfSimLGYj2JPjOpSck4gQrANcN+VQgMKenSDbr6h/jw7UGaPuzkG7dW8J2b/Kzwz73ZPafpaIYcc2wF+LyuOVkZvNC5bET71mmD7/2/c+w93o1UhblUxco91Q0zOwppJsVIMSfJMIbAXNwohGm5XQqoLqQ06InH+T97TrLnaIQf3VfFF2rdc+pqnoroxKRMRD8kPhSWlaoLIivtYmN70RrAS60xfvhqB0fC/aZFTYpVB13HLxTKPR6KivKoKvKwvNiNT52i7zoBCtDer9PeF6e7q5+umEZfXEMqwrTYib8POvv485ejfH/9Yr59Sw7uOYrXtHRoDCIBF0gDn0vlKr+PLPAO7C/aF47F+O6/tdExOgpelaSPp2nkuVRuWlLKV9aUcluNhxqfwO0CNWW94mzQNPPvdLyCd05ovPRxmL3HexmIa6C6TCvo9XBuOMoPXm9Dk0t58vbcWccZOzR4v7UHw7K0cYnfI1hcmAVmFpuLdnebTv1v2ugYjZorZyVmgrRhcH1ZEU+uq2TjlR4qfRcnCuRVARX8PsHV17n54qor2NNSys/f6eLN070YMjHoc6v0axo/2dWGz7Ocuhtnt3nB3ladI93DSdcAaVBTlsuSyrmp10LHtpMLn3TC1v84y8nhqOm/Aug6LkPy9eur+PU3F/OtNR4WXSTBpiOAMi88co2bf31sEd+5o5ocYZYJAFWlP6bxs91n2XNm5nGpSAxeONjLmXgsuRTYZ8D6QAmLssE3wKaiDcfg+2+c40BH71isVdPwSclffHYZ//CFUmrncUq2Mgf+5t4ifnTPUgpcLlO4AvC4CfUP8pP/7KB9cGbXfvlIlDdC4YTfLsAwqMjz8fBq3+U+p5DElqJ9s11jb0uvaWkUwJB4Ddhy2zLq78pfEKsOVODJW/PZun4xeQlxAeBV2d8W5vmPhqd9zY+7DX66/yz9WgwUl+kOaTpfvK6cq8qzINaVwHaiHZXwi3fC9Blxc7AjJeg6d9eU878/X0D+AhCshU+Bp+7I58vXVsJIIm1QKMSRNH8aoW0auj07CN9r7uRoZyRlXwaNirxcNn+mABulTcwa24n2t0dj7DnZl5jVAnSDJYU5/ChYTvkCfHI+F3z3rlJuXlRibigH4FXZ1xbm9SMX9hEM4K0OnYeaTvHbUHdiqybA0HFJwXfWV7D2imxxDExsJ9pXQz30DUfNOGhim6Cv3VjObRULtyrXlsAjN/oTW3oCQqBLnVdDo4xcYGHXoU749r+e4t1TPWadhelqCM3g69dW852bCi9+BRYYC/dJZ6BjFP5wJg6uxKSANCjNy+PR2oW/RubhKwu5qizPTDVDgKqyr62XY0OTqzYWh76RRKTACi5rBhtWlPG9YBEFWRIxSMVWon37jMax3hFzdsBM12fDCj8ryheQIzsBq4rhxkofySWziiA8PMr+T+OERyE+QRRsZTVsvLrc9BOsHax0yepKD0vzL0XJFx62Eu0fTsbpHhxNTtMqBtxamUvxAvRlM7HmCj9ej2pGEoQA1UXDnjN86bkOvvVqFy8ejTOQZngLgQeuyaNMSWzPmEiQ+bh9hHCWrL5Nx1ai1TSZzNRHSjwuhaJ8+/SPN9R4KPe6zXRGAKFwamSEN8908csDHfzpy608tOM0P3t3hNAgWJvG3FrlZs3SEjPpRwIelXc7B3jxUHS+qjKv2Ea0EugejSVWz5qDEX+ul/Ji21SBqwsUClTVHEBaYVXFZYawfG76dZ03Tob5yesn+OpzbTy9Z5BPeiVlOfCVNSWo1ma4LoXheJy3WyNEs2BNWDoL3xlMEAOiaWn5qiJwq/YJqrvJYCWkxHRYFdPt8XoZ0HXe7YjwQWeEf37bx33Xl1Pm8+HP8RCOWgM5hf86GWFfaxEbAvbpbeYC24hWwHnf65JIbLe9bmpxpUGhqqLrCkOxmLlGR0mkVvpcxAyD47Eozx44hepS0IUY+xaDy0VH/xCvt0fYECidr9rMC/bpWzF71VQUBIqNUvUljG9xw2B1cT7PPFzDDzcsZ0m+j5yYZm4uZ+iJwZqKVF3EEYk9DVK+ruNRePXoMC1DNntxZ4ltLK0H8KsqSVOlKPRFY3T3J7pWG9AlJVFdJne1QZfUVHh46Eo3BVe5+cY1Bew+EeWfD/bw+44++mKaWTVrUiEdVeVQZz9vtlRSu8YmIZQ5wDaiBcj3qKb7JwAE0VGNyKB9lp+29RkMadq4/RauKPAmV+4GiqGm2MsDq6vYHSpj54e9HDgZoTMaNRO+1QzilZJXPu3noWvLyZIccHuJ1u0WoMhkkF0HBmMa2CRd5EhbnJ64logzS5CCEq9K6rdHBLDIC5tXu3lwZQUfdpTy0u8j7Grt40jXMIbUzOxzkVCoy8W7R7s53l3Kmkp79DizxVa1vG6Fh6rCvERitcBwCXadHqRzZL5LNjUOdvQRjWnmIkgDEJJrF6sZ82AVoMgNn1vi4ucPFPPy11fQcH81GwLl+KSAaNycpFAEnbrOC4eHyZaora1Ee0eli6tKcsyFWQAuhb2tPRztWviP64NOyYGzo2YOAQCSFUX5XF1x4T5dACv98NTtRTy/aRH/9Mer2HRdFeWKCyUWJ6br/OcnXbQOXNQqLBhsJdpCD6xYpCbWbgNCYTge4zehhS/apk/6CfUMmn4p5ndvN6z0E8id3iMo98Kma1X+/o/LaPpmgKfW11BbUkCoe4R9NmiHucBWohXAA8uLKMnzjS1hcavsPNDF704u3M3b3z8Hr3zSP9bahoHPrXL30pkvkclX4Z5qlb+8J5+XvrqCrZ9fykdtOv1ZoFvbffxuxIDNz5/j31s6zYRogGiMzy4q5YWvVVOdN7/lS+fUMPzpv5ylua3bnK4VwGiMR65axN89WkbZHE1maRJGYpDnOX8S5nLDVpYWIEeBJ9eWUeL1JHYMxEwg6ejh+78Lc2qGCwYvBp1R+KvdvbxxPGx+WTyxOrfI7ebRGwrnTLBgfry8wHv5CxZsKFqAO5a7+PJ1lRAzEpsKK2guF899eJbv/raL9gUwIDkXg6d39/GP759G8ySmXw0JMZ37r67g/pX2CNMtRGznHlicHYEnXurk1T90jH0eNPHF8FuqS/nVlxex8iJs/DYVjoQlP3i9k3873InuVswZLQnE49y2qJhnH6nm+pIsMIkXCVtNLqRSlQM/3lDO8b5hDoWHxmaLXAp/CA9xKqqz8hJWL2ZA5zA898Egv/x9N4e7IuanS0Vi4+a4RlV+Lj+9r8oR7CyxrWgBbqoUPLiyjENdEZCJNVRxyZfWFLOuInPVJIltZWd5bwEMSegbhk87DV4+NMDH7RE+6uonKiXj9sKPxijLzeMf/2g5n1uWJXOtFxFbi7ZtBN4+3W9OiyrmB+wKczw8GCg8b/fAIQ2OhQ1e+GiIIyd6ENIwv3o4UwSMSINI3ODssM7J0VgiP0BN5AfIhA8b5zNXFNNwXzX31jqCnQtsLdqPjsd573hPYic4IG5w+6JCgqvGZvPDUcnbHXGePzjA3pY+OoZG0PXxHwmZFYpIrvdK5roCxDVyFBf3rKrgh/dUckuVLce8CxLbinZIg18djhC1RGNIPKrKnSv9FLrhWFiyt22E5z7o481TYTMX15XYEVzMYazJGscmthdFN8CAO5aV8Wc3l/Dwah/+7FpYcNGxrWg/7DV4J9QzNpcvJVW5XnRd4ad7R3jpSJj/f7YPQ8GMkaYGMK3chdk4tta28YnlXrlS4M/xcvOyQoI1fv5otZclec6A62JgS9FqQPOhYc6MRknu1y4EvZrGLw6c5kxkGM2FuQVoIvfW3PNLAwl5bjdFqrm6Zaa6lRJyvCqL/LlU5fm4e2Uen632UOUXtlnSbldsKdqTvfDSR91oyLGkaCGIaAaReBS87jGfVZqDIQRU5/q4fVkx37y5mOXFruQCgplgjbkK8yDfBX7mzk12mBxbivadjhjtkZGxbytYCDEmYml+HMQlBNdUFrB2aR5fXVPKzVco+Bwf09bYTrSGhBcO9DJgxMGd1g8ntnInqpHr8/C5mkruuiqXP1mdxwobfffWYXJsJ9qDXXAoPGjONFkYZg6C0CQVOT7uXV3JI1f7WRdwU+b4l5cdthPtrw/30NI/Yg7ADB10A48hqMj38SdrKnjgmjzWVrrItV3NHKaKrR5tOAZvtY6YAysp8btVrqsqYtMtJXx+kZcV5Qo5Tgz/ssdWov33w1HeOdHLosJ8blnu57EbigjWevA7s6NZhW1EOwoc79XZfEMV/+OWYtZWK3P29UMHe2GbfNqohHMjUO7DcQGyHNuI1sHBwrFZDrbDEa2D7XBE62A7HNE62A5HtA62wxGtg+1wROtgOxzROtgOR7QOtsMRrYPtcETrYDsc0TrYDke0DrbDEa2D7XBE62A7HNE6nIcQgo0bN853MSZkRqLdsmULQgiEjT6mfCG2b9+erFPq31xjXXfLli1T/s3+/fuTv6utrb3g+Rs3bkye39raOpviLkzkDABkMBiUgGxqaprJJRYUmLsjyVAoNO54XV2dBGRDQ8Oc3KepqWlc202Vffv2JcsIyH379l3w3EAgcMFzJ8Iq40Jl2pZ2//79ADzzzDMA7NixY7bvzbxidYNSSmpqasb93zPPPENdXR319fXJes+GvXv3EgwGefzxxwHYuXPntH5fV1cHwNNPPz3hOc8//zwATzzxxMwKaQemq/K6ujoZCASS/yaDhUq3DNaf9TsppWxoaMhoCazfplo36z5SyqQFSbcE1jnW31QsRaZ7pRMKhc67nnWsoaHhvLpOdq3U/59qGdPLOVGbp5drova1rPxk7ZTp+ESW2zo+Uf1Ty2T1NJmuMx2mLVpA1tXVSSnHursLdZ+ZxDET0QYCgYzuSCAQGPdCWOVMP5bORGXIdP3U99t6EBO9iJnKaLWVdS9LPJnEl05qm0z2oln3D4VCGeuWXjbrWukCTT+WyRW02sDSQur1Uo9Z52V6RjNlWqK1Gt4qfCYrlIlMPtxMRJvpPqkParKyTlauCwkn/bzUB5HOROVMb4PJBJ5OeptMJIBAIJC891RfyEzPJrUOVtunlzMYDGYsQ3pPkPqCz8a6pjItn9byXzdt2gRATU0NwWCQ5ubmCUepO3fupLm5maampuncKiOWH53Krl27CAQC5/mjt956KwDt7e2zvu9E3HfffecdCwQCtLS0jDvW2tpKc3Nz0icFePTRR4GZjQmeeOIJQqHQOJ94586dhEKhpL88Vax2y/T8tmzZQmNjI01NTclnbtHc3Jyx/uvXrwfgzJkz447X1dWxbt26aZVtIqYsWqvhg8HguON33303AC+++GLG323bto1AIHBepeeKlpYWQqHQeaGqQCBwUe43E6y2sR4omGIJBAKTvvATkUnwO3bsmNN2bm5uprGxkWAweN41rfI2Njae1+6bN2+ek/tPxpRFazW8JVKLtWvXAvDss8+e95vt27cTCoUmHe3OBcFgEGm6Ouf9bd26dcLfWVYm3Sqk09LSktGaTxWrbSzrb2FZqole+Imoqamhrq4uKfj9+/fT3Nw8pYhBbW3tOJE1NjZmPC8YDNLQ0EBzczPbt2/PeE5DQ8OE7T5XVjUTUxat1fD19fXjKn3nnXcCEAqFzgsL1dfXZ3xT55r07niqWJbvrbfemvCc1tZWQqFQxq5wKuzfv59QKASYrkMmwWR64S/EY489BpiCt8JclgXORGtra3KyJFVcqS5LOlu3biUYDFJfX58xPHfixIlpl3sumJJorYavq6vL+FZZ/qrVeEDy7dy2bVvGay5duhSAU6dOjTs+Xats+XcziaNu2rSJQCBAfX39hOdYM1dPPfXUtK8PY22yb9++jG0XDAZnVP5169Yly97Y2EhdXd2kPcF7770HTN+Hfu211wDYvHlz0i2wxjITWemLzlRGa9aIcLLRH4kRopSZwyET/SZ1BJoaa80UPZholJ96bwurDBeKDKTGWdOxRtbp9Zisfukj+/Q6pmNFOSZrq4nCXFaEINOzSY8eZApHpf4+tZ1Ii4CkzrKlH0uPlDQ1NY07b6pamA5TsrSNjY0EAoFJ/RSrm9m5c2fSR8vkqKcOOkKh0LhBlHVsusiExUofiIVCoQv6oevWrcv4e6s8dXV1yXpM1xpaXepkvqblOs3EalnuwIWeDZj1bGpqGvdMdu3aNaWozrp162hoaCAUCiV7Hqvdmpubx7XZtm3bZuyuTRVn18QpsH379qQLEQwGk12mw/zgiHYa1NbWUltb64h2nnFE62A7nCRwB9vhiNbBdjiidbAdjmgdbIcjWgfb4YjWwXY4onWwHY5oHWyHI1oH2/HfUmTdnsI7eSgAAAAASUVORK5CYII=;" vertex="1" parent="1">
          <mxGeometry x="17.739999999999995" y="77.5" width="50.88" height="35" as="geometry" />
        </mxCell>
        <mxCell id="XqwRq8SYC38xC89JIGz4-62" value="" style="shape=image;verticalLabelPosition=bottom;labelBackgroundColor=default;verticalAlign=top;aspect=fixed;imageAspect=0;image=data:image/png,iVBORw0KGgoAAAANSUhEUgAAAJYAAACcCAYAAACdmlKEAAAACXBIWXMAAA7EAAAOxAGVKw4bAAAgAElEQVR4nO2deVyU1ffHP88MDDsqICCouOAuml+XTHmEQUkcyX1DAQncAfuqfV1QlEzLMFMRA0MMNxSCXBIVrcSlwlwC3BLBREVFUZYBhmGW+/vDH/OKYIZZnlkw3/+Uz7333DMzh/vc5dxzKEIIwVvewjAsfSvQHIQQPHr0CK9evdK3Km9RASN9K6CI0tJSLFiwACUlJWCxWBg8eDC+/PJLfav1RlNTUwNzc3ON5RisYT1+/BgffvghOBwOvv/+e/D5fMyePRtFRUVwcXHRt3pvLEwYFWDAr8Lg4GB07twZGRkZaNu2Lbp06QJnZ2ds2bJF36q9RQkMcsRKS0uDRCLB9u3bGzy3sbHRy1yLEILMzEycO3cOffr0QUBAACiK0rkeLQmDNKw9e/Zg6NChMDMza/CcoihIpVKd67Nw4ULcvn0bHTp0wG+//YY//vgDW7du1bkeLQmDM6za2lrw+XysW7euURmLpfs393//+1/cvXsXBw4cQMeOHfHs2TNMmzYNubm56N+/v871aSkY3ByrqKgIhBAYGTW2eVNTU4hEIp3p8t133+H69evYuHEjOnbsCABwdHSEl5cXIiIidKZHS8TgDMvFxQUsFgtCobBRmZ2dHQQCgcL2UqkUfD4fV65cwYMHDyASiSCRSFR+hRYUFCA2NhbLli3DsGHDGpR5e3uDz+erJO/fhsG9Ck1NTWFlZYXVq1fjq6++alBWW1vb4HUolUohFAqRnZ2NL7/8Enw+H/UHCSwWS/b/f3/Wpk0brFixAgMGDICpqalcPcLDwzFgwACMHz++UZmbmxsAQCwWNzmyvsUADQsA1q9fjyVLliA/Px/du3eXPTc2NoapqSmysrKQlJSEoqIiSCQSmJqa4t1330Xv3r3h6ekJe3t7mQESQkAIQVlZGU6fPo3c3FysXbsWQqEQrVu3RnR0NHr27Nmg/+LiYlRXV+Pjjz9uUr96Y3q7MpQPZahnhaGhoXj48CHS0tJw7tw55OTk4Pr163jy5AmMjIzQv39/TJ06Fb1790abNm1U+pEJISgqKsJXX32FnJwcBAcHIygoSFY+YcIEODk54euvv26yfWlpKSZNmoSsrCy9LChaBMRAefz4MRkwYAAZNGgQcXd3J6NGjSKLFy8mfD6fSKVSxvo5duwYoWma+Pn5EUIIyczMJO7u7qSqqooQQohYLG7U5sSJE8TDw4MxHd5EDOpVWFRUhF27duG3336DVCrFu+++i0WLFqFv375ae+2MGzcOPXr0wLx58xAVFYXs7GwMHz4cFhYWSE9Px/79+/Hdd9/B2NhY1ub48ePo0qWLVvR5Y9C3ZYvFYrJv3z4yefJkQtM0mTRpEsnIyCBlZWU61ePx48ckKiqKcLlcIhaLyf3798mIESNIcnJyg3pPnz4lNE2TgoICnerX0tDbiPXHH39g06ZNePbsGQBg0KBB2L17N1q1aqWXSbGzszMuXbqEhQsXgs1mIyQkBIMGDYKfn1+DenPmzEGPHj3QtWtXnevYktCZYRFCUFpaiitXrmDLli0Qi8Xo06cP5syZA29vb12poVA/V1dX/Oc//4G/vz9at27d4MCbEILw8HDU1ta+Pc5RAq0bllQqxY4dO3Dq1CkIBAJwOBzMmDEDs2bNYsxFgwkoikJcXBykUikqKyuxevVqWRkhBKtWrcLNmzcRGxsLS0tLPWraMtDqdkNMTAzS09NhZGSERYsW4b333oOjo6PBL9FLS0thZ2cH4PUfxvTp0/HixQskJia+fQUqiVZGrPv372Pu3LmgKArBwcGYPXu2NrpRmbq6Ojx58gSEEFhaWqJt27ZN1qs3qlu3biE0NBROTk7IyMiAhYWFLtVt0TA6Yj148AD79u3Djz/+CC8vL6xevbrBMl1f/PHHH8jOzsaRI0dQW1sLiqJACEGHDh3w1VdfwcHBocl2T58+xZUrV2BsbIza2lpMnDhRx5q3XBgxLLFYjLlz56KwsBCWlpaIjo5G3759mdBPY7Zu3Yq0tDRIpVJ4eXmhvLwcLBYLc+bMQUREBAghSE5ORuvWreXKuHDhAtasWYPBgwer7cH6rztX1HS/Ijs7m3h4eJCxY8eSyspKTcUxSnFxMaFpmhw9epQcOXKE9O3bl/Tu3Zv079+f9O/fn9TV1REej0dWrFjRrKy8vDxC0zQ5ffq0WrrU1NSo1a6lovYs+tq1a/jggw+wfPlyjBkzBidOnICVlRWTNq8xX375JVq1agUul4uNGzdCKpXCyckJoaGhcHR0xJgxYxAWFobLly83K8vNzQ1cLhcxMTFq6fJPb9g3HZUN69atW1iwYAGWLFmCjh074vDhw1ixYoU2dNOIgoICXL16FbGxsViyZAlqamoAAAKBAMOGDcPevXtRU1MDKysrSCQSpRwI165dCz6fj/Pnz2tb/RaP0nMsqVSKuXPnIj8/H/b29ti+fTvat2+vbf3UZtGiRSgvL8eBAwcwbNiwRo55u3fvhrGxMU6dOoXs7Gz4+fnB39+/WbkBAQGora3Fd999py3V3wiUGrHq6uowb948PHz4EPv370d6erpBGxXwestj/PjxOHnyJMRicaPy/Px8mJiYIC8vDzY2Nrh69apScrdu3YqSkhLcv3+faZXfKJo1rF9//RUTJkxAcXExUlJS0KlTJx2opTkSiQTGxsYoLi5GXV1do/L4+HisWbMG1dXVCuXk5eUhMTFR9m87Ozt06tTp7Y3sZlBoWJ9++imWL18OZ2dnnDx5EjY2NrrSS2NYLBZEIpHcY6PKykoUFhbCyMgIpaWlGDVqVJP1rKyssG/fvgaj3uzZs3Hz5k2t6P2m0KRhVVZWYuLEicjKykJMTAwSEhJanBtuz5498eOPP2LcuHFyV2RsNhvdu3dHdXU1Ro8e3WSdzp07g6IoHDlyRPZs5MiRsLKywubNm7Wi+5tAI8MihGDGjBngcDhITk7Gf/7zH8Y6S0lJQVpaGmPyFOHv74979+7BzMwMPXr0aFRuYWEh2x4xNjZWeELg6emJlJSURs8yMzOZVfoNopFhJSYmoqqqCocOHZJ71KEOd+/exc6dOxmT1xzvvPMOKIrCL7/8gsTERPTq1QutWrWCtbU1bGxsYGpqiqlTp+L3339HZGSkQlmzZ8/G8+fP8eLFC9mzjz/+GHV1ddi3b5+2P0qLpJFh5eXlye72MYVYLMbSpUvRq1cvTJkyhTG5ijA2NsaECROwYcMGGBsbIy0tDZmZmfD390dgYCAOHz6M9PR0+Pr6wtPTU6GsTp06oX379sjPz5c9oygKvr6+SE5ObnLV+a/nn1vxvr6+5NixY4xu7+/du5dwuVzC5/MZldscAoGAeHh4kH379jV4fvnyZcLj8cjUqVOVllVZWdnoYkVtbS3x9PQk6enpjOj7JmH0DyMDgCaX5+oilUqxe/duzJs3T+cOcqampvjwww+RkJCAgwcPwsLCAhUVFairq0PXrl0bbCM0R1PHVSYmJpg/fz62b9+OSZMmMal6i6fBzntxcTEmTJiAwMBAhIeHayy8uroakyZNQtu2bXHgwAGN5WmiR1JSEp48eYLu3bvD398fbDabMfm+vr5wcXHR6RzS0GkwYrHZbIhEIhQVFWksWCKRYO7cuTAxMcH+/fs1lqcJFhYWCA0N1Zr86dOnY/fu3ZBIJIwabEumwQy9TZs2YLFYePXqlcZxqL788ks8ffoUhw4danF7YKri7+8PFouFzz//XN+qGAwNDIvD4cDIyAgFBQXgcrlqH7TGxcUhIyMD69at+1e481IUhZiYGJw5cwbFxcX6VscgaLSnYG5ujsmTJyMkJAQ7duzAjRs3VBJ46NAhHDp0CEuXLm12Gf8m4ebmBldXVyxZsgTEMMNh6JRGhmVtbQ0HBwcEBgbC29sbH330kdJf1M8//4y4uDisXbsWEyZMYFxZbcKEMURHR+P58+dITU1lQKOWTSPDYrFYqK2tBQBERkbC0tIS77//vtygsvX38CZOnIh169ZhwYIFcg90DZVnz57B399f43mlnZ0dZsyYgdjYWJSWljKkXcukkaPftGnTMHToUCxduhTA67/kxYsXIzc3Fw4ODhg4cCAcHR3x5MkT5ObmoqSkBFKpFN26dUNYWBgGDBiglw+iKV5eXhgxYgSioqI0lhUaGoqCggKkpqaiVatWmivXAmlkWPPnz4eRkVGjPZmbN2/i+PHjuHnzJurq6sDhcNCzZ09wuVz07NlT7h29lsLly5exfPly7Nu3j5EEBTweD927d8e2bdsY0K7l0eg+kpOTE/Ly8hpV7Nu3r8Fc6dIG7777Lt555x28fPmSEcP66quvMHfuXLx48aLF/9GpQ6M5Vps2bVBRUaEPXZSiPqqyNti+fTtjbkI9e/bEmDFjMHnyZOzZs4cRmS2JJg1LmRsrd+7c0cuyesWKFQgNDWX0PFNbREREIDIyEklJSdi4caO+1dEt/zyVvn37NqFputlwjJMmTSJpaWlMHogrRWlpKRk5ciTx9vYmFRUVOu+fEEIuXbpEZs6cqXT9mzdvkhEjRpBZs2ZpUSvDotGIVR+luLlLBo6OjkhPT9eOtSvA1tYWZ8+eRZ8+fTB27Fjs2rVL5zoMHDgQ5eXlmDRpklK+WH369MG3336LV69eYfTo0bJgc28yjQyLzWbDxMSkWaPp2rVrA49KXUJRFLZu3YqVK1fi4MGDyMjI0Gn/pqamSE5ORmVlJRYtWqTUlKBLly7IyMhAly5dEBAQ8MYn9mzSTbR169bIyclR2HD27Nmora3VS9KkesaOHYv58+fr5SpWq1atkJKSgvz8fCxZskSpNhRFITY2Fm3btsWsWbO0rKF+adKw+vXrh3v37ilsaGNjA4qi9PI6rIcQgrNnz6KqqgqrVq3Sef+2traIiYnB9evXlfY3Y7PZOHDgAExMTDB69Og3doe+ScNatWoVKisrcefOHbkNKYpS6QaxNlizZg0ePnyIRYsW4dKlS7h7967OdejXrx+WLl2KxMREPHr0SKk2LBYLR44cgbOzM6ZPn47c3Fwta6kH5M3qeTwe+eKLLxTO/FNSUgiPx2M0oL+yxMfHE3d3d1JYWEgIIWTq1Klk4sSJOtejnt9++40IBAKV2kgkEvLZZ58RmqbJxYsXtaSZfpBrWEePHm3WaGpqaghN0+Tp06daUU4eQqGQeHp6kri4uAbPR4wYQTIzM9WWW1VV1WQmCm3zxRdfEHd3d3Lq1Cmd960t5N7x6t27N6qqqhRuO5iamoLD4eCXX37Rymgqj23btsHIyAgLFixo8Dw0NFSj0JTh4eF68Vtfvnw5/P398dlnnyEwMFDhFKTFIM/ihEIh8fDwkL1q5BEfH094PB7jFi+PjIwMQtM0+fXXXxmXffr0aVlmCn3w4MEDMnv2bELTNPH39yf37t3Tix5MIHfE4nA4cHZ2xjfffKPQMD09PcHn83VyafPGjRv4/PPPERQUhPfee49x+VwuFxKJBOXl5YzLVgYXFxckJSXh3LlzEAqF+PDDDzFx4kSDPruVh8LrzjRN49q1awoFdO/eHZaWlloPRHblyhWEhYVh9OjRCA4O1kofHA4Hbm5uCAkJ0Yp8ZWGz2UhNTcXWrVthZ2eHDz74ADNnzkRmZiaePHmiV92URtFwVh8c9v79+wqHvcjISOLj48PoUFqPVColUVFRhKZpsnnzZq308Xdu3bpFPD09db4gUcSff/5Jli1bRry8vGQp8LZu3Urq6ur0rZpcmo2aHBAQQGbMmKGwzvfff09ommZMqXouXLhARowYQbhcLrl8+TLj8uVx7NgxIhKJdNafKtTU1JCwsDDi4eFB3N3dSUBAABEKhfpWqxHNGlb9loKiMNQikYjQNE1SU1MZUUoikZAdO3YQmqbJ+vXrGZGpbX766Sfi6+tLrly5orM+z58/T2bMmEFGjBhBzp07RyQSic76bg6lgtsmJCRg//79cHd3x8KFC9G+fftGl1CXLl0qS7WrCvUJw3/55RcUFBQgPz8f169fh5GREdavX98og7yhQgjBF198gZMnT8LDwwOffPKJznIG7d27F99++y1sbW2xYcMG9OrVSyf9KkLpqMn37t3D4sWLUV1dDYqiYGlpidatW8PV1RWBgYHo0KEDfHx8sGXLFoUXKoRCISIjI1FYWAiBQICqqioAr38YIyMj2NnZITo6Gs7OzuBwOMx8Sh3y4MEDBAcHg6IorF+/HsOHD9dJv7W1tQgPD8fdu3cxfvx4LFu2TCf9ykPllCcSiQSXL19GZmYmXrx4gefPn6OsrAwikQgSiQRGRkYwMTEBi8WSZZCnKAoikUi2JWFvbw8XFxfY2tpi7Nix6Nu3L1gs1ht1FT8qKgrnzp2DlZUVdu7cyYgfvTKkp6dj+/bt8PPzw8KFC3XSZ1MwkkuHEAKRSIRXr14hJycHZWVlSEhIAJ/PR6tWrTBnzhwYGxvDwcEBbm5u/5orUcXFxdi8eTNevXqFxMREjU4F4uLicO/ePXC5XIwdO1bhazYzMxMbN27Exx9/jHHjxqndpyZoLV8hIQR3797FokWLYGZmhv3797eoqMtMUl1drXEMi4cPH2LFihUoLi6GkZERevTogR07dshN/FQ/co0ePbpBUk+doYsVQkBAAPHw8CB//vmnLrp74zl27BiZOHEioWmabN++Xe5q8MSJE8Td3V0vEQd1YlhSqZREREQQmqZb7Al+fn4+uX37tr7VaMCJEyeIh4cHiYiIkFtn586dSp35Mo1ODKue2NhYMnz4cHLgwAGt98X0ns7y5ctJcHAwozKZ4N69e2TMmDGkqKhIbp2QkBDi7e2t0xiwOk3OHBoaitWrV2PXrl14/Pix1vqpq6uDn58fo/74QqHQIKP1ubq64siRI+jYsaPcOgkJCXBwcICvry9evnypE710nvV7zJgxcHV1xfLly7XWB5vNxtOnTxmV6ejoiLKyMkZlMoWJiYnCcoqisH//frzzzjuYOnWqToLD6SWd/OrVq/H48WNZuCRtweRtaTs7O1nOw5bKtm3bYG9vj/nz56OyslKrfenFsLp27YqOHTti3rx5WpFfv9HKpOGOHz9eq6Osrjh06BBMTEwwbtw4CIVCrfWjF8MCgCFDhjT7utJ0jsSk82Hbtm3h4eHBmDx9QVEU0tLS0LlzZ/B4PK29FvVmWLNmzYJQKIRAIGiyvLCwEAsXLtQo8Ii2h/uWCkVR+Pbbb2Fvb48FCxZo5XvSm2HZ2tqCzWbLdX02NzfHnTt31LrQWX/c8SZfYz958qRK9b///vtGr76DBw+CoiitZNXQm2EBr92a5UVldnR0hJmZGW7fvq2WbGNj4xbpK64MIpEIhw4dgoeHB44fP95sfUIILly4AB8fHzx//lz2nMViIT09Ha1btwaPx2M2NJTOdsyaICcnh4waNUru3cUlS5aQwMBAtWRnZGSQ0tJSTdQzeFJSUghN02TDhg3N1pVIJMTPz4/weDxSXV3doEwkEhEvLy+yePFixnTTq2FVV1cTmqbl7hrHx8cTLy8vHWvVsrhy5YrsulhzSKVS4u3tTfz8/BqVvXjxgri7u5MLFy4wohfzr0IVVnJmZmZgs9l4+PBhk+Vubm6oq6t7G5BfAYMGDcLhw4fx+PFjLF68WOFKmqIoJCcno7i4GCdOnGhQZmdnh4CAAERGRjLyfTNvWCq441IUBXNzc7nHDEOHDkW7du3e2LkSUzg5OSElJQU3btxAQkKCwrp2dnYICQnB5s2bG82pQkJCYGlpiTVr1misk14n7wDQoUMHnDt3rskyFouFpKQktG7dmtE+9bGDXldXp9a+nLIRdOzt7bFjxw506NCh2boBAQFwcHBodH+SzWbD398fFy9e1HgPUe+GNXjwYDx48EBuubm5OaP9lZeXY+bMmToN15iQkAAfHx+cPn1apXYCgQBLly5tNmd1PX379gWPx2u2Xn1SqQcPHjRalU+fPh0ANI5hoXfDcnJyajbeKZPU1NSgrKysyYypTFNSUoIpU6bg8OHD+N///qfUj/53zMzMEBkZifPnzyM+Pp5R3RwdHeHq6oovvviiwXOKojBlyhScPHkSEolEbfl6NyxjY2OdJusuKioCh8NhfCT8Jzk5OZg5cyYEAgHS09MxZswYteQMHToU69evR3JyMuOxVrds2YJHjx41im4THh6OmpoalTdh/47eDcvc3Fx2m0cXHDt2DAMHDtTqjaANGzYgPDwcw4cPR0ZGhsZzRE9PT8yZMwebNm3CwYMHGdLydbjPgQMH4uLFiw2eUxSF4OBgbNu2Tf25FiObFhqQn59PaJrW2S3e2tparXlS1tbWktDQUELTNDlz5gzj8g8fPkxomibnz59nTKZUKm1yg7qqqopwuVySlZWllly9G1ZlZSWhaVpvMamYQiKRkOnTp5ORI0eShw8faq2f2NhYwuVyyfPnz7XWRz1RUVHE29tbrbZ6fxVaWlqCoii9hvVmgvo4VqdOnVJqya8uoaGhcHR0VBjOWyKRMPJ9hoeHQyAQqHWYr3fDAl5P4Jl2JdYlaWlpKCsr0/hSqrLs3r0bFhYWOHToUJPlmzZtQkBAgMaOjjY2NrCzs8OKFStUb8zw6KkWvr6+ZO/evfpWQy2ePXtGvLy8yI4dO3Tab0VFhdz4WHV1dWTkyJHko48+0rif58+fE5qmSU5OjkrtDGLEat++Pc6cOaNvNVRGJBLB398flpaWCAsL02nf1tbWckdHY2Nj7Ny5E9evX9f4TdC2bVtYW1s3OltsDoMwrHbt2jXwE2ophIWFwdzcXOXQTbqgR48e4HK58Pf311jWRx99hPPnz6u0JWQQhmVhYaFUjkRD4syZM7h9+zY+/fRTncyr1GHVqlUQi8VKp2ORR7du3VBbW6vS9TeDMCwrK6sWtSqUSCSIjo4GTdPo16+fvtWRi6mpKYYMGaKxYbm4uMDCwkKlAMYGYViurq463X3XlKSkJEgkEnz22Wf6VqVZNm/eDIFAgCNHjiisFx4eLvd2OkVR8PHxUemVbxCG5ebmBqlUKtewkpOTdXpQrYh6f/Pw8HB9q6I0EyZMwO7duxX+4d6/fx9bt26VW+7j4wOhUKj0lMUgDKs+RZ28D/7NN98gOztbx1o1TXFxMUQikdqHyvpg2rRp4PP5ChOXxsfH48qVK3JXkT169ACHw8G+ffuU6tMgDKs+TGRBQUGT5UZGRgazgbp9+3Z07NgRZmZm+lZFaZydnWFvb6/Q9aZ9+/awtLRU+Mq0s7NDXl6eUn0ahGFRFAUWiyXXEc7Z2VnuNTFdk5eXBy6Xq281VCYkJEShlwVFUVi4cKHCeVSbNm2UTgdjEIYFvD4zlOfV+fnnn2PixIk61qgxUqkUIpEI7u7u+lZFZcaMGYPFixcrrOPl5QWJRCL3KMjX1xfFxcVKLbIMxrAGDBiAwsLCJsucnJwwdOhQHWvUmPovtGvXrk2WSyQSxpwW9REewMLCAvb29nIvU/j4+Cjtu28whrVixQo8e/YMfD5f631VVlaqdUDL5/NBUZRcJ8G0tDT4+flpvG0ilUoREBCg9i1wTfD09GzWCVKZUxKDMSxLS0uwWCxcv35d6319/fXXagXYf/XqFdhsttwv3tfXF+Xl5Rpfn2KxWGjfvj3WrVunkRx1WLRoETZt2tRkWX1EQ2UykBmMYQFAq1atlF51aEK3bt3UymKqaK8NeP0qCQsLw4ULFzQ+olq5ciVKSkp0nkaOoii5ITGlUikqKirkXjD+OwZlWP7+/oxfGGiKTp06QSwWq/zKsra2bnZ+MX78eFhbWzc7UW6ODh06YODAgY3SE+sTFosFqVTa8gyrf//+qKmp0fqFUjc3NwCqB2azsbFR6uhpz549uHXrVrNJRJsjKCgIZWVlWg+pqQomJibIyckBAIggPzqNQRlWt27dYG5ujlOnTmm1Hw6HA1NTU5VHx/q5VXMG6eDggH79+mkcB6F///6wsrJCVFSUym21de4aFBSER48eoRQlMIb8JFoGZVgURcHNzQ2pqala78ve3h4//fSTWm2VWW5HRUXB3d1do0ufwOvjmGvXrqnk/ZGQkIDAwECN+m0KqVSKEydOQCwVoRKKw3oblGEBr/eISkpKtN7P4MGD4ejoqFKb+hFLmeMlOzs7REREyM11oyyzZ8+GUCjEhQsXlG4THByMoqIixlfYLBYLFRUV8PL1Qhf0VlyX0Z4ZwN/fH1KpVJbHUFX++OMPpeotXrwYERERKsmuP9O8cuWKOqqpBUVRcHR0xNGjR5Vuw2az4erqqtBbQR2kUinYbDZCZzfvhm1whmVpaQlLS0u5eymKePXqFSIiIpRysVG00akIKysrrWbVaIqVK1ciNzdXpS2MhQsX4uHDh4x65rJYLLBYLFy+fLn5uoz1yiDDhg1T69DZxsYG5ubm2LJlixa0ek1AQAAyMzN16vHas2dPuLq6quST5ubmBoqiGM+mYWVlhaKiombrGaRhrVq1CmVlZbJlrSp4eHggKyuLeaX+Hx6PB4FAgPz8fK318U/Mzc0RFxenUgwIU1NTdO3aFStXrmyyvLmNaIlEgq1btzZaARsZGSm1TWOQhsVms9GuXTu5oboVERQUBJFIpLXLGVZWVnBzc8P69eu1Il8e6iwChgwZgvv37zd6TghBZGRko2Agf4fFYuHMmTPYv39/g+cVFRWwt7dvtm+DNCwA+PTTT3Hr1i2l/X/qsba2BpvNxrFjx7SkGTBz5kw8fvzY4H30J0yY0KTHRX2yeEWXIyiKwujRoxsYVmlpKaRSqVLeswZrWN26dYOTk5NaCbNbt26t1ARTWf45nxo2bBjMzc3x6aefMtaHNnBwcACHw8GePXsalbVp06bZ5Azz5s2DSCSSnavGxMTAxsYG1tbWzfZtsIZFURSio6NRXFys8iuxa9eujK3c6urq4O/v3yCrA0VR4PF4yMrKMvhRa+jQoV+th6YAAAxCSURBVE0uNDp37tzs28Dc3Bw0Tcu+yz///BOdOnVSrmONL/drmbS0NELTNMnPz1e6zcWLFxUmJlCFHTt2EB6P12QZTdPkxIkTGvehD27fvk08PDyU/o6kUikZOXIk+e6775Sqb7AjVj2TJ0+Gq6srPv74Y6VTcgwZMgRCoZCRtGnZ2dlys5e2a9cO6enpGvehD7p37w4LCwulvyNCCIRCIUaMGKFUfYM3LOD11aTa2lql7/JxOByw2WxGDrOfPXuGQYMGNVmWkJCAgoICtbZF9A2bzUZiYiJMTU2VbiMUCmFra6tU3RZhWBwOB2vWrMGdO3eUntP4+vpi165dGh0CSyQS2RyrKaytrTFw4MBGkYdbCqqclbJYLFhbW+PX3EvK1VdXKV0zbNgwUBSl9Otw/vz5EAqF+Pnnn9XuUygUghCicA8pMDAQxcXFLSr2hDpcvHgRQqEQQ/ood6mlxRgWi8UCm81WmGzg71haWmLSpEnYsGGD2n1WV1c3e6Y4YMAA2Nvbw8/PT+1+WgKpqamwt7dvNrF5PS3GsCiKgqmpKS5dUm4oBl7HrzI1NcWqVavU6rPeA5TVTH6gyMhIFBcXq+Ta0pKoqqpCXl6eSmewLcawgNcbnzdv3gTQvIdkcXExKioqEBoait9//12tuVZRUZFSRyn9+/fHqFGjsGnTJo0d+wyR48ePw9jYGO3bt1e6TYsyLHt7e/z555+YNm0auFwuZsyYIdfAQkJCcPHiRYwbNw4SiUStqHsvX76EpaWlUnXXrl0LgUCAmJgYlfsxdJKSkhAUFKTSeWWLMCyBQIAbN26grKwMZWVlsLCwQHR0NCoqKhAUFITCwkIEBARg8eLFyM/PR3FxMWpqavDee+8BAEaNGoXDhw+r1CchBL/++qvSV/tZLBaio6Nx9OhRbNu2TeXPaKgQQlBbW4uBAweq1E4zv1ktU15ejp07d+Ls2bMAgI4dOyI+Ph7vvPMOACA9PR0ffPABgoKC0KtXL1RVVWHOnDkQi8UYPHgw7OzsAAAzZszAmTNnUFVVpfQIJBQKwefzMXbsWKX1HTx4MD7//HOsXLkSRUVFjHtw6oO4uDhYWFigZ8+eqjVU6zxAB6xYsYLQNE1GjRpF8vLySG1tLSHkdQaIH374QXYUwefzG2RpePnyJdm8eTP566+/ZM8EAgEZMWIEuX//vtL916diqaqqUln3Fy9eEA8PD+Lv76+zVC7awsvLi0RFRancziBfhSKRCL/88guio6Nx9uxZuLm54dWrVwgKCoKnpydSU1NlRxGWlpZo27atrK2NjQ1+/vlnJCcny56ZmprCyspKpRUln88Hm81WaWcaeB3XYMGCBRCLxbhx4wZGjhyJvLw8vSTf1JRt27ZBLBYrnS/x7xikYRFCQFEUevXqhezsbEyePBne3t4oKChAVFQU9u7dq/AHl0gkjSIZu7q6KnRs+ycPHz4EIaTZrYZ6SkpKEBERgSlTpsDIyAgxMTH4/fff0b17dwQHB2Ps2LFKR8MzBK5evYrvv/8eq1atUvo7+DsGOcficDiwtraGr6+vLMLLkiVLMHPmzGYj6RFCIBAIMHz48AbPbW1tVYol/9dff6G8vBw8Hg/t27dH27Zt8d5776FXr15wcXEBm82WfeGxsbFITU2FtbU1vv76a/Tt21cmZ9euXSguLsb58+exa9cupKWlYffu3Up5YeoLQghWrFiBiRMnwsfHRy0ZFCGG61C0atUqZGdn4+zZs42WuvWhfkJCQuDl5SV7npiYiH379uH8+fMN6sfHx+OHH37ADz/8ALFYDA5H/i1e4LVPeFhYGHx8fFBYWIiXL1+iqqoKYrEYUqkURkZGWLhwITIzM3Hv3j0sWrRIlvZWHoQQ+Pn54cmTJ1i1ahVGjx6t1migbT744ANQFIXjx4+rL4TJiR6T1Pv/3L17t8FzkUhEsrKyiJ+fH+nbty9JTExsUMbj8cjGjRsbyTt+/DgZPnw44fF4xMvLi9y6dUtWdvXqVXLy5ElSU1MjeyaRSMiIESPIkydPGugklUpJVVUVuXbtGtm/fz/x9PQkjx49Uumz7dmzh3C5XDJmzBhy+fJlldpqm40bNxKapsnTp081kmPQI9a4ceNgY2MDe3t7SKVSlJaW4sGDB7K9FUtLS2RmZspGs4iICFy+fLnBs3rEYjEWLFgADoeDkpISlJeX46effkJycjLi4uJk4XsGDhyIdevWwczMDF5eXkhNTW3SC4AQAk9PTwQGBjbKBq8MNTU1WLlyJXJyctCpUyesXbsWrq6u6n1RDBETE4O0tDTExcWhT58+mgljwMi1xl9//UWmTZtGxo0bRyZOnEiCg4PJ06dPyYMHDwhN0+TFixeyutHR0UplqXr58iWhaZp4eHgQHo9HaJomP//8MyHktecpj8cj7u7uZNiwYWTUqFGybY5/cufOHULTtEIPzC1btpAtW7Yo1KeyspJMnz6duLu7E29vb5KdnU2EQqHc+kx4xTbFpUuXCE3T5Pfff2dEnkEbljyWLVtGpkyZIvt3YmIicXd3J6dPn5bbRiQSkYsXLxJ/f3/i4+ND7ty5Q/z8/Mjy5csb/FiJiYkkKCiI/Prrrw1ejf/k4cOHhKZpIhKJmiyXSCRk2LBhZP369Up9ppqaGhIVFUW4XC6haZp4e3uTWbNmkcOHD5NTp06RtLQ0MnnyZMLlcomfnx8pLCxUSq4yXLhwgdA0zWhqP4NcFSqitrYWV65ckZ20f/vtt0hKSsKGDRvg4eHRqP7Ro0dx+vRp3L17F1KpFK6urti1axc6duzYYK+rnrKyMhQVFcmOg+TRoUMHmJiYYN68eYiJiYGFhQWA14uKvXv34uTJkygvL0fnzp2V+lxmZmZYt24dxGIx8vLycPToUWRlZSEhIQEURcHY2BjDhg0Dl8vFwYMHERQUBB8fHyxbtkxpV5Z6BAIBsrKycP36dVy7dg2lpaXw8/NjNEJNizOssrIy2T7V+++/D4FAgE8++aSRUeXk5OC///0vJBIJ2rVrh4MHD8LJyalZ+U5OTko77R09elS2JK/32yL/vwfXs2dP2Nra4tatW0rJkkqlyMnJwdq1a1FZWQlCCJydnXHgwIFG88Xhw4fj5MmT2Lx5M06dOgUOhwMbGxsMGTIE48ePR5cuXUAIAZ/Ph7W1NaqqqrBjxw5cunQJAoEAUqkULBYLxsbGGD58ONauXatxVJx/YtCT96YQiUSYO3cunjx5gt69e+N///sfnJ2dG9QhhMDDwwPvv/8+IiIiZEv6uro6GBkZKVziX7t2DUuWLMH58+eVDhpSU1ODy5cvg6Io9OvXDzY2NgBeezxcvXoV+/fvB0VRqKysxLNnz1BTU4MnT56gpKQEubm5ePToESQSCTgcDvr16wdPT0/4+voqtRWRn5+P9PR0PH/+HEVFReDz+TIvWzabLTN0Gxsb9OrVC4MHDwaPx1MYpJcJWpxh1VP/hTVFbW0tRo0ahY0bN8LFxQW5ubk4deoUsrOzMXXqVKxevVqu3OzsbCxfvlwlw5LHX3/9hXnz5jW6k8jhcGBubg5zc3O4uLjA29sbffr0gYODg8Z91v+c9d9P/X+1aURN0eJehfUo+qJMTU3Rq1cvREZGoq6uDtXV1WCxWIiMjGzgBhMdHQ1XV1dMmjRJ9uzBgweM/RCdO3fG6dOnIRAIZDqbmZlpdVO0Xu9//lfXGN62L0PExMSge/fu4HA4mDlzJnJzczFlyhRZqOnCwkL88MMPsLKyatDu0aNHjM432Gy2LOaXhYWFQe60a4MWO2I1R0hICPh8PpKSktClSxfZ8+rqanzyySe4dOkSOnXqBG9v7wbtrl+/Louq/Bb1eSMNSyKRoKioCCkpKWjXrh2EQiHS09Nx4sQJPH78GFKpFBRFISkpqUG76upqtWJFvKUxb6RhsdlsuLi4YObMmbJn9RPl2NhYbNq0Cba2tg0OogkhWL16NaysrJT2Mn2LfN5IwwJep/sVi8UyT4b6uY1QKERxcXGDleHjx48RFhaGqqoqfPPNN3qb8L5JvLGGBbyOgvfPiXhdXR0IIbLd6pSUFMTHx8PKygppaWkqhWN8i3xa7D6WuhBCMH78eFlsKBaLhfHjx2PJkiV61uzN4l9nWMDrsN1Hjx6FkZERpk+frvJZ21ua519pWG/RPv+O3bq36Jy3hvUWrfB/vsxS4MKZkKsAAAAASUVORK5CYII=;" vertex="1" parent="1">
          <mxGeometry x="1064.8400000000001" y="80" width="38.46" height="40" as="geometry" />
        </mxCell>
        <mxCell id="XqwRq8SYC38xC89JIGz4-64" value="" style="shape=image;verticalLabelPosition=bottom;labelBackgroundColor=default;verticalAlign=top;aspect=fixed;imageAspect=0;image=data:image/png,iVBORw0KGgoAAAANSUhEUgAAAKQAAACjCAYAAAAEsLX5AAAABHNCSVQICAgIfAhkiAAAABl0RVh0U29mdHdhcmUAZ25vbWUtc2NyZWVuc2hvdO8Dvz4AAAAmdEVYdENyZWF0aW9uIFRpbWUAZG9tIDI4IG1haSAyMDIzIDE4OjA5OjIyLAcHeAAAIABJREFUeJzsvdmTHEd+5/lx94jIs+77RuE+SYAgwaubZN8taUYjjUYak83YmO3DmK3ty77ty9r+B/syb2v7NCvTw0izI2l1tlpqdZNsHiBAEiBxFoACCijUfV+ZGRHuvg8ekZlVKACFJlgApf6RiayqjIzw8Pj57/j+DhfWWsuvQDZ5AYjkVf2g/r2exDZ/2/R5/VkBu+nMT4e2XmM7snJ3rvN10ZOMP5leg9n2o0fP/tN/Pt6v+sUHhrJ17ncyTrF1ErY8RPGYG34ajPMvlbZMq6Q2l+4ppP/VDhd8/fP9KzPkV6ftpMcOJIr9iivyq37/ebvO10Zu/Lbu9924I/GrquxNZHHjt2CMQaq61WYsCBBiu9vZeumtam47Cbnl9ycZ/ZPM6FedlWfNjzsc/3brZusTALDWIrd9hk+XvrKEtNZirMUi3ICFIMZW15MRAOIh87PdDYrHfL6DUzwNetYM9VXpCcafioHtlr+iKmuqx3yd9JUZ0liLtgYrJBqBlY4hNWCwWCG2MZcfRt90LvhmUvp8UoaU27yUEHg4Bv066VdiyFTaGSAWECKIsKyGGyxtrLG0tsq6iQm1RiPQFuwjme0ZeaO/JmAzWiKtY8BACDKeRzYIaMjnacnmaQvyBDimlDzEx64/2a9AO2bI1N8SifqNgRBYtobp0hr3lxe4uzTN/fkZ7kxPsB6HVOKIWICxElu9he1o5zJ0BwN9ND0N2Oexk51c47Fjedx5+BXPsc34d3geaUBi8aUkH2RoKhZpb2mlt7GNwx399DY00ZstkhcChWMgiTPd3GlE7Xp1P+5o2DyBU2MwVZaMEaxbw1Rpg8tL05yduMXFOze5vzjLehxSthojBUiwViCUQoiHMeTTw+tEerrHHLQjnn0MPc6J3slYduKI79ZY6o8V1iFuMpksAWSFYk9HD6/sOcR3uvexv7mVZj9DTkg8YRHGABYlvAcM0u3EzcMAvSdiSA1UgBWjubm6zC+uf8nPr15gdG2BMKvQniASIHwPLWoSwvk1T8c+fOjk29rEP9Y4eNwDfOyMWOxjDhI7APV3jSF3+IS3fGvT94UFyprcRsjx5i5+6/TrvDm4n958I3kpyGDxkUgrvmaGrLMJSsCC0XwyP8Z/P/8+n9y9xZq0kAnQUhCaGKRzYowAYdyXlRAPgX12TpanB+096oZ3dokEOn7k4thZFOOrj+Xpnqd6PrvZ5BCA1ZCxIDbKtKH44YmX+e1jr3KspYsWIcluHUzdhR/lyW8a644YUkAErAB/P3aJP/rgH7i6PseyL4ikxPcCpBRUwhAhnKcNzkBO7u6paOWnwZDpAn4UycccYHciIRGJlPy6x7IzCfmkU7e9AJHEOsITkiISf2mVd/Yf4w9f/g4vdw7RAARsa8HumB7v1AgncleAc9Nj/Okn73NjY5ENTzo7UQkiNBgeYEQj3M9CiK+ssZ+WH27FDkLqOznR4/weKx4b23hqY9mBDfl0lIvBUw74KVmDbSrw4fgohUyB7MmAF9t6nIeeHG2t3TwHOxjEYxnSAmUsd8N1/t8Pfs7I8izLShCq2sqsSmghHljRKVPucDxfO0n7aMn0OIkENVv1YZJppxLpeRrLk5AVoBGUJBgJH94aodHLU3jpDQ4VmxDGIKVCiS03twNk/ZEMaUmkozH85YWzfDJ7jwVliJRMYCBbveH6962T/DSkW1X7P8apedzkWx5u5Ist7zse1Dbn2ZEzsltj2ek5HnN6k5wofdZKSPAli+WYj+6M0FVoYODUqxSkXwszpjf4gPTa/joPVTwWZzcuG83VhWneG/mSJd9S8SVaCKyoqecUTJWPYQr7FV7pPT3q85TEY14PO+ZJvv+o457GeXZ7LDu5jhU1M0MAxliMEIQZxf3KKuduX+fz0Rus69gdbx/2hLb/EzxCQqYMuRhHfDh6nTtL81QaA2fMC5swvkj/rw540wQ8bVX9CPUjkgMeZ+DbHXhGj3NYkoMe/fFTuuunZjs/hXPUT0uCM6CFwSiBVIZ764ucv3eLrsYmDja1UczksAmmuflED7/GQxnS4GzH++EGn4yOUPYEodVY6bLi0qSJh13jaamKred8PNkdTP7jmOlxZ9jZ3T1NU+VZnwM237EFhASdsGbkwYKuMLI4zYG5SZqsINfWifRceoYQ6ZcefY1Hqux1HXNjdY4b81OYjMLKusNFTYQ/6gaeNlP+mp4dVQHyhOoVshawqkPGN5YZX1tiZnWJpZUlDNYl2exwWTySITeikJuzEyzoMrEUIJ+MvbazZX5N/zzJCKgIw2JUYmZ9mXUdMjk/SxiHTyShH4mmleOIyeUF4kCCrzC2Lghkt7z/mv5Fk8Vlfq3piPnSGhUL88vLLK2uYs0WPPIR9Ggv22iWSmtEErQx1YCLoOZVPyqH59f0L4esACMFkYS1KERLMBZmZ2Ywsan52o8RYI+UkMYYSqWyu6C1yDqPOmXKXzPjr8mRAKGwUhEndqMUgvX1DSphhVjvDHJ5JDAuAGUt0lg863IgN4GjdZjnc1vTlOY2PlDhuFtUb0WbTWMxD8zZk09kPbz2rEmIJLqkDTbWKCmplEqsb2yQz+ZAeI91tB8fOrQPF6NV8P05Y8b6h1Rlw4ck3Yq646WVYA2IOnOk7mGbhF9c5t/mhWgeOKfAWlGLWonnh3G+NhLufo0xCGNRCPA81lZXaW5qRluBpwRKPlwx7yiWnU52faREJOr7ITj8MyKXYSNJhFDCbYYkwiAEwlisNS7wLyVSKmRs0eUIG7vEAF9BBgikhy8kAtDWEFpDaDQhlhD3OxmPTD7HRhgB4Cm/mpQuEOgkM6g+keLhj8M+nmu/juYJT4keNqowCsFalJSPTbLZUbZPOgebwnhb3p8rSiM6iX6o5oxaiyclHhIbx+j1Ciq2NAY5Ohs66W5uo6e9lZaGAvnApzGTIyczKKuI0GzoCmthiaX1dSbn55lZXmBqeZ6llRJxHOHlslg0Lg1UYoWrxHTXdzMl63SWtE86fw+q9OeTNTdTNcNxSzBlO3riIq+taP3zRNUFI2oq1YhaOFEYEDpCVGKa8Ohr7ORARx+HuwcYbO6gLZunMZvDC3wCKQmUwhcKgURjiKwm1JpyHLFRKrNWKTFVXmZ8aZ6Ld29xZ36amY01Ql9hvIA4GYSwFsn23CfTgZMM/JFUJxmo//F5exK/Ov3KDPk8TkH92GzVkLQoa/EMBNpSMILhtl5O9e3lRMcA+5ra6WtsptnPEuDUfSrE0lci27DCw3pgPCDbhMGyTsxyuczLnXu4tjTBhYlbXJq4x1ylQqgUEZKYWny8qlmsdUmwD8TnHxeMrx1jLY9X8c+M6vGYncvxZ9hK5eujNNFC4mxdLzJkShGH2ns51buXF3uHOdrZR0+ukaKV5KSrOa5Pnq+fzk2PXIhqYgEIcvg0Z326ehs43N3Lic4BPm8f5fP7d7g6O8VUZQ2bUdjARxv9oNEtEsZ6kpurk5DPH9Ut5UQyWGOqnS8eN+R/dgzp8FGLtOALgQxDGrXkRN8w39t/klf3HKYv10iDlQ7SAnyoq7KwhDiHpLq2bc1027zunSeZniMvs3S2D3GguZMjnYO8f/sqH90b4dbqHJGUIC06Yai0RMDWn3SnjPlcMmId2fpZcgB5vSP8KPpGMeTOBIMTOcoYchrabYaXh/fxr06+wYnmAZqkT5ak9iOZIWtBW4gEaCFZQROhibXGGIO1BiEEnlIEwiODIouTqtWoFVTrlDu9HGd699LV0kZPaxv/eOUzRhZnWFYa66lk/C6ndJPA3NrtbVvRWfvcPnQ2njM1/gS44DeGIat2IQ9mnNRu18k1ZSHQhi6V44cHTvB7r79Nn2wgj0ThGMel4ddisBtWs7CxwWK5xP1ojRVbYaVcohRW0CbCU4qGbJ6mTIFWmaM7U6Qlk6Ulk8OnxpQ2OX8By75sI837T9LX0MJfXviIj+7fYimKkFIihMIq8dBnVYPXRIJ72k3+THK7D2HK54whn4C+MQy5HdVHOoR1he0ZJHkD3V6WHx0+xX888x3a8chiUdaAkGhc140Qy0oUMlcpcXdtiatjo9yYuMfdlTlWdchaVKYSVTDWFTflM1ka/RztuSL723vZ39XP4b5hOoMMTdk8eSHJ4CY1ayW+NWS8DA39B2hpaMT87G+4cHcUFShUECBRm0wDi3C9kowhMpoYS6SgbGMikQDzUoGUaCwp1PrPib6RDJkyYlW6JFEVz1r8MKJb5vjtQ6f5D2e+TwuQsRpfKCKtQVkqQrBiNOOVVc5P3ub9kUuMTI4zv7FKLEFkfLQAmwEyGSetrGUJzVS8xo3FFT6aHCN/STHQ1sFLew/xoyNn2JtvoM0LKAqBL0AKiYezL083dNP4nd/hz//h7xDFAk0tLXS0t5ELMnhCoKTAWks5ClleW2VudZn5jVXuLM0wtjzHkokoYRFZhfUVxhjX+lAIpBF1WsPUwrsYx+j1kvR5C6ttoW8kQ8KD8yotiPWQJnzePnaM33/1O7QCHpqMcKWb0lOUgGUsn0yM8jcXPuLs2A3mRIRtyEJbnlJYQWxt8WVTSzEhXyIyHkYorq4tcufc+5z/4gI/fPEVfvPoyww3tFDAMaJKF4uUnGzp4NAf/CeXE0AtOSXtKpZGxeLkVcIyQ5mbS/e5cGuEL8dGuTM7w9LqBl7GRwQesZBsG/4QZrN9+g2hbxxD2i1qWiRGpLTQqgLe3neMf/PKt2hFkQUEihioxJpQSW5R4v/77CP+6dJ5JkvLRDkf6eWJpAtxSU/x8N4JTrlKKZBSYowF3yP2FPfiMn967j1Gx+7yO6ff5NWhvbR7QTVDKu0Y5gEVNBaBQiISwFzU5VQb4WRbHkEDWQabhvnWi4MsnKhwdWqcX167yEd3Rri/voHKZ4ilwlSZ0mCkqZ4rhWOfb7lYo28cQ9aTsE4CCQvZ2HKiZw/fO/AC+zONNOJChdpqkB6hUoyGK/zx2Z/z7uhl5m2Zcl5R0THWaKRwjBj4PmEYPvK6xliEcD0xpZToOEZYy0a5zPziAstrq0SxdrNb53UJDApJDoh1hJK+a8KVrqoHPGjIIMAqhKfowKezdz9H2vp59chJfnbjc87dGWE5jgk9SSwhlomcFYCVNVjpG8KU3ziGTOu+hXU9g3wrkKGmN9PAGwMHONM9SKOQToVbEEJRBm7oVf7r+z/hk4lR5kyZkg9aCVcnlIhdKSVxHD/i6hasTeWkk2o6Rq+us7ehjTdPn+bNPUc43tFLa5BxxXDgMqarGt8gsXjSq5P2oppB5H6rvTwAmf4saPd8Cp5PS2Yvw00tnOod4hdXLnJh4g7rGYEo5oiNxlqBSRhd2Me3dXle6BvDkPUAdVVVW9dxKxPDC3uHeWlwL21ehsAAwmIExEKwgOZPPvon3h+7xoKICH1BLHEmfxo9SCSI1eYBUaI8D60TJwIQscGzGhlqGvyAk4eP84MDL3KstYfhhlZaPJ+AOhhROI9e44Api0Inra9jDBEajdsJwUfiJxhnCiUB1UahHlAAcl5AS2MHPZkCQ/lWum58xk+vfsaGqoAv0AkGtfPigeeDvjEMCTV7KP1ZSQkVTU++iZe697Cnsa36IA0O6J7XEX9z5Ty/uHqReRkRBo4ZbSI56q1+aW3VsagXKNY6b1VKgTQWP9I0GcnB9j5eP3yMl7qGOdzWTbPwyCGrzJNKPSMEZWDNGmajVcYX55jfWGdhZZX1sExFRxgsnvTJ+xkaMjnaGhppLRYZbOmgCZ9GwDPG2aJCJC2WJUGmSLFvL/lcBk9J/un6RZYklJPxm1SlpPeyRX1vh+0+S/pGMSTUkmYFFg+LF8Uc6e/jSHs3TUkuosX1nlkzMZcXJvnrzz9kTpcJMz6xSloF2hQqeUhD/nqbKzZIYxGxJo9iqLmDV3qGeX3gICf7h+jw8uQs+CLxlq1NJKIgFoLlqMKtxRmuTU9wc2WG0cVplqKQ5Y0NQh0TG4OxBoEg8HwKQZbGbJ7WTJ4Dbd3sbWjjaGc3gw0tFBLpm4Y9A6BV+pxq68d/McD3FD8duchCbAhVXXiS2gLZFAxK3p8XKfrcMGT9hNQ7uW4Fp9ktTlIpIVHGICtlWr0Mp3oHGW5qIYuLYxtAC8FsuczPrl/gxso8YU4RS8ck1orExhQOjIYk/d4xp04SASROIoowpoCiO9fI4fYezuw5wCv9+9hbaKVIra1xKhU1sAHMxSVuL81xefIeX07c5vbcNDOlNZbiMrGn0FKClNV8SWsMIqwgw3XkyhxBDJfu3nbX7e3npb49HOsZYKChmSahCJJr+0CT9Dja3I3/0ltsxBG/vD3Cgo6peIl9mvpNyftzIhAfoOeSIcGlwQOIJDKBtQgNQmsCacgjKEqfk939vNDZS6efIZNIGQ2UdMytxTl+ef0Kq4GgIh2zmFQq2s0qdas54CHxNHhhTKvKcrijl9cG9/PqwH4OtnbSgMQHPOvK1U0SigyBVRtze2WJ89N3+ODuVS6NjzEfliDjowOB9gOsBI3cDFonFmM6JqslUxXD7Mo8N9YW+HxyjNeG9vOtoYO82NFHd66QfNNJy0YhOJTv5A9Ov0OpFHF2+g7zcYyRkjRTrZqsXIddPi/SEZ4jhtyUkSUAaxAWPCER2qC0pYCiKAI6Mzl6G5oZaGnhpcG97G1qJUPSTUdItICZ9Q0+G7vBdHmNcl46jxonFeslhBMYtsqM0oKSAj+MaBUBPbkWTg/t442Dxzne0Uu3zJAjzSgSpHm3EbAhLJPrq1xZnOT921f5+PY1xjaWqAQSikENqK672e1Kz5zEFmhpiZQhl82i0dwqLTL75VnGpu+xcPQl3txzhK58AzkEHpYAKAInGnr53Re/xfzHG6zNT6A9g1DKmSrpHNfP93MkLp9LhgTwlUIZi6c1gRG0yAwHWro53tXPqYFhDnb10uAHFPCqDCIQxDjnYWx9lU9vj1AJJFrVVUvCpphjyozSpom8Fj8ytKB4rXcPPzh+mpe6hmj3cq7OhtQssK6POtI5T+USN8ur/NPNS7w38iWjK7OseRDnA2LlEnSVEFUbd9ubrpIDfYywqIxHZCM8KVGFgOUo5MOZUebKyyyEG/zw0Gn25BqdeQHVWPrrvfu4efAF5r5Y5/bGMhVVg0SVC+lvmvvnhSefG4ZMyQqQxpBBkokMzcLjcFcfZ/Yd5fVDJ+iXRRohYcJEulHbdERbw7IuM7o2y+3lOcKsk5gIU+vYVjWmEnVnDYGGooYW6TPU2s73T73CG31H6fJzFA1ktcETAqFENbwXAiUbs1iu8NORi7x7/QsuzdxnybNVRgxNTBzHSClRnpf0uaEaXXoUCSGw1qCtwRi3s4WWhqAQcHN9kb/4/EN0pPn3J9+iww+cTZmYEFngnWOnGJ2fYmn0CrMmxqqaaqgvYa7NxrOn54YhNS6lP+N72I0yqhwyXGzlN469xG8ce4W+oBGPWty33gJyzFhTn0uVMrcWppmNNogKebS0LqKjpEtAEwpttUMGrUXEMYVYsC9o4jdeeIV/++LbFIWzEX0gI50ah6T60BjKSjAfh5yfG+XPPniXKwszrApLWEgxRoPRCXgvPRACow1xrAFQSlUjNJsy1ZM2Ydbq6t9c1ajAWOOSMISknPW5G67z02sXaPCy/N7JN6tJHZG2BFIwJPJ8Z/go9+ZnWZ6/DzJZENZW229vQYWeOT03DOkjEJFBVSo0GcW3Dh3jt4+9yum2ATqUi0ubLevYVJVQbbkLBJUoYmZ9mdgXVSAdHBxjEwdGWrBhTBBFDBaaeOf4CX7zxMsc8FpoF4IgsUlN4oVHxgHbWkpWpOb60gR/ffaXvD96hXkf1jKCUMpaPXidTepaN1tnm2YyoI2LCAkBUiSScHsZlWpWkyRLGOeRYD1BWQhubyzxt5c/pbu9k+8MHEQBvhIo4xy/432DHJ0Y5NbyAvM6JFaCSNS6V8pkfqR4PlT3rjKkpaYi6g1ph6f5+GHE3mwD//rl1/j20GH25Bpplopsausl0Q43cRZrQSVedfXBAeUoZH5txTFfEu+20tmRsYnJKB/fGJpEwGt7D/M7L7zG8aZuWjMBWcDDIFydIBaoWEtFwKoQ3Fie5RfXP+XsjUvcXVukkvepeIKyiF0Gj7WIdFcrWzMlXBqYcMXzxmJi1+jTJlumPLDrQdppI2XwhGHSzYwkDmtd9w3XNub5888/ZG9XF/uDJuf9JzPSqvIc7dnD51PjLM6MI5QC4SI5Ardz1/NEuysht8uSAnwN/voGBxra+fevfYe3B/fR5+fJIfC1S2TQQhAJmSTWgtPPERkhCZLYtRROolW0ZiOsoMWDRflCCmykyWvBG/uO8O9efJ2TxQ7ahCTr2KUKrKd24oYQ3F6Z58M71/hw9CrXFyZZJSYsBIRGo5SPNU6e2jTwnHr9JvHcNYhQk1eC1qBIoS3H3MoqK5UyoTRoT7osH5FAM3WdNmpr11RhG5MqB99jTcLl+QnevXqR/hffQlhDVkgCAQUEB7p6ONjVy9j8NCsCQmGqEZtdoSdw45+dyhZgEyBQliL2Zxv4w9e+zdtD++kL8mSNcAY6Fm0FFSFYA6ZNzKWZMS5/eZGX+oZ4dfgQrbkiQtTSt2JrCXWMlVRVtItZS4QVqDCmK9fEyfYBjjZ10WwlGeuSF9z3k9ZywIQucf7uTT68eYXLs+NMlddYtxrru0YAVkiMNtV8Rotx2+kltq20FhVpMqFmuKmTM/sPc7JvH81BltnSKhfv3uLc7evc21ghzHjEvqKiDZoEnpLKxZKSpA6bxOiFoKrmpVQsVSJ+ce1L3nzhNPtFLoHBBAEwmGnkaGM7F4IMy+EqIusjrK3rz5Ry99N6tvWxofT8O6NdY8hU/dXHThXgaWiXGf7d69/mu0OH6PKzTm0mej0EKgjmooiLUxO8f/sal5buM333Do35PC8OHqgmu1avY63bgTZJXhUWxySp/agNDULRoTI0ofCFm4hqlEXAvDWcv3ODs+M3uTh9h7H1RdakJcwqIg0gknYtrszTU5IodvUyWOtsOQ2ZGDoyDbwwvIdv7z3O0bZu9jW2kBGKdRNztKmTI139fHz3Bl9MjDG9voZRApUJCK2zNaywCGuqGw3Y9F9Rq+iLpOD2ygIXJscY7D6ISeJGQgiKQjFQaKIzX+TGxiJSBNRafaZP5mkxpK29ttpmO6BdYciUEavNqazz9AItaI4lPzr2Et/b/wJ9foHAWpdGKCCyglVhuLO2xIej13l35BpXFqZYEBUCUyGUddEWNjMl1ZDjZig4nR5lwbdUM2uscPs4LlnNF3OTnL93m/O3r3F9boJFQqKsh1Geq2Wph0pELdFDSFdEJnRMRkOHV+Bwdy9nhg5yqneYvW09NCFpSEaTER75lk46m5rZ19bF0fZePh2/xZXZCSYrJQh8DCaRM/UPtuZ+pOOIhWDFRHx6/TI/aN9Ho+eSMS0WD0FHUxPdLa2o2XGkre1hXt/A4Olq8C0O5w5pdyTkVntdgNKWoha80jXA7554lW4vRxZn9BubbH2M5srCFP8wcpH3bl7l9soylZyP9hSyIuqypB+1uutWLE6Fm6SjRep0AJSt4X5plQ/u3OAX90b4fGKMhXCDkjCYQLkGnHHkdnFI0sBNYitKYTFa42uLDCMapWJfWzcne/byat8BTncP0exlqxnjqRSX1u0d2C182tr72dPQysGuXj6+e52PxkcYW11iw8REShBLW8MwU2ashpvc32MFN8bHmC+v0V708ZIyXwU0F4q0N7eQUR4VY+qqGak747OnXbchBRalDbnYMJRv4l+fepXjje1krcs1RLvdoZaF5uLCJH9z5Rw/v/4FszpGF7Mu6iJtzfgXtSiwrLvKpgqwumaWAoPEIJPrOVcE1nTMlYUJ/uTDf2AkXGU1ozA5SSxcvFlbJ22qvXhSKSksaIOoxDRaSV+mieM9g7x64BgnevfRFzTQlHjFEVCpkxw1XFXgWUtXkKXYu5fBtg72d3ZzdvQa1+fnGFtbZEVqQp9km+cEqrEi2S3LJZQYXzG7usS9pVn25BvJej4Si8JS9LO05ZvI+xmW4xA8zyEP6Yw9Jxy5ywxpkdaljLXic2bPfl4d2EeDtUgchmdw0vHG6jx/eeU8P7v+BQvEmFzGSQhtkUo67C45qyQpZYA6Ybm91BTWjUFaByM5jxpKVnO/ssat1TnKTXliTzqpmDoPIgGtkw3OXTa6wGqLV9H0+QVOtPfz7aGDvDx0kL6GVjIopLWunNUYJtdXmFpepCtfpL25lQbhEYg0q1yjrKVRKYqZRgaHX+RM7zDv3Rjh3TtXuLQyyUxcIiaJ+xnrWg+m0Rxc/udKWGJycZ5S1xAFz3c5AQhywqcpKFLIZLFrJYTnHn09EvE8MOWuS0hpLQUkB1o6eefwSVoIwGhkUqgUKrhfKfHza1/y4e3rzAlNlAnQ1jpsbZN36MjZzmILQ25PRoAWFi3rMU1ng4WepOK5McSqpsZSS6i6sbkF31iC2NKoAjrzjfzg2GneOfgC+3PN5KhlaZcxzIdl7iwv8MGtL7h45TLDfYN8+8TLHGzppCNboCiVK4XFhU0VlgKCfLaVthOvcfzgAX56+VPO3rnOvZV51kxMKB1EZKypNtZy0BisRGUq1t2fh0QKZytnpCJQDktIcXibOEay7l6fJe0KQ4pqwNQlMHRk85zq2cPRlj6yGHzlgoElYAnNu6OX+PnIF0yU14jzWSrWOrsTHExkH+xvLnj8ZDoVb9HKFeDH0knHzVWvotpwNI032wS0EzZlRsjFli6Z5a09R/itV97kcKGdglCuTxCWCMtaHHJzfYF371/n3StfcH1qHC0FF24t8f69Ub5z/BRvHTjBkaZ22lVATig86zxqrMFH0CIlJzNtHHzph3x74BB/98XHnLt7k8mwRNmHyJNoWyt5NRJWKhtE1lT7fKfzwVG+AAAgAElEQVTdOjJKEXheLYxUPy/22TMj7JqEdD0SBe5hDjS38cqeQ7Sg8DBgDDGCkrRcWZvhZze/ZKy0RMWXlEyEkQqrDZ7yNgHdm1VMavDvbFottehH/WkcY0tkWrFHYvca8LUlZwTtfo4Xh4f48ckzvNa+jyLQBGjjSgc2sMzEG5y7N8LfXTjHp5NjrCpQLUVnBhjJRCXiv517lwu3R/j+sVN8e/goe4utFKUkg8KzCmlcEkkOl2X0WscQe77XxSsTo/zjpc+4MH6bhUpERUkiWdtGqFSpVDHKdKGmteGeUtVIz/NIu8KQSimHguuYglDsa+7iVNc+cggUCmTN6P/5xU+5Oj/BmjRYT+ElTgWek2NW1Hp919Nj9562sgoGyyR6koLC6UMT1qVmBUIRGmdfCQu+lahKRKvxON7Vz4+OnuJ7B05QlCoJNbrsn7KEaSxnJ0b5+y8/4bO7N1nQZXRWIZSHjZ1TFEsNvkC2N3B5fY7Rj3/Ke6NX+PGJM7y97zg9IqBZQKDcnBichMsDg2Tp6TnMSx39/PLuNf7q07N8ev8eupDBzwVIBIFUSXtB7bBYXAcNlzpXMxqd9Hc/Pw/SEXaJIbXW+FIiNbTkCvS3tJMTtcq61JYbnZ/m0r3bzMclokAlWjPdArnWTHRTT58nGolEWFPdtTYlJyUdmmmtpVwuIzMBeSux5ZCclhzu7OOd46d4fegAw36BVuWRMQZhBSZ5wGOzM/zZ+Q94b+wa92yJlYykHPggBJ6UyERVpgtqxYT4RR9rBZeXppl67+/5/OpVfnD8NGeGD9KaFIyl7f48HHbqWUuvyvHDoRfY3z7MLydG+dnFc4wvTGHWQ5q8LL6Q+MKrtpA2QKg1YRRVLdz6RgvPSzOBXWFIg4Gki21XYwsDXT3Vm0+93HXg3K3rTJZWKSdORwpAi/TApzBjabiv+vuWz4WwBNmAUGuypQoHmrt469ALvDp4kOGmNhozAYFNEjAEjsGNxEjIZQJaGvIUfB9VWkNZi68UEYbIWrxEp5pE6ruSWIixoCxzcYWzM7e5/cEMn4zf4J2jJznVNkADYJI6H084RyUvJEp6ZBt9enNFTrf18/HoZc6+/z7dXoGMkKDjJHfNdfFdjyNKUYhUqrq7xhM1S90F2iUb0qJjjWegs9hMV3PbJt6KgRliLozfYjEqE/sOLaxy4FNcvVWVX3fG1IP2DASxxZZCOnINvPHCEd4ZPMLx9h56cgUyUiWRGssGVL3XFE/sKhR5+/hpOgb7+eD2Vc7euc7k+ioiUFjPc1hhip+mmUAWEIJYCmLPEKJZ12tMjVzg2v27vLXnMG8fP8lQvhmdFnYJpy2yFgIUzUGO1vYeBnIFzrT1MdzYSsHzXfkHItnZV7MaV9iIwk3mzZPHUr5e2r3QYWwoqgy9uRba/GJV6lkcfjZeXmZsbZ6yZxGZIMkR3Cwh0y63MqnQSlPQnCloHZOljkoCZLt34z4zIFSCJ9ZL3yTrMa+hQ3scGzjCqQPHOd7Vx55iC03SJ4NbOBvAZHmVy7P3MLHm5eHDtJIhD3hCMdzURltjI0MNbRxv7+Oju9f5bPIO02sbqEIOPEUURSjluUKzWtcDtIRYuOYBJa0pLU8zd2mZK7P3ODN0kNf2H2Eg30TeOHswkC6JGKBJSrINzfQVGshqS1Yql+MohIt6RWXmyytsxCFWCtL9WW0Cqj8vTs7uwD44QLroZWjz8xSSbL3EpyAWljuLMyzGZSJPgCedVEwyB1KbJ2UybAJp282BQWFtdYN2W/dP2g+8NprknAlTOhWoGGho43fPvMUrh06wp72bBunjJxncZQTzlQ0uz01wdvwWF2fGiKKIW4tzvNy3n6PtfTRJlUA1AU0t3QwWmhhu62Kws4ezYyPcnJ9hrRKTUapuAyZbjVXbBCM11uIHkpKCsco6c/dvMr48z/jKHC/37+doRz/d+YYEZ3Sx6tQezwmFp2p3m5ZbLGysMb20QCkKsVlv8y5syX/PQ4+L3WHIJDG1oAIa/UzVUE/JWLg7PcG6jlzS6hac7GHTZLe8tj/mwU8245fuYRZVwKGWbvadaaM914A0rrwhFoJFE3F7aY4L90Y5N36L6wszzJsKcawZXz7H1ZkpTvft4/TAMHsaWmlQPoE1tPoBp7sG6Gpp41B7H+fHbvL53TvcXV9iXWtiX6BlUg2ZqGGRiHyNRSuQhQzroWa0tMzSyBfcmJnk1OB+Tg/tZ19LJ21elgK1ViubggMJ0xtgcXWFmaUFIqvRKNSz571taVcYMgVnC36GxsAx5FYvd3FlhRiDQLmu/ULUJCMPZ8qtJOpetQ2fUnxDVEPbVdWeHJsVks5M3kkra4iEoCQ14ysLXJi+z8d3b3BhYozJyhqh74MfoD3DSlhhZuIWl6fvc3Vxktf6DnC8q4++fIEigqxwtTq9gw282DXER20jvDt2jevzk8yE65SNY7y0xgVq6tS1dBFoJcFTTGvN9Nxdbq7OcnXxPmf6D3Cqc4i9LW20yIAA5/SkuKOom7lSucxGaaPObv0VHuQu0C4xpDOuA6XIKK9WqFWncrU1IFxL46pdmOQvpgqlluVsN3FpjQlF1RXaDO3YOoyjXp1XP60mZ0QWSkJyv7zK7eVZPrl1nbOjNxhdXWDdF8QZj1gCJnY1PRlFWUomShv89NoFbk1OcGbfQV7p38uh5k46M3lyWBqQ5LMNdBx7iUNDQ3w8coXzd29ye3memXCdDRFjfQ+UqjIkFmwMQihC67LKUQGTcYWF0avcmrjH9cH9vL73CCfah+gvNFGE2oK3BolECUFboYHexnaKy/No67LTo7pCsueFds+GTEVS4t+mxU86UStR7B5wbI1L3xdOdafxhqoDkzCsSVxvKVJmEg6GSX4XosZkJtndQCShQ5Oci6R1isESI4isZSGqMLK6wi/v3+D9kS+4vTjLhjDEBQ8thCupTfovpirWaI32JSUPrm3Mc+fCh3x+7xZvH3yBV3sPMpxvoCOTwQdaEbxcaOfES29xuneY925e4cO71xldm2c9tmgpQEissUlDUxDGOWXWGKy02EARKsm9uMz0yJd8du8O3zlyih/vO8WBpmZapEcO4RIwpCWD4GjPIN/XEeNhiQsz96kEgsomrOH5oF3MGLfEJtlqg812nwU8T1WxNqtU4gHWHbctPvGQRlHpt+qkYjXtX9ROUzP8BRtYZsMS7965yp9fOM+lhSnWfIstBG7/Z1OrhkoLzupJC7cHTSihouDzmXuMzUzxZdcNfnDkJb699yADfoaMgYyBnIIz3QPs6e7j2MQ+/unK53x2b5SZjRJR4BEp5TJxklzHdNcIkyDY2gOtFGVpWF5bZPrjn3Pn7hh/8OZ3eaW9n3YvIKscMO5ZKAjJS/3DzJuQuXd/wmh5hWxDQDks1+b3OaBdAsZdPmE5jqjoGI2rWZGyluldLBZRUrqOENYkPp+oPoztsEi7lTXq7MIHQos4pkylZqrSDRBhWdEhH8zd4r/83X9nIZdhLSsJBVRzq+vMg9RigO3hEiNAFDKsGstHEzeYmJ9FSM3vHTjp2kwn58oAnUh+1Lufl9r7+PDOdX7yxXkuL0wyF5UxvmuoapIUI5vAOAjj9tYBhCcQxYD1yPDR/Bjjf/cn/C8/+De83r2fduGRtxJPCpSAdjxebxtg8ujL/D+f/oK1xMTB1sb0rGlX4CdrHZQRGk3Z6GpT9zQEKIGWQgNZ4SGNJaqE6FhXGcul2Zut2RSb6VETKox7YWuZPHVfEwgia1iMyyzYkFIg0FkPAq8uTJTcCw8y+wP3KyC0mg00pYxgLYAlXXFxaYFrJpqcw8f14xkMcvz4wIv8r7/5+/ynt77PC81tZJfX8DdKqDgEq6v3kZbZpotMK4HOB5SLAXeiNf7LX/w3zk6NsoLGKuH2r9aWvIXhQiNvDx1kX3M7YnkNH4mUzwk3sksMqeMY4SnWdMhUaY3VOjBGCggEDDS3UzQS3wqCwHfN5x8yT/V8GWPR1i3xtIhLWJCxQRmLNNrFc5PtulItXs+XLqva2aFKuQckrOt2IY1FPthUt0rmIa9NkJRIO6O5cGgI3FtYYCoqsYxhzVpiYykAB3KN/Nv9p/k/fviH/OdXv8sAAdlKCFGEsC5X0hMCL20piItqxcYSa432PSY9zR+991MuTI+zGEVoIfCS/RwzwGBTM799+jXajUegH73Od5t2hSGFEEglWQ3LTJeXWLGlTZv+eAgOtPfTW2x1tdFbO75uQ65LmWt/7GKy9R60xTeCjFV4UiW7rlqs1g+kZQls8rekFzeiqr+ErTFjmgtZyxJ6MkoBaGcHwvWJu/zff/U/+MtL57hTWqUs3XUzAjqUx7HGNv7g5Lf433//f+JHh16kXwYUN2LyoSVrBBjtNvMUm+cqVoJy3uf68ix/ef4DRhZmCJWoaiNloc3L8nL7EC9092HWNhDG7g4j7IB2DYdEwoYOmVxZYGZ1kX2N+SpDKqDPy3O0o48ba3Msmxih5Lat6qDGfHEYJUByjRmFEGQQZC1QCSGXAWnxjEh6fKc2qdgmw0VUV0ASbKz6UpbNUNKWbtCPJWVd3Du2bveGVWX4bP4+752f5LPpu7y+7wine/bQlykmXdYse3MNNGQydJ3+Pq8PHeTDkctcnBpjtlQmSrBLrU2CMDh7WguQnse6bzk7eYfB8Rs0NzRwsNBIkCAMPtCbK/DG/qN8cm8UrZNUO/lk9/R10K7BPghBJGG2tMr00gI09iXmmVNBDQheGNzHhxM3mY+W0SrdeF1Uz1Ef7tJCsFAusao1ZUCJGgDf29zCt4+9SOWa4dbSlEss9HyM5xFJqq1Lqpu6VTFpJ6WstY5hkz/XP6R6UPlJHp7AaQJfuHh4WcKKL7gbrTE7foPRuSmu9ezhrX1HOdLTT6sIyCBotpKWpg4GCw0caejmvfsj/OPNL7i2POO2m6NWj2STzhfaukrJ6VLEB3dvcLCrh+5CgcYkYCuwNHoepwcO0dv0ESW9RvmJnujXR7uTXGEhxiA9wXx5jXsLM1QGXS4hJtlHEDjRO8S+jh7uT60T6xiUSCIYArRBJttbWCwm63NpdpwvV2doKBbwZFAFxXvyDfzmwZMMNrbx6cRNPr1zg/GNFSoZAYHC6MTKE+lurG6jIiOVS02zaY8eN/6qFBXbNxh9KNUEbhXHlwZUkvdlBcS+ZIGItZVZZjZWubk4w4v9e3l5zyGOtfXSJBR5BFkvR6G9h4ZikYwXEF07z5erM+DVUIaqzWosRkIlIxldnuHS9BjH2jrJ55uTfX0sgZB0Fps5PLyfOyMXnxs7cncYMlFvxlcshSVuz00yvbFMW67ZlaSi8C30FBp4Zd9Bbi5PU1qdByEJkyo7KSUy2ULGAjrwuLU6x19fOUe0UeGV3j30FxrICUlGeuwvtNC7t4mDXX0cbunjw4kRLk2PM1suEVY0Mu+egCYB6HEtWExSaiGxVWaqV9tb983eCVVTzqhFhRQCkQD/sSeJc4LxqML01B1Glue5sjDN24NH+K19RyiIAE+4UobhXBNvDB3i8twE15Znq8nN1L2n4zWeYDUMuTZ9j9GuIXrzzeTBedZWkpdwdPgA7968TMVotHw8gvB10y41ChAIKREYKlHInYUZLt6/Tf+BU+SlJAtgISPgzMB+rt69zeLaKrMmdpEcY1DSc9GaZLaNEJQ8wSd3brC6tMbdhVlODwxzqL2bzkyBHNAoJAeKbfQfb2N/bx8fjl7ls3uj3Fm7Ry40yKRXo2MUm/QlqcWRoeb8VI9LNfxjJIrgQQfIQhLp2UwuR1MQ+5JYwITeYHH0Kiszs7zeN0hXwcfDVQ1KoDVfoCVfxBeSUrIp03bDsbhCtrHFGUaWpjgxMExOuAYCwkIGycGOfjozRTbCVcJnbkHuWj6kg2aktVgpmVpf4f3bVzk2dJC9QcHtNy3dYPZkm/nuvheYWF5kdWHcdY3FhefSDc+rToyvKCvLl0uT3Fua4/LMXd7Ye4SXe4bZ09RCq+fCdRngTEs/wy91cLRzgE+yX2A3yi4rh8R0xBXdS+FKErR0sF9akVgfKNoa6dlKKcOmTlNVYlELldotx1f7SkqBUR6Rskyvr7AelrEFWw3yWZyt7EmJEgpZ12Rr27kXgrnSOrdX55gJV+kIWjEJTKYQ7Mk205NtYDJcZ93qZx6x2SUb0mKMg1eMUizrmItz9zg7dYP+wVOEiWOjcMzz8p6D3F2dZ+aLFW6vL1IOJEbKTVwhAGsNVinivGIu1Hx07yY3p+5zeWgf3z50gqOtvQw2NtOEQlnokBneHDzMkY5elhYWaMsW8LdgkqmtlzYCqEVmNj/2+kaoD9xvMsCtkeL6PkSuf6/LPq9G7IVwuzMIg5Zux9nQ6jpss96jcj3LPSmJ7cOZ0gjYMJrx5QUmlxY51NGKTurgfSFoQtCdLxKspDGvZ8uRuwP7WEBIhLBoDBvSMlnZ4IOrl3in6wgNmWy1PtrHbZ32naMvsmFC/uLix4yWl7GBh/J8NKbaFKDag1sIbEai/SyTYcjfj17is4lRTg/t51+deoPDuTY6M3kyCBqAllwjorexKsGiBHoU0uFxvrEYWcMj7aZO9TUyD3l2aUOBZDsJ12olhYyswQhXChFLF7FKDQcXkHKLN7YGYzy0SWqujUka7UuXSW+Tv2nSns/bkhEQe4qFconZ1VVMB4BLXJFKOAioqRVx32Jl4uiZ2gLZbdo9YDz52QiB9X1KnuDS1Dg/vfoZc9YQASQRkwzQowr8xtFX+J2X3mBP0EBDaAkM+FKhPJemhahtfKQFVIQmzCh0S54pGfGTK5/xf/7ZH/PHF97nyvoKMzomsmnnXdfyT1qLMJbAWPKhoVCOyIUWP7SIUGNjXZd1VAPHH0fSgB9bMpElX7EUjcKrs06d1HuEuk1VeKLi0xry+g93wi4WgZGScqyphGHyHNwWywqXqpYPfOdk7eB8XzftEkDvHkS6N7TGEgnBvAn5k3O/5OL6HBvWkCon3zpJNuTn+Z3Dr/A/f+u3OJHrQC6tY8MI6StiTBL1SLwMYfCUQClLaCIiTxA15bljS/zXj37G//Yn/xf/48an3Ao3WBOuoL+SXFNJaPED3uw9wB+8/A7NFUGubChILymUciSodcx4FFNKIDCQLWkGZYHvHzjJ68OHk53GHCnANwJvmxB9/XVgO5vTVmGpHcE1VhBFrgQWhMtPTaU34Ac+4jmJZz+bDrpCIJQiAiaiEn/8858w8KPfIxvkUG6fBDzrdjDo97L8cPgYA00d/OnFD/jo9jVmF1bIZAOMlNUKwhRkT91wI8B6EqsUQS7g7toaf/SLn3D56hV+4+SrnO7fS6ufcT1vgBySgWyR//jmDzhw/Bh/de4DLt8fw+oKYaCIfZWoaCeVN4sTV+utrGtSmo0trcLj9IHD/Pj4GU63DtDu+yhcHHsrDz3EIthykPtivde/UzLG7WRrrIvkOF60GBNjlY9Sz4t8fCbt+EgmQxMCIiv5fPwmf/SPf8t/fvvH7Ck0VAclcBuYtyqPU21ddL32A946dJy/vfgJ5+9cZ82XmHyGCmCRrijMJF3NpK169xUEIiNZ0JoPZm4z+t4sx/v38OaRE7zUM0y3yJDF9eVuD3zebh/k0NttXJi5yz9+cY4LU3dZ0DE6G2A8rxbrNgakxOoIG0d4oaFLZHm5b5jvHXyBF3oGac/mKUqPjHDJdDbxim3SLCqtrEhNzpqkShaXTLr+kuwoIeoiTULsLG3MgokMJta1doJWuDg/kAkyyXlEEi94dsz5TCRkFeIAIgWrOuTWxCTLscuVTBdrqroyQCAVxWITrdk8Q4U2zh04zHtXv2BkbopFYnTgY5DO865L57EkhfgeGCWIPUFoS8zfu87NhSku9+/lrX1HOdrZRwsBSkhahCBXKNI6cID+pjbOTdzmlzcvMzI3RSmOsYGPFpZYO/PClEKyseXFvr28c+gEZzoG2FdspjnI1G0kDzZRvqZ+g5O6e01YdvMHPEQiikd9uPkwYS2B55ENfNJMPveh619UroS1JvrPmJ5Z0/u6BQlC0NrSTF7WdkHY1B4umSyFoE35FFs76W1o4ERTD5+M3+T90SvcWJ5lTVhiL+kFlDzYtNwU4XDvtFdjaDUbq7PMjixxbfYer+w5wJt7j3Go2EMBV17a4mc43tZDV6GRwx09fHr3Judvj3BneY41oV1rk8iwt7mdtw+/yOmevRxq66TNz5JFVPuWR8JtMuKTgOVVD3yH8/RV5tm6FLpiJkNDLr/JNk3hrqXVVWLzfNTXPDOGtNYmGSqutfFAVw8NnofRBiMdQA216IirgTEEQhJYS97P0dU9SE9DEwPtHa4g//5tJtaXCaVImo3KmsRNBE9s4iQDWxIJy2q8wez8PcY3Frk+eY/Xeg7y2r5D9OaaCYRwDZ6yRTq78wwVWzjQ2sn58RtcHLuJtZYXDx7i1f5DnO4dpNsvklPSmQoIKsDUyiJjUxO0F4qc6B+oIg6ympj5aOtxK7j+JHObfl8ZaPAzNGZzta7B1iETEbC4sUZsnyhK//DxsnkRPemC2kWG3G5oSXcKa+lr7yDjeUkRl0ia3ltK1qClwBMu99FPoCFrDRkEewqNNBUOM9jczsH2Hj4fv8W16ftMrrttNqSviIyutkImYUYt3F40BG67tbGNFeaWlrk3P8etlSleGTjMid5h2n3X+7wByXCxmda9Bfa1d3CqvRcda07uO8xAsYMmIQi0k4gbQjBeWuXa7ASf3xphamaKt46c4HD/YDLhorqvjmDzpknVRqI27brxIHCP3XzcdtI2jcmrJDTbkS/SWWyq9ThPMNBlLFNrq8RVI5adc/52lAxWbPl5p87YrvWHrKdqQmySOKuEorO5iUBKVNrTG9ccaWR+hqn1Ffo7uxloaCVnLYFwFXhSQGAt7ULS2NzFUEMLxzr6OXdnhHPjN7m5OMtCqYz0JcJLGVPVMrpl4pFbp+rXpeVGaYnxaxe4NjvJ28vzvNw9zP7mdlr8LDkBgfRob+rmhaZOtDHkVAZIurgpmC2vM7Iwy8eTtzl7/xY3J8bJK5/jym1xUt0fbFMFW2Je2HRuUo1Q/3stkTitM7fVeuEts51KR0BoS0uQZW9zB33FJld+LEBIV0s0o0tMrC8RVcOyX+Ex2+2l45N0Vtt1lV2voWyyinNBQHO+4FrWAQi3i9ZyHHJ+7Cbv37jM/v37OT14gANtHXRlGihIWd1FQVmLJyy+8mnpGGRfcxdH+4Z4//qXnL97g5moxJrVjtGTHRRqqtxNlZEQJV3X1rVhY3aC+aVlxjrG+O7e47w6uI+uYmNtX23hEQtDbF0r5TkTMr60wMWJ23wyNsIXMxPMRGUiaQlyGdezHDDGNe3XWLQxGDS1gsan41UIKVAycfAqEb0tPRzq6KHZy9bt++gYcnRpmtlwnUjU4uXPknYf9km9GcAYV/aayWQoZrJ4JE3ccepkVUdMROt8vjjFZ1/Ocfb+db575BTf6jrI3sZmip6Pnzg7AvD///bO7DmO487zn8ysow807osACN4HSOokdViSLVsez+WN3Y3Y2X2ZP2rf92ki9m3C65hZR8x47fEpS6IOSiJFigRJECAIgrjPBvqqzNyHrKpuEAAJSiAJUfwxADS7q6uyqn71y/xd36+1BBjyXkhX3zGGOvsZ6u7n/ZGvuTQ/ySKaioUobnWsMxAkpboxCL4QiHyWpVKNS2O36CHL8bZuupuaY5D5mJ5YWEoYZtbW+Hj+Du9fv8SliVvM18qUPIUOPai6OnVP+g2edJx2TB+IbztPbhRrLdY4aOjAwrHePg529uA3HMni8CK/GrvBQlROiUqftjxVNthkCvJiIHZnvOrgABVdY1VXKfqWkqdZmptk8i9zXO8d4b0zr3K6Z5CubIEmqQixDjPIuLhGQSkOBHk6T7/By0On+c1XF/jg5hXurC6zFFUpSbBeHOS2TlEkAhFFZAzkqhHH2nr40dlTvHv0NAMFByFYs4aKtdQQLFar3Fpb5C83LvObrz/nTmmZWugUUSuFtAphXb5ZCIVD34ip5oV0P9usIcXGX9vLFh9bY7GmShBZejNNDHUP0Nfc5tbe8ewQCctKrcKV8RHKyqCF2ryjpyBPRSEb10oAnufSWe7Jdb8dL6HF2IiyqbIuPDLZgBkNv5+6xcd3bvHTl17jvaGznGjuoNMLyFlLaK1L91mHnyil4IQs0P/Sj/jR0dP82+ef8MHoMHdra6wLQQVDpCN85REgkeWIg0ETf3X6Vf7uxdc43NRKTsgYttlQwrBqLbeLq/xp9DL/fvE8o8tz6FxIlA/QcSjLaotE4CkfzwtitA2wsWIKIWOImSSN5zRLxvSsLn4oEo4mVxZHQ2Bc1gPjzupJki4kIwyhEDSVa/z49Gle3XeIFhyETdITv6ojvlq4w8jMBDSF7srvnpH+xvJULaSIsXyqkaZkq0TkUFisNXhCOCdHKlAS6XvUhEArxzxQ9uFfPv+IL4aH+emZ13j35Isca2mjRVhC66qGpHBKGWLJCUFTvouBH/6csydf5NeXP+XTW1eZL5dBCqTVNCuP146e4R9/9DPOhO20CIlnoIZhTQjKCKYqa3wyPsxvLn7OF5O3WfQNojVHJOrBbtf7XY9Au/K7RuSL3ReJideHhlBKzPIyQ52DvLN/iANN7SniXA0oAzOVMn8Z/ooVU6VqvRgg9unL08nUCOIpS4DW1KIqlWoFEzjAKefsWLJ+QCGTJfR8KkIikWn6JvIg7GzmTrnM//7893wwdpm/feEcPz16hsEg79BltUVJixAWFeesOxG829HPiXc6+PLwCf70xSfcnBjn0L5+/vbcD3i17ygdXoAvXGgmkrCGYI4an02O8OtLH3PxzigrJiJqDvFiSD2pTcMy0CljnVHQFY2krQtATFX77a9lnEN38VqDskYaQqQAAB7cSURBVAavrNmXbeYf3nyXV3sGaEakhcYWWLU1LpYm+XD0a6q+JLImjvs+/UXk08vUxFOPtRBFEeWo6gpNhSNHMhgyQUBbromc8lmNIoSMS81wTsGqrWKUxmtSDJcXWTz/R67euMl7Qy/y+pHjdKsQX4AfK4iHKwHLSEkos7T1H2OotYeFyhod2QI92TxtXoiizgq7iuHSvVH+cO1LPrlzk4naGusBVIwAz1ERS5vAvtTnPIFFWUOgIaMNobEpfqMCl3ffFUfG7UcCnjaE2tAaSf7h7Xd5o/cIXV5IGG+lcRZyqrjC77/6gnvlNYL2JqpaJ8mwXZFGW7uTUr1GeTIKabd6+uJgGIJyrcb04jzlQjc5qZBSIgzkhU93poWOTBOL5aU4eOu+bZKgsXJZGY3GaMP5mTFGF2f4cOxr3jl+hrcODtGKJMRCFOErVyltEQgvIN/cziHa8BAIYxBGY6RiGbi8cpe/XP+KixOj3F5ZYF6XKflgpIqvegwXmBTRYpFSOu5CBF4lohAJjra3cbSlCx9SEqMElhqRxBfdnTNxcayNIavTKvN4GVBHzRT16yDjcreqptt4/Pc3f8KPD71IT6bJnReu5K8KzFVKfDE5wpe3b6IzAVpbZIw2txuSQNUkOXzb8N5O5KmuIQEXc7SGe4tz1PoN1nNY3UI456QtV2BfvpWx5XlMVqXcg0KIuJPPWaZIwroPRmiKeoWpiSI35u9x9c4o7w69wMn2fnLSsREoVxvkUGfjDI7FTc/rFibWFnj/+mU+vHuD4cUpFnSFsoSaL9HpjRMNtYgCbQyelPhWIio1ssZysLWDN06f5IeDpznd0YNqSOmRWMhtblQapE49jXrWxsTVUo5DR2ArNXJGcKzQwX966Qe8d+AU+3MFMkKRrGQNglUbcWl+gt9evsB8rUIUJGwMgkfQme1vJdsExh9hH0+MnnhTTwqQEORqYRidnqR4skZH6JgCVRwk725p5XBPH1/cuYU2Lngt4oZ+SDhsXOZCWygr11ZaNhEra7PMjKxwbWGCt46c4dzhEwxm2yigCKkXwTowe8t0VOLi+AgfjXzN1Zm73K2sUpSGmifiFlFbHzz38eUIx/QVVmrsC5t4Zf8B3jh4ghe6DzBYaCdvhWtyi71wI+pKYBv2IQQP9Hadxx2Tj0Y1/JqhO8jyyuBB3jvxEq8NHGOfnyUXK5kGylhKWK4uTvPr6xe5OHeXcka5JAGCBiTYbyWN59KI7LHlBLmNPLGuw03SkFeqCbg5M8lMtE4/hTir5pqYurMFhjr76cu3MKrXkDE4diNGT/pXxNg5yoCylKWkpCvMzY5zu7jMtYVp3uw/ykv7DtKTKxDGgZLFapmrc5OcH7/OZ7evM7o0z7qEirJYT7naypTe2KaWOZmalAVZMfRkmjg50MfrfYd5ff9hjrR10iJD/AbNc6BTxAUg9buWoHSIOAl8v3VJ1niCBO/Roy/bTEd7G68PHOG1fUd4sXeAZjykdq2xDtjKUZjcWJzl19e+5C+3h1nyiLHN4z0KsfU9+gaSUEbb+17vVJ7ilJ3aBYznMV5c5crCJEdzbTSpACXcWqtFSoZaO3l1/2EmblzC95WDCiH9enzyIg4yO0tmbPzXV4hAMVJcYu7aJcZnZ7ixOMuJfYN05JtZr5S5OTnBl3ducmX2DrOVdUwmQ005SD0hbLwesmnszxpn2aW2qKqm08tytKOXswNHeXXwKCc79tHjZ8jilCc524QRYZEat5dmKdnIdR2mraw2tYDSaqS1BJ4fe+WWBLI6awQvdw/QEmbp6+rhZM8APSpHk41p7owD64+EixBcXZrl/13/kt/dusx0tYTJ+A5nctO92N07+032/PQUssEyWN9noVTl07ER3uo4RFchxMMiMWQwHCoUeOvQcT4eH+FOrYxQpCgLyfrIitjPiJ0Fp5zOr60ai8qGrBi4uDTNSHGRfVOjdLS2sra2xu3JuyyUithcSNSUIULEvTpuKrOOFCdFRxPa4BlL1kj68q2c7TvCjw8Oca7vMG1BhgDn2XuQ5s21EEQWFqIKH0+P8MnYNYqmivXdERptorQCZQW+VOTCTApXLeMG/4L0eHvgGD84cAKJAw/wYkuNBTxJBVjDcG1xjl8Nf87vRr/ibqWIDrzYmWzs9N5tlfzm8uQgnbfoRkpug5FgQ5/rkxPcOb7EYL4ZTykUhsBa2lXIqc4+3jlykn/98hOqTT7lhgKJhEQy9T4bm6ZjHPFIgFFglaRUqzIzdRtxb8zNWEphCiERLu1hknSiTfDKXVBHaI2IDE0aesM8x7p6efvoGd48doqDMk8hjvfJuGgk8WxLwrKiI+6uLHJl/i7/8sUHDC/PUPIFRmwMSNdZvgRN2RxZP4hx1OPpVWtCJKGQrlAjXkII4ripgJKABVPjysIU/375M/48do1JXaLmqzjpwOPRwG2m50dxmJ4Qto/dUiHdZ65lNGzKMb20yIXx6xxubiNfaEOhUEgCIRhsauPnp89xa3SMy6U5TM6jQsN8GEvaLrpF0NnGnxspQHqunVY4clCUxFeKSGtEAmyKWzNKLGiDqmla8Dje3MmPD5/mJ6de4XC+A6x2TF7EZWjWEBlDJAVF4G65yMWFCf7jymdcGL3BgqhhwoDIU0kv5oa6RmMMQghaC03kvDBtXYWGhIKMH0RTd44SRtrx9SJfLE3yy8/+zJf3HDVy5EustSjlIYTEPi4GBlG/1inQlqgr5cN8m6cf9sEpSc1oKtLywY2rDO07RGe+hS7pCH4kliYEQ82d/OO7P+N//uaXzFRrWM85BwDYzY37jflyEXu1NWsQym1ftY79VVvjuMW0JqrVUEKmOOTSGJd+jKA708xrh47z10PnONt5gDyOMhjjQBBkDPtSk4qicGSaN5anef/mV/zp6kVuFReRzU1olXGQ1jQY82RNF/eJ+0bSmm0ii4dAuywVgoTxKLnhWrlUYMUa1k3EwnqVX1z8gP+48jm3qytUcj74jjlNxdkYu0vV4VtJoyLClnbhgbInFBJASoXNhtwszvPnO18z2NpGc0uPWx8Jh7DQ4QW8O3CM1Z/9Pf/0+39jolLBZj2Mco6OTbI/Jm7uTzzxOB2ZvHZoZAlBkUUq6br7jJsqpRSgIzzpIUs12oXPGwPH+OsXz3F2/1HaCeN1osFHohVobalZ50wsW8NweYHf3fySP1y6wPjqAjYTIlsKaEQc/JZJedNGWBYLoRW0qpDTg4fx4kirbLAvUczlXRWwbi2rVjNWXeXDm1/x6wvnmauVWFOCWnM2pU6u59c3XpdExAPgWJ6k7BmF1FZjhaUWenw0cp3jXfvpa2mn2yoCYwmVIjSWgvL4q8EXMT+2/PMHf+TW+hKl0FkKK2zcNro5jJG0jTYyoaaAqNaCMSkimB9ZAiPwSjVe6D/Mz19+g7d6D9OnsmStRBntcMiFpKw1NWGpKUUVwbRe40/Dl/jdtc+5tjzNstBU8kEa87PGZUakFGyK1RmLtIIsHv3ZFl4+cASVIvu4cyohKEtH5zxVWuXrydtcGBvm8r3b3FqZwxSylEJBJGRaeZQQ1SdHe5ptrg+TPaGQRrh1k5QCFfpMl8r89qvP6fHz/OzIKcL06TZkUXRIxd8OnqEn28L//exDPpwcZV5pbKCoNUxHae9yAypDup5PFDMm+PSVQlqLqlQJ1ioM9fTz3utneWvgGAcLrbQonyyukxClsNZSNQ7sqoJlDsH7ty/zu6ufc2VqnMVaiZovqXmKqtVERqOkQMi4vEKAMC6tZ+LcmoqLNPLW41TnAINewVUtxY+QBmZ0mfdHrnJ+ZJiRxVmm1lZYispUfYHO+VgFUezkyYSLuXH9vleQSbeRPaGQED/JnnLoCqHPyPIc/3HzEu35PG/2DpKLUV+t1WSEpMMLeL17kPYfFhgcG+b3wxcZXZimIh0Fm/XclGi3WlxStxceEk+DLZbJGEFPkOUnb7/DOwdOcbiljb4w6+ohnfEFnPNQEYJ1HMjp5cVJfvXlx1yYHmOivEpRRESBRCqJkZbIgFB+Goi28RPRCH4qLC6cVNP0FZp588RJmpAoEudDUENwdeYuv/76Ahcmb7MWCKqBJMp6aGvqiBSxDkpr07ni8a0ad1eeDMb4Tla28TpPxsUCK0Lz6cRIDNIpOds7QJsFIoOQgoxyxa+nW7toPZ7lVEcvlyfHuDZ9h7GlWabLq1SEoaw1COXgQkQDYIh1nnPGKjqDHP3t3ZzqHeTlg4c50dHLvpxD481ADIPsFFgLKAHzRnOjuMCnN6/ywcgVxtYXWNBVKgq0VK5oAlw1UJxTTsIirqkhDuNYi9CubCyoaTpUyAv7BnmxZ4Cc2wKDRGNZJuLi5Cgjq/OsBoJa4BEpgREWbWSaQnWrzY1cJumEvU1ecq/YzSdmIR+qlEkS18bN9R7M1aqcnxgBK7FC8FrPAE3SMQB6FnwBzVaQyxXYl8ky1NbF7cGj3CrOc3N5ismleWYXF6lqQy2K0DpyRRW+Ty7MUMjm2Vdo52jHPg42dXCouY2+1jby1PmnBW59V7GGCChhGSsu8dGtG3w8cYsrsxNMlVfRGUXkyxQhN/GFBc67rVsopy4JKqQSDjg0YwQFozjV1csPT75Ahx8SxMUYFavRQjG6MstXU7eZqhWphR5GKgz14t80uG7TcP6Go34XZE9M2SmNsKin2FDOOZmJynw4eYOq1ayefJkfHDhGa2xfPBv/AJ5UZJpa6G5q4YTpZ7ZyiLniMutr61QjQzmqUNM1hJBklE9TmKEpzNKWL9CVb6GgAkLriCodiRJxcNvlnosC7pZWuDw9zifjN7hwe5TJcpFVoSHruXVwQ9ytUTbAqcSm1oKjCMHRhWQ0HC508N6R07zcNUBIwn8t0EKwjODDsevcWJxm1dRcD4xoYM7d6rru7m16IrI3FBLqdY6xsyERGGmp+oIpXeb9O8OsltZZjSJe7xtkfyZPLlaeJCwS4qg38tKnK9uOybSiOmWMr+iKfgWgrESZOM4oBCoucoiMqy531TRuXDVgqlLi6vwUH9+5ySd3r3NzcZZFXYNM6DoUk8qj5Hwsm9eHNDhUsXWURuMj8KqGvkwr7x45zbsHhugRQdoh6LgYPYZXZ/nw9jDT1RLa9xyKGRt2+kzInlBIAc5qiJiMsz57O4QJJVg2mi+mx1lcW2Pi+Ble6xvkRFcvHUGGAIvC0fkG8XSYtEqJOAPibKqb7h0nt3FhFiFcDDSOYWqjEcpF/UpYbs5OcX5ylA/Gr/PV7F1mdZlK4GEzGWcVtUnHm8im7pTkfNIC2xiOGUG2Zuj3cvz00BB/ffwlDja1OYJOkqUCzNkafxi5yPXlGUoS8D2SaX/HdV3fEdkbCtlwXVOlbLQ4AowvKUrJlZVpxi/M8cWdfn5y8gVe7t5PX0sLzX5ADhFPua4qRmOxsl5jDXH+O+akRrpsejLVCul6XqRwoFRla/hy/Cb/dvE819YXKOcCbDbEWhNb8TgPDtgY0UySWMRY9eKlCNaiI42npKtkijR5FH3ZJn528Aw/P/EqQy2dZHGW2+AC36vCcnH6Ln8ZvsJcVKXm3cdwthdaBXdR9oRCQt1KJp5owm+dSCQsWljCliyrtYjzkzcZuTfOK4eOcu7kEEfb99EdFGgPQpqVTyicZyptkjJLZreEf9pZzoSuWOAawXwZ5xVjvMjDvX2cXDjAyqRlMiqxUotc8F3J9CESuGoeG5v5pHcmHb5wCqokiKomKz0yVc3Rtjb+5sxZfnrgDAezzYTWjcFa9+CsYLixXuQX5//M3fVVoviYSarx2VJFJ3tGIW3jC9GQ56WeWRDWULFVpDDYnM89Y5geu8IH924y0NHNyb5BTvbs52hzN/uDZvJSEirlbrKoa7jGEhnjoEyMq35p9kOaPR/XNa1j/G3Duf7D7Ovs5vjNK/z22kUuzk8yb2tYEdSdF0HaRGhIoJYbmLxdvTCBBr8KXX7Ay/sH+a/n3uKl9n7apE+Iq9YxxmKFIJKWu6Uiv7j8ER9N3qKSlVhRh49xEIN7I923m7JnFDKRmHXNScPay1qL1RGepxCewipBBYvMepQizezcJFfuTVCwHt1Bjr5sC32t7fR3dZHxAzKZDGEQOhLQaonF1RWWV1dYWVohJz1+9MJZ3j40RJtw8TwPS4CHh6A/bOLnp9/gxKHj/Gn0Cn+6cpHx+VmqwhVmRBJ0qFzIR7jqJRkZhHbc1koIMkg6/BynDh/mvVfO8mr7AXqkTw5NEC9PrIRICkpY7pXW+M3VL/jlR3+k1JKlbKqImnDVOmqLzNMzIntGIesB67TQyv1OrZAAGQAO99HEkK/aWleIGygiz7JiLOu2xN31MmptGj32VbreS7IjCdSziafprFXcKK6gg5B3B47SjI+fDMc6iJZ2IXgh18bhobf5z4dfYXjuLtfGR7lxd5yl6jrT60VKJiLCYI3BF4qsCmjP5TnY2cuJvgFeOHCEnmwTXUGBUAgCIjwMDsRFESEoAeOlIv9n+HP++fzvqBVCasoglbtVyfiTSPezpIywhxQykZ34jPeXT6XxS+X6VKoN+1H57Nb7SH5bqBm4UVnmf/32V6y89R5/f/xF2uL1pRICZR3op4cgJwRtmTyDfUd4p/sAS69EzNsKs+VVKkI7NDSj8aVHs5+jXWVpkT55T9GqfDJCooRrt0W6bSMcSGsJxdXFGf710nl+c/0Sc0oTxU5MoniNHrzYcC7Phuw5hfy20si+ev8rSOpm4jWedWu+khDgG25WV/mnT37P+MIM/+XsOwwEWXLakkkdFRfi8QX40iMfejQDveSp5lpcg5l1ISdPQCBU2hetsASIGComTvFpg5AekVDME/Hp1Ai/+vITPr1zk1VhMaGfVuw0ns2zFejZKM+cQiaSOEL31/4lS4AkWG2tYxerKEHkW25VV1j9+jMmlhf56fEznOs7RFeYjWOdcRDegjLGgQII56wI5ZEUJble5xRLIM0jW1xhRiQsWoLEpyIEI0uzvH/rCn8cu8bXK7OsePEULQQ8rsruPSrfWYVMim4fVtuXfr7xT6ooCQyfiUMpZQ/uRVX+ODHMxNoCF++Nce7AEYa6B+gOHD1dgPN0tdEunBPXc6dpvNihT0JZCVWcK4QQrKMoCctEcZ6v741zYfwGV2buMlEpsiw1xnOlcCnS8Ibz2Z3rt1flO6uQO3Yv77uByZSXrsnSCiAX1o4k1AJB1RourUwxsbbA8NwEZ7r6OdHVx6HOHvqa22hVIZ5xyoyIWyAg5ZJJqfTi6rfEYVk0FUbmprkxNcmVmduMLE0zUVxiVWiqgaQWN32ZNDGwVyiNnox8dxXyG0jiCjVElTb8tTHQgLYW4UuqyjJTKVGcGWds/h6fTbRwoLOHQ5376Mu30Z4r0FookAkCmvzwPuBRQ01r1qsVVkslVkolZtaLjBbnGZ2dYmx2ivnKGuvCUFU468lGi/ggxtm9KDb+leBWbuhpYmdr3++NQrrszOb3NxKsu4WlEhZrNNqC9STlQDIVRdxbnOLK0gwtd0ZozzXRkW+mu6Wd1lye5kwuzT9bBJFxiG6rpXUWikUW1teYXS8yu1akhCYSFi8bOMB9q9OAelry9mQuy+5K4xKjAQ1jp8oID1VIEaMouAh1UgHzWORx7fhBtVl28yYyzs1Z7cg9iXtl8DyslFStpWSrTC/NIeam8a0glDJOORKX0Tnwqchot3YUoJVEex6EAVopajoisrrh4A18jTsY/l6VZN0sGn4eBZLvgQophMD3vHo1S1xE23Avd02sfTyX/v5pI52u7TaWKK4dEzHmtonnIQEI6aqAtMX1xoQ+xjo2g/uDMw5P3F1eE3s5FjA2wuoEku/+Y7sjfdeUMJHGJZAgBlI1LnO106XHjqZs8yg2dw/Lo/Cl3C8bVG7T9Xi0C/RtxrGXZYvna+N/dhBEfSiwdB0+botG/KS06rk8F2I9sTimWymIhN2MgPYQS/lQhUwp+RLFpO4gfFenlufyeCR1yhpmAI3dqulzW9lWIQWQ8Tx6W9rxahZfeo8EPPlcvl+SgO9npKItX0Ai0ZF2KCFS7MD0OXmgQmY9n8G2LmS5BtqitU4B55PlwHcpTvZcHp8IQGhDxkg6cgUyUuFJp14ySVvtwKA9UCHzfsCx7n56sgVELarnZMVzZXwuG0VYCKykNcjS3dSCryEQ0kUSXGByR/t58JQtFQdzrRzr7sOWKyghNuRSxRY/z+X7Ji5QpaylSUh6gxydfhZbrsUQMEmCf2fW64EKGSLo9EPePHaSXFx2pUQM0WHr2wni3mOeK+ezLFaITVDQQliUBM9ouryAU21ddOFBrYq2jkA88H1HHdiASLedPFAhPSzNyuPNg8c53t1LWIvwtYk5l9MS103fe66Qz6Y4W5hm2pEypliJInIG9uebOd7SSbN21H5J01smzOwYce3BCmmhSUiONHfwN2fO0aN9sjWDl4IY1YGMtEjwvu8LIj+XZ0ZEQx4pea20ISzX6AvyHO/cR3uQRUXaOTRS4HkemUzGkWFJ8VDFfKAzLoUgEJKClPzs6Ev8cP8xOvAItEFZi4yhmpOgefLzXCGfTXFV9qahSNniVzW9KssLHX0cbe/Bj02Vy5YKcvkc+XwepXZGf/zw6JB12DP7VRP/7dwPealrPx3WI9Suglq6suuGqVo8+1Wk30NxM6HLkggsymiyNUOn9Xixs59XevbTIX1EzeEnmRh3s621lTAMv/2UnW4g3XqgCXixbT//442f8HLXAVqtRwb3mTIWaeKGKOHQYYXcCBT6XL7b4mpFNQiDtJqgpmmtGF7tHuSt/cc5mGklHwkC6bqIrDEopejq6t6xdYQdFldIIIxfn+s6hP92QPjpH/hobJhlq1Gej46PqdEuoyOTOmybItk+l++qWNc7pHzseol8FTqN4vX9R3it/yiDQYFc1eLp2LOISaY6OzvJZHbu0AAIu6UfXl8FuiprmaIlREARGK+u8KsvPuTfL11golqi4kvwFfgekdVUrUGLOgbi96sQ/9kTaTWiGhEWS7zc3sePjpziWFsPrVqSrRq8yCCs4zvXWPLZDMePHycX5h7pODtUyEQl3btlayljmSwX+fjuLT4cG2Z0borphXkqOCSHSFrneQuZQhhvL9sBDn/TANKjAhh/3wJVO7g+DYUS0kJGCAY7OznZuY8X2vYx4OfJRwKvHKG0TqfaCEsQBvT37aOrqxM/BnfYqWyjkA8dKxooWcvU+goj81NMLMyysLLM3YVZFkpFVivrlI3Geh4aibFyQy/Lxtu/+QKJLbbceU/X9hd8631sPM5OVPNhY9mNfTy+sWy+PhvJ5x36XNbzaM0VaM8X6Mjl2ZdvoSAVzfhkDHjG8T0mOJvWWoIgoKenh67uLsfoK3e+foRvqJDuBNxPzRiW1ovcnZtmZnGB1ahMJKFsNVWj0UKghYcRqg7iuWWB6sZgUcIruOHTTV+SjZ827Ndum2jfHJLa/HhsLrnf/GBY8WArs5Mi3J2U8D2s/H/r67KDsdw3ftNwzZLKHR9BVnnkpE8OSUbHSmhdCCghBCVu2c3n8/T29tLa2oqnPMf/84jyjRWyUWpaUyyvM7+8xNTsNJWohpF1Aksr1CZOv812r/Hv1mvOByvS/cX/W0dDN1R9b1NPt+Gdbbax4sHR1r1tITd/a1PGLSYgUMbiGRdJ8axANsDYGO2YH4IgoNDcTHt7B02FAp7nfWNH9lsrZIpMBpQrFZZXl1leXma9VKJcqaTN81v3iiSfNFi2emHbNlunQ2/YZmNSa6utN32SfnXjsTY90w9QyO3A8B5lRfogtd6pfXnQPnY6lq324Sq6LNK42cdTcsNd9H2fXC5Pc3OBQqFAmM2ipJ8e8KkqpETEimkplUqUSiXWimtUKhUq1QqRMQ77MD1c/RLUh508fWLzPCTq36q/sVEhN2zwAAu2Ydf3KVz6aoMp3eLCPkQh7xvs1vKQKVvscB8P2mxHYxFbUvlshKOxFl95+J6H7/uxMrosTCaTQSkvLTP7NiG+XZmybUP1j/u/g3SqRTWqlQqVapVIa6ytU1jEW6Z/U/qzdCpNh1jfesN53n/SNv56w0C2pESmUY8b/tOglBu+ts2E9xBt2Umt6I7oe3ZhP5v3cd903aCQGy9xnanWhe8Uge8TBiG+7xMEAVJutxT7ZrLrCmljQHmBrGdqRDIx1725+6fXTSdyf6hoBw5AXUcesOW2+9lOITd/vhPk2p1Yt11RyEe6LumRN43DxAeS8ccpPjrunjnc940DFmxWxqeukMkTJDa+Ub+QQsQk487Baaxm39HON4z2G3znftn73sbu7+Nh+xGxl71hPd/odsb/bH17t63asN1uKOSuQKkkT7pDfeC+eIZN12nJgHc86G9ydt/2iuzWPnZrP09oLHLTRlsompCAg7G2MZLJro0vOdauWEi2ULTGve7yoJ/LY5bkhja+tYWaPI76hMcHNvVcCb+78hTv3bdWyMdgtZ/L91gePbfzXJ7LY5TvDT7kc/l28qTqWZ9byOeyp+S5Qj6XPSX/HzgtDr5dV2DvAAAAAElFTkSuQmCC;" vertex="1" parent="1">
          <mxGeometry x="317.3" y="77.5" width="32.7" height="32.5" as="geometry" />
        </mxCell>
        <mxCell id="XqwRq8SYC38xC89JIGz4-65" value="" style="shape=image;verticalLabelPosition=bottom;labelBackgroundColor=default;verticalAlign=top;aspect=fixed;imageAspect=0;image=data:image/png,iVBORw0KGgoAAAANSUhEUgAAAKQAAACjCAYAAAAEsLX5AAAABHNCSVQICAgIfAhkiAAAABl0RVh0U29mdHdhcmUAZ25vbWUtc2NyZWVuc2hvdO8Dvz4AAAAmdEVYdENyZWF0aW9uIFRpbWUAZG9tIDI4IG1haSAyMDIzIDE4OjA5OjIyLAcHeAAAIABJREFUeJzsvdmTHEd+5/lx94jIs+77RuE+SYAgwaubZN8taUYjjUYak83YmO3DmK3ty77ty9r+B/syb2v7NCvTw0izI2l1tlpqdZNsHiBAEiBxFoACCijUfV+ZGRHuvg8ekZlVKACFJlgApf6RiayqjIzw8Pj57/j+DhfWWsuvQDZ5AYjkVf2g/r2exDZ/2/R5/VkBu+nMT4e2XmM7snJ3rvN10ZOMP5leg9n2o0fP/tN/Pt6v+sUHhrJ17ncyTrF1ErY8RPGYG34ajPMvlbZMq6Q2l+4ppP/VDhd8/fP9KzPkV6ftpMcOJIr9iivyq37/ebvO10Zu/Lbu9924I/GrquxNZHHjt2CMQaq61WYsCBBiu9vZeumtam47Cbnl9ycZ/ZPM6FedlWfNjzsc/3brZusTALDWIrd9hk+XvrKEtNZirMUi3ICFIMZW15MRAOIh87PdDYrHfL6DUzwNetYM9VXpCcafioHtlr+iKmuqx3yd9JUZ0liLtgYrJBqBlY4hNWCwWCG2MZcfRt90LvhmUvp8UoaU27yUEHg4Bv066VdiyFTaGSAWECKIsKyGGyxtrLG0tsq6iQm1RiPQFuwjme0ZeaO/JmAzWiKtY8BACDKeRzYIaMjnacnmaQvyBDimlDzEx64/2a9AO2bI1N8SifqNgRBYtobp0hr3lxe4uzTN/fkZ7kxPsB6HVOKIWICxElu9he1o5zJ0BwN9ND0N2Oexk51c47Fjedx5+BXPsc34d3geaUBi8aUkH2RoKhZpb2mlt7GNwx399DY00ZstkhcChWMgiTPd3GlE7Xp1P+5o2DyBU2MwVZaMEaxbw1Rpg8tL05yduMXFOze5vzjLehxSthojBUiwViCUQoiHMeTTw+tEerrHHLQjnn0MPc6J3slYduKI79ZY6o8V1iFuMpksAWSFYk9HD6/sOcR3uvexv7mVZj9DTkg8YRHGABYlvAcM0u3EzcMAvSdiSA1UgBWjubm6zC+uf8nPr15gdG2BMKvQniASIHwPLWoSwvk1T8c+fOjk29rEP9Y4eNwDfOyMWOxjDhI7APV3jSF3+IS3fGvT94UFyprcRsjx5i5+6/TrvDm4n958I3kpyGDxkUgrvmaGrLMJSsCC0XwyP8Z/P/8+n9y9xZq0kAnQUhCaGKRzYowAYdyXlRAPgX12TpanB+096oZ3dokEOn7k4thZFOOrj+Xpnqd6PrvZ5BCA1ZCxIDbKtKH44YmX+e1jr3KspYsWIcluHUzdhR/lyW8a644YUkAErAB/P3aJP/rgH7i6PseyL4ikxPcCpBRUwhAhnKcNzkBO7u6paOWnwZDpAn4UycccYHciIRGJlPy6x7IzCfmkU7e9AJHEOsITkiISf2mVd/Yf4w9f/g4vdw7RAARsa8HumB7v1AgncleAc9Nj/Okn73NjY5ENTzo7UQkiNBgeYEQj3M9CiK+ssZ+WH27FDkLqOznR4/weKx4b23hqY9mBDfl0lIvBUw74KVmDbSrw4fgohUyB7MmAF9t6nIeeHG2t3TwHOxjEYxnSAmUsd8N1/t8Pfs7I8izLShCq2sqsSmghHljRKVPucDxfO0n7aMn0OIkENVv1YZJppxLpeRrLk5AVoBGUJBgJH94aodHLU3jpDQ4VmxDGIKVCiS03twNk/ZEMaUmkozH85YWzfDJ7jwVliJRMYCBbveH6962T/DSkW1X7P8apedzkWx5u5Ist7zse1Dbn2ZEzsltj2ek5HnN6k5wofdZKSPAli+WYj+6M0FVoYODUqxSkXwszpjf4gPTa/joPVTwWZzcuG83VhWneG/mSJd9S8SVaCKyoqecUTJWPYQr7FV7pPT3q85TEY14PO+ZJvv+o457GeXZ7LDu5jhU1M0MAxliMEIQZxf3KKuduX+fz0Rus69gdbx/2hLb/EzxCQqYMuRhHfDh6nTtL81QaA2fMC5swvkj/rw540wQ8bVX9CPUjkgMeZ+DbHXhGj3NYkoMe/fFTuuunZjs/hXPUT0uCM6CFwSiBVIZ764ucv3eLrsYmDja1UczksAmmuflED7/GQxnS4GzH++EGn4yOUPYEodVY6bLi0qSJh13jaamKred8PNkdTP7jmOlxZ9jZ3T1NU+VZnwM237EFhASdsGbkwYKuMLI4zYG5SZqsINfWifRceoYQ6ZcefY1Hqux1HXNjdY4b81OYjMLKusNFTYQ/6gaeNlP+mp4dVQHyhOoVshawqkPGN5YZX1tiZnWJpZUlDNYl2exwWTySITeikJuzEyzoMrEUIJ+MvbazZX5N/zzJCKgIw2JUYmZ9mXUdMjk/SxiHTyShH4mmleOIyeUF4kCCrzC2Lghkt7z/mv5Fk8Vlfq3piPnSGhUL88vLLK2uYs0WPPIR9Ggv22iWSmtEErQx1YCLoOZVPyqH59f0L4esACMFkYS1KERLMBZmZ2Ywsan52o8RYI+UkMYYSqWyu6C1yDqPOmXKXzPjr8mRAKGwUhEndqMUgvX1DSphhVjvDHJ5JDAuAGUt0lg863IgN4GjdZjnc1vTlOY2PlDhuFtUb0WbTWMxD8zZk09kPbz2rEmIJLqkDTbWKCmplEqsb2yQz+ZAeI91tB8fOrQPF6NV8P05Y8b6h1Rlw4ck3Yq646WVYA2IOnOk7mGbhF9c5t/mhWgeOKfAWlGLWonnh3G+NhLufo0xCGNRCPA81lZXaW5qRluBpwRKPlwx7yiWnU52faREJOr7ITj8MyKXYSNJhFDCbYYkwiAEwlisNS7wLyVSKmRs0eUIG7vEAF9BBgikhy8kAtDWEFpDaDQhlhD3OxmPTD7HRhgB4Cm/mpQuEOgkM6g+keLhj8M+nmu/juYJT4keNqowCsFalJSPTbLZUbZPOgebwnhb3p8rSiM6iX6o5oxaiyclHhIbx+j1Ciq2NAY5Ohs66W5uo6e9lZaGAvnApzGTIyczKKuI0GzoCmthiaX1dSbn55lZXmBqeZ6llRJxHOHlslg0Lg1UYoWrxHTXdzMl63SWtE86fw+q9OeTNTdTNcNxSzBlO3riIq+taP3zRNUFI2oq1YhaOFEYEDpCVGKa8Ohr7ORARx+HuwcYbO6gLZunMZvDC3wCKQmUwhcKgURjiKwm1JpyHLFRKrNWKTFVXmZ8aZ6Ld29xZ36amY01Ql9hvIA4GYSwFsn23CfTgZMM/JFUJxmo//F5exK/Ov3KDPk8TkH92GzVkLQoa/EMBNpSMILhtl5O9e3lRMcA+5ra6WtsptnPEuDUfSrE0lci27DCw3pgPCDbhMGyTsxyuczLnXu4tjTBhYlbXJq4x1ylQqgUEZKYWny8qlmsdUmwD8TnHxeMrx1jLY9X8c+M6vGYncvxZ9hK5eujNNFC4mxdLzJkShGH2ns51buXF3uHOdrZR0+ukaKV5KSrOa5Pnq+fzk2PXIhqYgEIcvg0Z326ehs43N3Lic4BPm8f5fP7d7g6O8VUZQ2bUdjARxv9oNEtEsZ6kpurk5DPH9Ut5UQyWGOqnS8eN+R/dgzp8FGLtOALgQxDGrXkRN8w39t/klf3HKYv10iDlQ7SAnyoq7KwhDiHpLq2bc1027zunSeZniMvs3S2D3GguZMjnYO8f/sqH90b4dbqHJGUIC06Yai0RMDWn3SnjPlcMmId2fpZcgB5vSP8KPpGMeTOBIMTOcoYchrabYaXh/fxr06+wYnmAZqkT5ak9iOZIWtBW4gEaCFZQROhibXGGIO1BiEEnlIEwiODIouTqtWoFVTrlDu9HGd699LV0kZPaxv/eOUzRhZnWFYa66lk/C6ndJPA3NrtbVvRWfvcPnQ2njM1/gS44DeGIat2IQ9mnNRu18k1ZSHQhi6V44cHTvB7r79Nn2wgj0ThGMel4ddisBtWs7CxwWK5xP1ojRVbYaVcohRW0CbCU4qGbJ6mTIFWmaM7U6Qlk6Ulk8OnxpQ2OX8By75sI837T9LX0MJfXviIj+7fYimKkFIihMIq8dBnVYPXRIJ72k3+THK7D2HK54whn4C+MQy5HdVHOoR1he0ZJHkD3V6WHx0+xX888x3a8chiUdaAkGhc140Qy0oUMlcpcXdtiatjo9yYuMfdlTlWdchaVKYSVTDWFTflM1ka/RztuSL723vZ39XP4b5hOoMMTdk8eSHJ4CY1ayW+NWS8DA39B2hpaMT87G+4cHcUFShUECBRm0wDi3C9kowhMpoYS6SgbGMikQDzUoGUaCwp1PrPib6RDJkyYlW6JFEVz1r8MKJb5vjtQ6f5D2e+TwuQsRpfKCKtQVkqQrBiNOOVVc5P3ub9kUuMTI4zv7FKLEFkfLQAmwEyGSetrGUJzVS8xo3FFT6aHCN/STHQ1sFLew/xoyNn2JtvoM0LKAqBL0AKiYezL083dNP4nd/hz//h7xDFAk0tLXS0t5ELMnhCoKTAWks5ClleW2VudZn5jVXuLM0wtjzHkokoYRFZhfUVxhjX+lAIpBF1WsPUwrsYx+j1kvR5C6ttoW8kQ8KD8yotiPWQJnzePnaM33/1O7QCHpqMcKWb0lOUgGUsn0yM8jcXPuLs2A3mRIRtyEJbnlJYQWxt8WVTSzEhXyIyHkYorq4tcufc+5z/4gI/fPEVfvPoyww3tFDAMaJKF4uUnGzp4NAf/CeXE0AtOSXtKpZGxeLkVcIyQ5mbS/e5cGuEL8dGuTM7w9LqBl7GRwQesZBsG/4QZrN9+g2hbxxD2i1qWiRGpLTQqgLe3neMf/PKt2hFkQUEihioxJpQSW5R4v/77CP+6dJ5JkvLRDkf6eWJpAtxSU/x8N4JTrlKKZBSYowF3yP2FPfiMn967j1Gx+7yO6ff5NWhvbR7QTVDKu0Y5gEVNBaBQiISwFzU5VQb4WRbHkEDWQabhvnWi4MsnKhwdWqcX167yEd3Rri/voHKZ4ilwlSZ0mCkqZ4rhWOfb7lYo28cQ9aTsE4CCQvZ2HKiZw/fO/AC+zONNOJChdpqkB6hUoyGK/zx2Z/z7uhl5m2Zcl5R0THWaKRwjBj4PmEYPvK6xliEcD0xpZToOEZYy0a5zPziAstrq0SxdrNb53UJDApJDoh1hJK+a8KVrqoHPGjIIMAqhKfowKezdz9H2vp59chJfnbjc87dGWE5jgk9SSwhlomcFYCVNVjpG8KU3ziGTOu+hXU9g3wrkKGmN9PAGwMHONM9SKOQToVbEEJRBm7oVf7r+z/hk4lR5kyZkg9aCVcnlIhdKSVxHD/i6hasTeWkk2o6Rq+us7ehjTdPn+bNPUc43tFLa5BxxXDgMqarGt8gsXjSq5P2oppB5H6rvTwAmf4saPd8Cp5PS2Yvw00tnOod4hdXLnJh4g7rGYEo5oiNxlqBSRhd2Me3dXle6BvDkPUAdVVVW9dxKxPDC3uHeWlwL21ehsAAwmIExEKwgOZPPvon3h+7xoKICH1BLHEmfxo9SCSI1eYBUaI8D60TJwIQscGzGhlqGvyAk4eP84MDL3KstYfhhlZaPJ+AOhhROI9e44Api0Inra9jDBEajdsJwUfiJxhnCiUB1UahHlAAcl5AS2MHPZkCQ/lWum58xk+vfsaGqoAv0AkGtfPigeeDvjEMCTV7KP1ZSQkVTU++iZe697Cnsa36IA0O6J7XEX9z5Ty/uHqReRkRBo4ZbSI56q1+aW3VsagXKNY6b1VKgTQWP9I0GcnB9j5eP3yMl7qGOdzWTbPwyCGrzJNKPSMEZWDNGmajVcYX55jfWGdhZZX1sExFRxgsnvTJ+xkaMjnaGhppLRYZbOmgCZ9GwDPG2aJCJC2WJUGmSLFvL/lcBk9J/un6RZYklJPxm1SlpPeyRX1vh+0+S/pGMSTUkmYFFg+LF8Uc6e/jSHs3TUkuosX1nlkzMZcXJvnrzz9kTpcJMz6xSloF2hQqeUhD/nqbKzZIYxGxJo9iqLmDV3qGeX3gICf7h+jw8uQs+CLxlq1NJKIgFoLlqMKtxRmuTU9wc2WG0cVplqKQ5Y0NQh0TG4OxBoEg8HwKQZbGbJ7WTJ4Dbd3sbWjjaGc3gw0tFBLpm4Y9A6BV+pxq68d/McD3FD8duchCbAhVXXiS2gLZFAxK3p8XKfrcMGT9hNQ7uW4Fp9ktTlIpIVHGICtlWr0Mp3oHGW5qIYuLYxtAC8FsuczPrl/gxso8YU4RS8ck1orExhQOjIYk/d4xp04SASROIoowpoCiO9fI4fYezuw5wCv9+9hbaKVIra1xKhU1sAHMxSVuL81xefIeX07c5vbcNDOlNZbiMrGn0FKClNV8SWsMIqwgw3XkyhxBDJfu3nbX7e3npb49HOsZYKChmSahCJJr+0CT9Dja3I3/0ltsxBG/vD3Cgo6peIl9mvpNyftzIhAfoOeSIcGlwQOIJDKBtQgNQmsCacgjKEqfk939vNDZS6efIZNIGQ2UdMytxTl+ef0Kq4GgIh2zmFQq2s0qdas54CHxNHhhTKvKcrijl9cG9/PqwH4OtnbSgMQHPOvK1U0SigyBVRtze2WJ89N3+ODuVS6NjzEfliDjowOB9gOsBI3cDFonFmM6JqslUxXD7Mo8N9YW+HxyjNeG9vOtoYO82NFHd66QfNNJy0YhOJTv5A9Ov0OpFHF2+g7zcYyRkjRTrZqsXIddPi/SEZ4jhtyUkSUAaxAWPCER2qC0pYCiKAI6Mzl6G5oZaGnhpcG97G1qJUPSTUdItICZ9Q0+G7vBdHmNcl46jxonFeslhBMYtsqM0oKSAj+MaBUBPbkWTg/t442Dxzne0Uu3zJAjzSgSpHm3EbAhLJPrq1xZnOT921f5+PY1xjaWqAQSikENqK672e1Kz5zEFmhpiZQhl82i0dwqLTL75VnGpu+xcPQl3txzhK58AzkEHpYAKAInGnr53Re/xfzHG6zNT6A9g1DKmSrpHNfP93MkLp9LhgTwlUIZi6c1gRG0yAwHWro53tXPqYFhDnb10uAHFPCqDCIQxDjnYWx9lU9vj1AJJFrVVUvCpphjyozSpom8Fj8ytKB4rXcPPzh+mpe6hmj3cq7OhtQssK6POtI5T+USN8ur/NPNS7w38iWjK7OseRDnA2LlEnSVEFUbd9ubrpIDfYywqIxHZCM8KVGFgOUo5MOZUebKyyyEG/zw0Gn25BqdeQHVWPrrvfu4efAF5r5Y5/bGMhVVg0SVC+lvmvvnhSefG4ZMyQqQxpBBkokMzcLjcFcfZ/Yd5fVDJ+iXRRohYcJEulHbdERbw7IuM7o2y+3lOcKsk5gIU+vYVjWmEnVnDYGGooYW6TPU2s73T73CG31H6fJzFA1ktcETAqFENbwXAiUbs1iu8NORi7x7/QsuzdxnybNVRgxNTBzHSClRnpf0uaEaXXoUCSGw1qCtwRi3s4WWhqAQcHN9kb/4/EN0pPn3J9+iww+cTZmYEFngnWOnGJ2fYmn0CrMmxqqaaqgvYa7NxrOn54YhNS6lP+N72I0yqhwyXGzlN469xG8ce4W+oBGPWty33gJyzFhTn0uVMrcWppmNNogKebS0LqKjpEtAEwpttUMGrUXEMYVYsC9o4jdeeIV/++LbFIWzEX0gI50ah6T60BjKSjAfh5yfG+XPPniXKwszrApLWEgxRoPRCXgvPRACow1xrAFQSlUjNJsy1ZM2Ydbq6t9c1ajAWOOSMISknPW5G67z02sXaPCy/N7JN6tJHZG2BFIwJPJ8Z/go9+ZnWZ6/DzJZENZW229vQYWeOT03DOkjEJFBVSo0GcW3Dh3jt4+9yum2ATqUi0ubLevYVJVQbbkLBJUoYmZ9mdgXVSAdHBxjEwdGWrBhTBBFDBaaeOf4CX7zxMsc8FpoF4IgsUlN4oVHxgHbWkpWpOb60gR/ffaXvD96hXkf1jKCUMpaPXidTepaN1tnm2YyoI2LCAkBUiSScHsZlWpWkyRLGOeRYD1BWQhubyzxt5c/pbu9k+8MHEQBvhIo4xy/432DHJ0Y5NbyAvM6JFaCSNS6V8pkfqR4PlT3rjKkpaYi6g1ph6f5+GHE3mwD//rl1/j20GH25Bpplopsausl0Q43cRZrQSVedfXBAeUoZH5txTFfEu+20tmRsYnJKB/fGJpEwGt7D/M7L7zG8aZuWjMBWcDDIFydIBaoWEtFwKoQ3Fie5RfXP+XsjUvcXVukkvepeIKyiF0Gj7WIdFcrWzMlXBqYcMXzxmJi1+jTJlumPLDrQdppI2XwhGHSzYwkDmtd9w3XNub5888/ZG9XF/uDJuf9JzPSqvIc7dnD51PjLM6MI5QC4SI5Ardz1/NEuysht8uSAnwN/voGBxra+fevfYe3B/fR5+fJIfC1S2TQQhAJmSTWgtPPERkhCZLYtRROolW0ZiOsoMWDRflCCmykyWvBG/uO8O9efJ2TxQ7ahCTr2KUKrKd24oYQ3F6Z58M71/hw9CrXFyZZJSYsBIRGo5SPNU6e2jTwnHr9JvHcNYhQk1eC1qBIoS3H3MoqK5UyoTRoT7osH5FAM3WdNmpr11RhG5MqB99jTcLl+QnevXqR/hffQlhDVkgCAQUEB7p6ONjVy9j8NCsCQmGqEZtdoSdw45+dyhZgEyBQliL2Zxv4w9e+zdtD++kL8mSNcAY6Fm0FFSFYA6ZNzKWZMS5/eZGX+oZ4dfgQrbkiQtTSt2JrCXWMlVRVtItZS4QVqDCmK9fEyfYBjjZ10WwlGeuSF9z3k9ZywIQucf7uTT68eYXLs+NMlddYtxrru0YAVkiMNtV8Rotx2+kltq20FhVpMqFmuKmTM/sPc7JvH81BltnSKhfv3uLc7evc21ghzHjEvqKiDZoEnpLKxZKSpA6bxOiFoKrmpVQsVSJ+ce1L3nzhNPtFLoHBBAEwmGnkaGM7F4IMy+EqIusjrK3rz5Ry99N6tvWxofT8O6NdY8hU/dXHThXgaWiXGf7d69/mu0OH6PKzTm0mej0EKgjmooiLUxO8f/sal5buM333Do35PC8OHqgmu1avY63bgTZJXhUWxySp/agNDULRoTI0ofCFm4hqlEXAvDWcv3ODs+M3uTh9h7H1RdakJcwqIg0gknYtrszTU5IodvUyWOtsOQ2ZGDoyDbwwvIdv7z3O0bZu9jW2kBGKdRNztKmTI139fHz3Bl9MjDG9voZRApUJCK2zNaywCGuqGw3Y9F9Rq+iLpOD2ygIXJscY7D6ISeJGQgiKQjFQaKIzX+TGxiJSBNRafaZP5mkxpK29ttpmO6BdYciUEavNqazz9AItaI4lPzr2Et/b/wJ9foHAWpdGKCCyglVhuLO2xIej13l35BpXFqZYEBUCUyGUddEWNjMl1ZDjZig4nR5lwbdUM2uscPs4LlnNF3OTnL93m/O3r3F9boJFQqKsh1Geq2Wph0pELdFDSFdEJnRMRkOHV+Bwdy9nhg5yqneYvW09NCFpSEaTER75lk46m5rZ19bF0fZePh2/xZXZCSYrJQh8DCaRM/UPtuZ+pOOIhWDFRHx6/TI/aN9Ho+eSMS0WD0FHUxPdLa2o2XGkre1hXt/A4Olq8C0O5w5pdyTkVntdgNKWoha80jXA7554lW4vRxZn9BubbH2M5srCFP8wcpH3bl7l9soylZyP9hSyIuqypB+1uutWLE6Fm6SjRep0AJSt4X5plQ/u3OAX90b4fGKMhXCDkjCYQLkGnHHkdnFI0sBNYitKYTFa42uLDCMapWJfWzcne/byat8BTncP0exlqxnjqRSX1u0d2C182tr72dPQysGuXj6+e52PxkcYW11iw8REShBLW8MwU2ashpvc32MFN8bHmC+v0V708ZIyXwU0F4q0N7eQUR4VY+qqGak747OnXbchBRalDbnYMJRv4l+fepXjje1krcs1RLvdoZaF5uLCJH9z5Rw/v/4FszpGF7Mu6iJtzfgXtSiwrLvKpgqwumaWAoPEIJPrOVcE1nTMlYUJ/uTDf2AkXGU1ozA5SSxcvFlbJ22qvXhSKSksaIOoxDRaSV+mieM9g7x64BgnevfRFzTQlHjFEVCpkxw1XFXgWUtXkKXYu5fBtg72d3ZzdvQa1+fnGFtbZEVqQp9km+cEqrEi2S3LJZQYXzG7usS9pVn25BvJej4Si8JS9LO05ZvI+xmW4xA8zyEP6Yw9Jxy5ywxpkdaljLXic2bPfl4d2EeDtUgchmdw0vHG6jx/eeU8P7v+BQvEmFzGSQhtkUo67C45qyQpZYA6Ybm91BTWjUFaByM5jxpKVnO/ssat1TnKTXliTzqpmDoPIgGtkw3OXTa6wGqLV9H0+QVOtPfz7aGDvDx0kL6GVjIopLWunNUYJtdXmFpepCtfpL25lQbhEYg0q1yjrKVRKYqZRgaHX+RM7zDv3Rjh3TtXuLQyyUxcIiaJ+xnrWg+m0Rxc/udKWGJycZ5S1xAFz3c5AQhywqcpKFLIZLFrJYTnHn09EvE8MOWuS0hpLQUkB1o6eefwSVoIwGhkUqgUKrhfKfHza1/y4e3rzAlNlAnQ1jpsbZN36MjZzmILQ25PRoAWFi3rMU1ng4WepOK5McSqpsZSS6i6sbkF31iC2NKoAjrzjfzg2GneOfgC+3PN5KhlaZcxzIdl7iwv8MGtL7h45TLDfYN8+8TLHGzppCNboCiVK4XFhU0VlgKCfLaVthOvcfzgAX56+VPO3rnOvZV51kxMKB1EZKypNtZy0BisRGUq1t2fh0QKZytnpCJQDktIcXibOEay7l6fJe0KQ4pqwNQlMHRk85zq2cPRlj6yGHzlgoElYAnNu6OX+PnIF0yU14jzWSrWOrsTHExkH+xvLnj8ZDoVb9HKFeDH0knHzVWvotpwNI032wS0EzZlRsjFli6Z5a09R/itV97kcKGdglCuTxCWCMtaHHJzfYF371/n3StfcH1qHC0FF24t8f69Ub5z/BRvHTjBkaZ22lVATig86zxqrMFH0CIlJzNtHHzph3x74BB/98XHnLt7k8mwRNmHyJNoWyt5NRJWKhtE1lT7fKfzwVG+AAAgAElEQVTdOjJKEXheLYxUPy/22TMj7JqEdD0SBe5hDjS38cqeQ7Sg8DBgDDGCkrRcWZvhZze/ZKy0RMWXlEyEkQqrDZ7yNgHdm1VMavDvbFottehH/WkcY0tkWrFHYvca8LUlZwTtfo4Xh4f48ckzvNa+jyLQBGjjSgc2sMzEG5y7N8LfXTjHp5NjrCpQLUVnBhjJRCXiv517lwu3R/j+sVN8e/goe4utFKUkg8KzCmlcEkkOl2X0WscQe77XxSsTo/zjpc+4MH6bhUpERUkiWdtGqFSpVDHKdKGmteGeUtVIz/NIu8KQSimHguuYglDsa+7iVNc+cggUCmTN6P/5xU+5Oj/BmjRYT+ElTgWek2NW1Hp919Nj9562sgoGyyR6koLC6UMT1qVmBUIRGmdfCQu+lahKRKvxON7Vz4+OnuJ7B05QlCoJNbrsn7KEaSxnJ0b5+y8/4bO7N1nQZXRWIZSHjZ1TFEsNvkC2N3B5fY7Rj3/Ke6NX+PGJM7y97zg9IqBZQKDcnBichMsDg2Tp6TnMSx39/PLuNf7q07N8ev8eupDBzwVIBIFUSXtB7bBYXAcNlzpXMxqd9Hc/Pw/SEXaJIbXW+FIiNbTkCvS3tJMTtcq61JYbnZ/m0r3bzMclokAlWjPdArnWTHRTT58nGolEWFPdtTYlJyUdmmmtpVwuIzMBeSux5ZCclhzu7OOd46d4fegAw36BVuWRMQZhBSZ5wGOzM/zZ+Q94b+wa92yJlYykHPggBJ6UyERVpgtqxYT4RR9rBZeXppl67+/5/OpVfnD8NGeGD9KaFIyl7f48HHbqWUuvyvHDoRfY3z7MLydG+dnFc4wvTGHWQ5q8LL6Q+MKrtpA2QKg1YRRVLdz6RgvPSzOBXWFIg4Gki21XYwsDXT3Vm0+93HXg3K3rTJZWKSdORwpAi/TApzBjabiv+vuWz4WwBNmAUGuypQoHmrt469ALvDp4kOGmNhozAYFNEjAEjsGNxEjIZQJaGvIUfB9VWkNZi68UEYbIWrxEp5pE6ruSWIixoCxzcYWzM7e5/cEMn4zf4J2jJznVNkADYJI6H084RyUvJEp6ZBt9enNFTrf18/HoZc6+/z7dXoGMkKDjJHfNdfFdjyNKUYhUqrq7xhM1S90F2iUb0qJjjWegs9hMV3PbJt6KgRliLozfYjEqE/sOLaxy4FNcvVWVX3fG1IP2DASxxZZCOnINvPHCEd4ZPMLx9h56cgUyUiWRGssGVL3XFE/sKhR5+/hpOgb7+eD2Vc7euc7k+ioiUFjPc1hhip+mmUAWEIJYCmLPEKJZ12tMjVzg2v27vLXnMG8fP8lQvhmdFnYJpy2yFgIUzUGO1vYeBnIFzrT1MdzYSsHzXfkHItnZV7MaV9iIwk3mzZPHUr5e2r3QYWwoqgy9uRba/GJV6lkcfjZeXmZsbZ6yZxGZIMkR3Cwh0y63MqnQSlPQnCloHZOljkoCZLt34z4zIFSCJ9ZL3yTrMa+hQ3scGzjCqQPHOd7Vx55iC03SJ4NbOBvAZHmVy7P3MLHm5eHDtJIhD3hCMdzURltjI0MNbRxv7+Oju9f5bPIO02sbqEIOPEUURSjluUKzWtcDtIRYuOYBJa0pLU8zd2mZK7P3ODN0kNf2H2Eg30TeOHswkC6JGKBJSrINzfQVGshqS1Yql+MohIt6RWXmyytsxCFWCtL9WW0Cqj8vTs7uwD44QLroZWjz8xSSbL3EpyAWljuLMyzGZSJPgCedVEwyB1KbJ2UybAJp282BQWFtdYN2W/dP2g+8NprknAlTOhWoGGho43fPvMUrh06wp72bBunjJxncZQTzlQ0uz01wdvwWF2fGiKKIW4tzvNy3n6PtfTRJlUA1AU0t3QwWmhhu62Kws4ezYyPcnJ9hrRKTUapuAyZbjVXbBCM11uIHkpKCsco6c/dvMr48z/jKHC/37+doRz/d+YYEZ3Sx6tQezwmFp2p3m5ZbLGysMb20QCkKsVlv8y5syX/PQ4+L3WHIJDG1oAIa/UzVUE/JWLg7PcG6jlzS6hac7GHTZLe8tj/mwU8245fuYRZVwKGWbvadaaM914A0rrwhFoJFE3F7aY4L90Y5N36L6wszzJsKcawZXz7H1ZkpTvft4/TAMHsaWmlQPoE1tPoBp7sG6Gpp41B7H+fHbvL53TvcXV9iXWtiX6BlUg2ZqGGRiHyNRSuQhQzroWa0tMzSyBfcmJnk1OB+Tg/tZ19LJ21elgK1ViubggMJ0xtgcXWFmaUFIqvRKNSz571taVcYMgVnC36GxsAx5FYvd3FlhRiDQLmu/ULUJCMPZ8qtJOpetQ2fUnxDVEPbVdWeHJsVks5M3kkra4iEoCQ14ysLXJi+z8d3b3BhYozJyhqh74MfoD3DSlhhZuIWl6fvc3Vxktf6DnC8q4++fIEigqxwtTq9gw282DXER20jvDt2jevzk8yE65SNY7y0xgVq6tS1dBFoJcFTTGvN9Nxdbq7OcnXxPmf6D3Cqc4i9LW20yIAA5/SkuKOom7lSucxGaaPObv0VHuQu0C4xpDOuA6XIKK9WqFWncrU1IFxL46pdmOQvpgqlluVsN3FpjQlF1RXaDO3YOoyjXp1XP60mZ0QWSkJyv7zK7eVZPrl1nbOjNxhdXWDdF8QZj1gCJnY1PRlFWUomShv89NoFbk1OcGbfQV7p38uh5k46M3lyWBqQ5LMNdBx7iUNDQ3w8coXzd29ye3memXCdDRFjfQ+UqjIkFmwMQihC67LKUQGTcYWF0avcmrjH9cH9vL73CCfah+gvNFGE2oK3BolECUFboYHexnaKy/No67LTo7pCsueFds+GTEVS4t+mxU86UStR7B5wbI1L3xdOdafxhqoDkzCsSVxvKVJmEg6GSX4XosZkJtndQCShQ5Oci6R1isESI4isZSGqMLK6wi/v3+D9kS+4vTjLhjDEBQ8thCupTfovpirWaI32JSUPrm3Mc+fCh3x+7xZvH3yBV3sPMpxvoCOTwQdaEbxcaOfES29xuneY925e4cO71xldm2c9tmgpQEissUlDUxDGOWXWGKy02EARKsm9uMz0yJd8du8O3zlyih/vO8WBpmZapEcO4RIwpCWD4GjPIN/XEeNhiQsz96kEgsomrOH5oF3MGLfEJtlqg812nwU8T1WxNqtU4gHWHbctPvGQRlHpt+qkYjXtX9ROUzP8BRtYZsMS7965yp9fOM+lhSnWfIstBG7/Z1OrhkoLzupJC7cHTSihouDzmXuMzUzxZdcNfnDkJb699yADfoaMgYyBnIIz3QPs6e7j2MQ+/unK53x2b5SZjRJR4BEp5TJxklzHdNcIkyDY2gOtFGVpWF5bZPrjn3Pn7hh/8OZ3eaW9n3YvIKscMO5ZKAjJS/3DzJuQuXd/wmh5hWxDQDks1+b3OaBdAsZdPmE5jqjoGI2rWZGyluldLBZRUrqOENYkPp+oPoztsEi7lTXq7MIHQos4pkylZqrSDRBhWdEhH8zd4r/83X9nIZdhLSsJBVRzq+vMg9RigO3hEiNAFDKsGstHEzeYmJ9FSM3vHTjp2kwn58oAnUh+1Lufl9r7+PDOdX7yxXkuL0wyF5UxvmuoapIUI5vAOAjj9tYBhCcQxYD1yPDR/Bjjf/cn/C8/+De83r2fduGRtxJPCpSAdjxebxtg8ujL/D+f/oK1xMTB1sb0rGlX4CdrHZQRGk3Z6GpT9zQEKIGWQgNZ4SGNJaqE6FhXGcul2Zut2RSb6VETKox7YWuZPHVfEwgia1iMyyzYkFIg0FkPAq8uTJTcCw8y+wP3KyC0mg00pYxgLYAlXXFxaYFrJpqcw8f14xkMcvz4wIv8r7/5+/ynt77PC81tZJfX8DdKqDgEq6v3kZbZpotMK4HOB5SLAXeiNf7LX/w3zk6NsoLGKuH2r9aWvIXhQiNvDx1kX3M7YnkNH4mUzwk3sksMqeMY4SnWdMhUaY3VOjBGCggEDDS3UzQS3wqCwHfN5x8yT/V8GWPR1i3xtIhLWJCxQRmLNNrFc5PtulItXs+XLqva2aFKuQckrOt2IY1FPthUt0rmIa9NkJRIO6O5cGgI3FtYYCoqsYxhzVpiYykAB3KN/Nv9p/k/fviH/OdXv8sAAdlKCFGEsC5X0hMCL20piItqxcYSa432PSY9zR+991MuTI+zGEVoIfCS/RwzwGBTM799+jXajUegH73Od5t2hSGFEEglWQ3LTJeXWLGlTZv+eAgOtPfTW2x1tdFbO75uQ65LmWt/7GKy9R60xTeCjFV4UiW7rlqs1g+kZQls8rekFzeiqr+ErTFjmgtZyxJ6MkoBaGcHwvWJu/zff/U/+MtL57hTWqUs3XUzAjqUx7HGNv7g5Lf433//f+JHh16kXwYUN2LyoSVrBBjtNvMUm+cqVoJy3uf68ix/ef4DRhZmCJWoaiNloc3L8nL7EC9092HWNhDG7g4j7IB2DYdEwoYOmVxZYGZ1kX2N+SpDKqDPy3O0o48ba3Msmxih5Lat6qDGfHEYJUByjRmFEGQQZC1QCSGXAWnxjEh6fKc2qdgmw0VUV0ASbKz6UpbNUNKWbtCPJWVd3Du2bveGVWX4bP4+752f5LPpu7y+7wine/bQlykmXdYse3MNNGQydJ3+Pq8PHeTDkctcnBpjtlQmSrBLrU2CMDh7WguQnse6bzk7eYfB8Rs0NzRwsNBIkCAMPtCbK/DG/qN8cm8UrZNUO/lk9/R10K7BPghBJGG2tMr00gI09iXmmVNBDQheGNzHhxM3mY+W0SrdeF1Uz1Ef7tJCsFAusao1ZUCJGgDf29zCt4+9SOWa4dbSlEss9HyM5xFJqq1Lqpu6VTFpJ6WstY5hkz/XP6R6UPlJHp7AaQJfuHh4WcKKL7gbrTE7foPRuSmu9ezhrX1HOdLTT6sIyCBotpKWpg4GCw0caejmvfsj/OPNL7i2POO2m6NWj2STzhfaukrJ6VLEB3dvcLCrh+5CgcYkYCuwNHoepwcO0dv0ESW9RvmJnujXR7uTXGEhxiA9wXx5jXsLM1QGXS4hJtlHEDjRO8S+jh7uT60T6xiUSCIYArRBJttbWCwm63NpdpwvV2doKBbwZFAFxXvyDfzmwZMMNrbx6cRNPr1zg/GNFSoZAYHC6MTKE+lurG6jIiOVS02zaY8eN/6qFBXbNxh9KNUEbhXHlwZUkvdlBcS+ZIGItZVZZjZWubk4w4v9e3l5zyGOtfXSJBR5BFkvR6G9h4ZikYwXEF07z5erM+DVUIaqzWosRkIlIxldnuHS9BjH2jrJ55uTfX0sgZB0Fps5PLyfOyMXnxs7cncYMlFvxlcshSVuz00yvbFMW67ZlaSi8C30FBp4Zd9Bbi5PU1qdByEJkyo7KSUy2ULGAjrwuLU6x19fOUe0UeGV3j30FxrICUlGeuwvtNC7t4mDXX0cbunjw4kRLk2PM1suEVY0Mu+egCYB6HEtWExSaiGxVWaqV9tb983eCVVTzqhFhRQCkQD/sSeJc4LxqML01B1Glue5sjDN24NH+K19RyiIAE+4UobhXBNvDB3i8twE15Znq8nN1L2n4zWeYDUMuTZ9j9GuIXrzzeTBedZWkpdwdPgA7968TMVotHw8gvB10y41ChAIKREYKlHInYUZLt6/Tf+BU+SlJAtgISPgzMB+rt69zeLaKrMmdpEcY1DSc9GaZLaNEJQ8wSd3brC6tMbdhVlODwxzqL2bzkyBHNAoJAeKbfQfb2N/bx8fjl7ls3uj3Fm7Ry40yKRXo2MUm/QlqcWRoeb8VI9LNfxjJIrgQQfIQhLp2UwuR1MQ+5JYwITeYHH0Kiszs7zeN0hXwcfDVQ1KoDVfoCVfxBeSUrIp03bDsbhCtrHFGUaWpjgxMExOuAYCwkIGycGOfjozRTbCVcJnbkHuWj6kg2aktVgpmVpf4f3bVzk2dJC9QcHtNy3dYPZkm/nuvheYWF5kdWHcdY3FhefSDc+rToyvKCvLl0uT3Fua4/LMXd7Ye4SXe4bZ09RCq+fCdRngTEs/wy91cLRzgE+yX2A3yi4rh8R0xBXdS+FKErR0sF9akVgfKNoa6dlKKcOmTlNVYlELldotx1f7SkqBUR6Rskyvr7AelrEFWw3yWZyt7EmJEgpZ12Rr27kXgrnSOrdX55gJV+kIWjEJTKYQ7Mk205NtYDJcZ93qZx6x2SUb0mKMg1eMUizrmItz9zg7dYP+wVOEiWOjcMzz8p6D3F2dZ+aLFW6vL1IOJEbKTVwhAGsNVinivGIu1Hx07yY3p+5zeWgf3z50gqOtvQw2NtOEQlnokBneHDzMkY5elhYWaMsW8LdgkqmtlzYCqEVmNj/2+kaoD9xvMsCtkeL6PkSuf6/LPq9G7IVwuzMIg5Zux9nQ6jpss96jcj3LPSmJ7cOZ0gjYMJrx5QUmlxY51NGKTurgfSFoQtCdLxKspDGvZ8uRuwP7WEBIhLBoDBvSMlnZ4IOrl3in6wgNmWy1PtrHbZ32naMvsmFC/uLix4yWl7GBh/J8NKbaFKDag1sIbEai/SyTYcjfj17is4lRTg/t51+deoPDuTY6M3kyCBqAllwjorexKsGiBHoU0uFxvrEYWcMj7aZO9TUyD3l2aUOBZDsJ12olhYyswQhXChFLF7FKDQcXkHKLN7YGYzy0SWqujUka7UuXSW+Tv2nSns/bkhEQe4qFconZ1VVMB4BLXJFKOAioqRVx32Jl4uiZ2gLZbdo9YDz52QiB9X1KnuDS1Dg/vfoZc9YQASQRkwzQowr8xtFX+J2X3mBP0EBDaAkM+FKhPJemhahtfKQFVIQmzCh0S54pGfGTK5/xf/7ZH/PHF97nyvoKMzomsmnnXdfyT1qLMJbAWPKhoVCOyIUWP7SIUGNjXZd1VAPHH0fSgB9bMpElX7EUjcKrs06d1HuEuk1VeKLi0xry+g93wi4WgZGScqyphGHyHNwWywqXqpYPfOdk7eB8XzftEkDvHkS6N7TGEgnBvAn5k3O/5OL6HBvWkCon3zpJNuTn+Z3Dr/A/f+u3OJHrQC6tY8MI6StiTBL1SLwMYfCUQClLaCIiTxA15bljS/zXj37G//Yn/xf/48an3Ao3WBOuoL+SXFNJaPED3uw9wB+8/A7NFUGubChILymUciSodcx4FFNKIDCQLWkGZYHvHzjJ68OHk53GHCnANwJvmxB9/XVgO5vTVmGpHcE1VhBFrgQWhMtPTaU34Ac+4jmJZz+bDrpCIJQiAiaiEn/8858w8KPfIxvkUG6fBDzrdjDo97L8cPgYA00d/OnFD/jo9jVmF1bIZAOMlNUKwhRkT91wI8B6EqsUQS7g7toaf/SLn3D56hV+4+SrnO7fS6ufcT1vgBySgWyR//jmDzhw/Bh/de4DLt8fw+oKYaCIfZWoaCeVN4sTV+utrGtSmo0trcLj9IHD/Pj4GU63DtDu+yhcHHsrDz3EIthykPtivde/UzLG7WRrrIvkOF60GBNjlY9Sz4t8fCbt+EgmQxMCIiv5fPwmf/SPf8t/fvvH7Ck0VAclcBuYtyqPU21ddL32A946dJy/vfgJ5+9cZ82XmHyGCmCRrijMJF3NpK169xUEIiNZ0JoPZm4z+t4sx/v38OaRE7zUM0y3yJDF9eVuD3zebh/k0NttXJi5yz9+cY4LU3dZ0DE6G2A8rxbrNgakxOoIG0d4oaFLZHm5b5jvHXyBF3oGac/mKUqPjHDJdDbxim3SLCqtrEhNzpqkShaXTLr+kuwoIeoiTULsLG3MgokMJta1doJWuDg/kAkyyXlEEi94dsz5TCRkFeIAIgWrOuTWxCTLscuVTBdrqroyQCAVxWITrdk8Q4U2zh04zHtXv2BkbopFYnTgY5DO865L57EkhfgeGCWIPUFoS8zfu87NhSku9+/lrX1HOdrZRwsBSkhahCBXKNI6cID+pjbOTdzmlzcvMzI3RSmOsYGPFpZYO/PClEKyseXFvr28c+gEZzoG2FdspjnI1G0kDzZRvqZ+g5O6e01YdvMHPEQiikd9uPkwYS2B55ENfNJMPveh619UroS1JvrPmJ5Z0/u6BQlC0NrSTF7WdkHY1B4umSyFoE35FFs76W1o4ERTD5+M3+T90SvcWJ5lTVhiL+kFlDzYtNwU4XDvtFdjaDUbq7PMjixxbfYer+w5wJt7j3Go2EMBV17a4mc43tZDV6GRwx09fHr3Judvj3BneY41oV1rk8iwt7mdtw+/yOmevRxq66TNz5JFVPuWR8JtMuKTgOVVD3yH8/RV5tm6FLpiJkNDLr/JNk3hrqXVVWLzfNTXPDOGtNYmGSqutfFAVw8NnofRBiMdQA216IirgTEEQhJYS97P0dU9SE9DEwPtHa4g//5tJtaXCaVImo3KmsRNBE9s4iQDWxIJy2q8wez8PcY3Frk+eY/Xeg7y2r5D9OaaCYRwDZ6yRTq78wwVWzjQ2sn58RtcHLuJtZYXDx7i1f5DnO4dpNsvklPSmQoIKsDUyiJjUxO0F4qc6B+oIg6ympj5aOtxK7j+JHObfl8ZaPAzNGZzta7B1iETEbC4sUZsnyhK//DxsnkRPemC2kWG3G5oSXcKa+lr7yDjeUkRl0ia3ltK1qClwBMu99FPoCFrDRkEewqNNBUOM9jczsH2Hj4fv8W16ftMrrttNqSviIyutkImYUYt3F40BG67tbGNFeaWlrk3P8etlSleGTjMid5h2n3X+7wByXCxmda9Bfa1d3CqvRcda07uO8xAsYMmIQi0k4gbQjBeWuXa7ASf3xphamaKt46c4HD/YDLhorqvjmDzpknVRqI27brxIHCP3XzcdtI2jcmrJDTbkS/SWWyq9ThPMNBlLFNrq8RVI5adc/52lAxWbPl5p87YrvWHrKdqQmySOKuEorO5iUBKVNrTG9ccaWR+hqn1Ffo7uxloaCVnLYFwFXhSQGAt7ULS2NzFUEMLxzr6OXdnhHPjN7m5OMtCqYz0JcJLGVPVMrpl4pFbp+rXpeVGaYnxaxe4NjvJ28vzvNw9zP7mdlr8LDkBgfRob+rmhaZOtDHkVAZIurgpmC2vM7Iwy8eTtzl7/xY3J8bJK5/jym1xUt0fbFMFW2Je2HRuUo1Q/3stkTitM7fVeuEts51KR0BoS0uQZW9zB33FJld+LEBIV0s0o0tMrC8RVcOyX+Ex2+2l45N0Vtt1lV2voWyyinNBQHO+4FrWAQi3i9ZyHHJ+7Cbv37jM/v37OT14gANtHXRlGihIWd1FQVmLJyy+8mnpGGRfcxdH+4Z4//qXnL97g5moxJrVjtGTHRRqqtxNlZEQJV3X1rVhY3aC+aVlxjrG+O7e47w6uI+uYmNtX23hEQtDbF0r5TkTMr60wMWJ23wyNsIXMxPMRGUiaQlyGdezHDDGNe3XWLQxGDS1gsan41UIKVAycfAqEb0tPRzq6KHZy9bt++gYcnRpmtlwnUjU4uXPknYf9km9GcAYV/aayWQoZrJ4JE3ccepkVUdMROt8vjjFZ1/Ocfb+db575BTf6jrI3sZmip6Pnzg7AvD///bO7DmO487zn8ysow807osACN4HSOokdViSLVsez+WN3Y3Y2X2ZP2rf92ki9m3C65hZR8x47fEpS6IOSiJFigRJECAIgrjPBvqqzNyHrKpuEAAJSiAJUfwxADS7q6uyqn71y/xd36+1BBjyXkhX3zGGOvsZ6u7n/ZGvuTQ/ySKaioUobnWsMxAkpboxCL4QiHyWpVKNS2O36CHL8bZuupuaY5D5mJ5YWEoYZtbW+Hj+Du9fv8SliVvM18qUPIUOPai6OnVP+g2edJx2TB+IbztPbhRrLdY4aOjAwrHePg529uA3HMni8CK/GrvBQlROiUqftjxVNthkCvJiIHZnvOrgABVdY1VXKfqWkqdZmptk8i9zXO8d4b0zr3K6Z5CubIEmqQixDjPIuLhGQSkOBHk6T7/By0On+c1XF/jg5hXurC6zFFUpSbBeHOS2TlEkAhFFZAzkqhHH2nr40dlTvHv0NAMFByFYs4aKtdQQLFar3Fpb5C83LvObrz/nTmmZWugUUSuFtAphXb5ZCIVD34ip5oV0P9usIcXGX9vLFh9bY7GmShBZejNNDHUP0Nfc5tbe8ewQCctKrcKV8RHKyqCF2ryjpyBPRSEb10oAnufSWe7Jdb8dL6HF2IiyqbIuPDLZgBkNv5+6xcd3bvHTl17jvaGznGjuoNMLyFlLaK1L91mHnyil4IQs0P/Sj/jR0dP82+ef8MHoMHdra6wLQQVDpCN85REgkeWIg0ETf3X6Vf7uxdc43NRKTsgYttlQwrBqLbeLq/xp9DL/fvE8o8tz6FxIlA/QcSjLaotE4CkfzwtitA2wsWIKIWOImSSN5zRLxvSsLn4oEo4mVxZHQ2Bc1gPjzupJki4kIwyhEDSVa/z49Gle3XeIFhyETdITv6ojvlq4w8jMBDSF7srvnpH+xvJULaSIsXyqkaZkq0TkUFisNXhCOCdHKlAS6XvUhEArxzxQ9uFfPv+IL4aH+emZ13j35Isca2mjRVhC66qGpHBKGWLJCUFTvouBH/6csydf5NeXP+XTW1eZL5dBCqTVNCuP146e4R9/9DPOhO20CIlnoIZhTQjKCKYqa3wyPsxvLn7OF5O3WfQNojVHJOrBbtf7XY9Au/K7RuSL3ReJideHhlBKzPIyQ52DvLN/iANN7SniXA0oAzOVMn8Z/ooVU6VqvRgg9unL08nUCOIpS4DW1KIqlWoFEzjAKefsWLJ+QCGTJfR8KkIikWn6JvIg7GzmTrnM//7893wwdpm/feEcPz16hsEg79BltUVJixAWFeesOxG829HPiXc6+PLwCf70xSfcnBjn0L5+/vbcD3i17ygdXoAvXGgmkrCGYI4an02O8OtLH3PxzigrJiJqDvFiSD2pTcMy0CljnVHQFY2krQtATFX77a9lnEN38VqDskYaQqQAAB7cSURBVAavrNmXbeYf3nyXV3sGaEakhcYWWLU1LpYm+XD0a6q+JLImjvs+/UXk08vUxFOPtRBFEeWo6gpNhSNHMhgyQUBbromc8lmNIoSMS81wTsGqrWKUxmtSDJcXWTz/R67euMl7Qy/y+pHjdKsQX4AfK4iHKwHLSEkos7T1H2OotYeFyhod2QI92TxtXoiizgq7iuHSvVH+cO1LPrlzk4naGusBVIwAz1ERS5vAvtTnPIFFWUOgIaMNobEpfqMCl3ffFUfG7UcCnjaE2tAaSf7h7Xd5o/cIXV5IGG+lcRZyqrjC77/6gnvlNYL2JqpaJ8mwXZFGW7uTUr1GeTIKabd6+uJgGIJyrcb04jzlQjc5qZBSIgzkhU93poWOTBOL5aU4eOu+bZKgsXJZGY3GaMP5mTFGF2f4cOxr3jl+hrcODtGKJMRCFOErVyltEQgvIN/cziHa8BAIYxBGY6RiGbi8cpe/XP+KixOj3F5ZYF6XKflgpIqvegwXmBTRYpFSOu5CBF4lohAJjra3cbSlCx9SEqMElhqRxBfdnTNxcayNIavTKvN4GVBHzRT16yDjcreqptt4/Pc3f8KPD71IT6bJnReu5K8KzFVKfDE5wpe3b6IzAVpbZIw2txuSQNUkOXzb8N5O5KmuIQEXc7SGe4tz1PoN1nNY3UI456QtV2BfvpWx5XlMVqXcg0KIuJPPWaZIwroPRmiKeoWpiSI35u9x9c4o7w69wMn2fnLSsREoVxvkUGfjDI7FTc/rFibWFnj/+mU+vHuD4cUpFnSFsoSaL9HpjRMNtYgCbQyelPhWIio1ssZysLWDN06f5IeDpznd0YNqSOmRWMhtblQapE49jXrWxsTVUo5DR2ArNXJGcKzQwX966Qe8d+AU+3MFMkKRrGQNglUbcWl+gt9evsB8rUIUJGwMgkfQme1vJdsExh9hH0+MnnhTTwqQEORqYRidnqR4skZH6JgCVRwk725p5XBPH1/cuYU2Lngt4oZ+SDhsXOZCWygr11ZaNhEra7PMjKxwbWGCt46c4dzhEwxm2yigCKkXwTowe8t0VOLi+AgfjXzN1Zm73K2sUpSGmifiFlFbHzz38eUIx/QVVmrsC5t4Zf8B3jh4ghe6DzBYaCdvhWtyi71wI+pKYBv2IQQP9Hadxx2Tj0Y1/JqhO8jyyuBB3jvxEq8NHGOfnyUXK5kGylhKWK4uTvPr6xe5OHeXcka5JAGCBiTYbyWN59KI7LHlBLmNPLGuw03SkFeqCbg5M8lMtE4/hTir5pqYurMFhjr76cu3MKrXkDE4diNGT/pXxNg5yoCylKWkpCvMzY5zu7jMtYVp3uw/ykv7DtKTKxDGgZLFapmrc5OcH7/OZ7evM7o0z7qEirJYT7naypTe2KaWOZmalAVZMfRkmjg50MfrfYd5ff9hjrR10iJD/AbNc6BTxAUg9buWoHSIOAl8v3VJ1niCBO/Roy/bTEd7G68PHOG1fUd4sXeAZjykdq2xDtjKUZjcWJzl19e+5C+3h1nyiLHN4z0KsfU9+gaSUEbb+17vVJ7ilJ3aBYznMV5c5crCJEdzbTSpACXcWqtFSoZaO3l1/2EmblzC95WDCiH9enzyIg4yO0tmbPzXV4hAMVJcYu7aJcZnZ7ixOMuJfYN05JtZr5S5OTnBl3ducmX2DrOVdUwmQ005SD0hbLwesmnszxpn2aW2qKqm08tytKOXswNHeXXwKCc79tHjZ8jilCc524QRYZEat5dmKdnIdR2mraw2tYDSaqS1BJ4fe+WWBLI6awQvdw/QEmbp6+rhZM8APSpHk41p7owD64+EixBcXZrl/13/kt/dusx0tYTJ+A5nctO92N07+032/PQUssEyWN9noVTl07ER3uo4RFchxMMiMWQwHCoUeOvQcT4eH+FOrYxQpCgLyfrIitjPiJ0Fp5zOr60ai8qGrBi4uDTNSHGRfVOjdLS2sra2xu3JuyyUithcSNSUIULEvTpuKrOOFCdFRxPa4BlL1kj68q2c7TvCjw8Oca7vMG1BhgDn2XuQ5s21EEQWFqIKH0+P8MnYNYqmivXdERptorQCZQW+VOTCTApXLeMG/4L0eHvgGD84cAKJAw/wYkuNBTxJBVjDcG1xjl8Nf87vRr/ibqWIDrzYmWzs9N5tlfzm8uQgnbfoRkpug5FgQ5/rkxPcOb7EYL4ZTykUhsBa2lXIqc4+3jlykn/98hOqTT7lhgKJhEQy9T4bm6ZjHPFIgFFglaRUqzIzdRtxb8zNWEphCiERLu1hknSiTfDKXVBHaI2IDE0aesM8x7p6efvoGd48doqDMk8hjvfJuGgk8WxLwrKiI+6uLHJl/i7/8sUHDC/PUPIFRmwMSNdZvgRN2RxZP4hx1OPpVWtCJKGQrlAjXkII4ripgJKABVPjysIU/375M/48do1JXaLmqzjpwOPRwG2m50dxmJ4Qto/dUiHdZ65lNGzKMb20yIXx6xxubiNfaEOhUEgCIRhsauPnp89xa3SMy6U5TM6jQsN8GEvaLrpF0NnGnxspQHqunVY4clCUxFeKSGtEAmyKWzNKLGiDqmla8Dje3MmPD5/mJ6de4XC+A6x2TF7EZWjWEBlDJAVF4G65yMWFCf7jymdcGL3BgqhhwoDIU0kv5oa6RmMMQghaC03kvDBtXYWGhIKMH0RTd44SRtrx9SJfLE3yy8/+zJf3HDVy5EustSjlIYTEPi4GBlG/1inQlqgr5cN8m6cf9sEpSc1oKtLywY2rDO07RGe+hS7pCH4kliYEQ82d/OO7P+N//uaXzFRrWM85BwDYzY37jflyEXu1NWsQym1ftY79VVvjuMW0JqrVUEKmOOTSGJd+jKA708xrh47z10PnONt5gDyOMhjjQBBkDPtSk4qicGSaN5anef/mV/zp6kVuFReRzU1olXGQ1jQY82RNF/eJ+0bSmm0ii4dAuywVgoTxKLnhWrlUYMUa1k3EwnqVX1z8gP+48jm3qytUcj74jjlNxdkYu0vV4VtJoyLClnbhgbInFBJASoXNhtwszvPnO18z2NpGc0uPWx8Jh7DQ4QW8O3CM1Z/9Pf/0+39jolLBZj2Mco6OTbI/Jm7uTzzxOB2ZvHZoZAlBkUUq6br7jJsqpRSgIzzpIUs12oXPGwPH+OsXz3F2/1HaCeN1osFHohVobalZ50wsW8NweYHf3fySP1y6wPjqAjYTIlsKaEQc/JZJedNGWBYLoRW0qpDTg4fx4kirbLAvUczlXRWwbi2rVjNWXeXDm1/x6wvnmauVWFOCWnM2pU6u59c3XpdExAPgWJ6k7BmF1FZjhaUWenw0cp3jXfvpa2mn2yoCYwmVIjSWgvL4q8EXMT+2/PMHf+TW+hKl0FkKK2zcNro5jJG0jTYyoaaAqNaCMSkimB9ZAiPwSjVe6D/Mz19+g7d6D9OnsmStRBntcMiFpKw1NWGpKUUVwbRe40/Dl/jdtc+5tjzNstBU8kEa87PGZUakFGyK1RmLtIIsHv3ZFl4+cASVIvu4cyohKEtH5zxVWuXrydtcGBvm8r3b3FqZwxSylEJBJGRaeZQQ1SdHe5ptrg+TPaGQRrh1k5QCFfpMl8r89qvP6fHz/OzIKcL06TZkUXRIxd8OnqEn28L//exDPpwcZV5pbKCoNUxHae9yAypDup5PFDMm+PSVQlqLqlQJ1ioM9fTz3utneWvgGAcLrbQonyyukxClsNZSNQ7sqoJlDsH7ty/zu6ufc2VqnMVaiZovqXmKqtVERqOkQMi4vEKAMC6tZ+LcmoqLNPLW41TnAINewVUtxY+QBmZ0mfdHrnJ+ZJiRxVmm1lZYispUfYHO+VgFUezkyYSLuXH9vleQSbeRPaGQED/JnnLoCqHPyPIc/3HzEu35PG/2DpKLUV+t1WSEpMMLeL17kPYfFhgcG+b3wxcZXZimIh0Fm/XclGi3WlxStxceEk+DLZbJGEFPkOUnb7/DOwdOcbiljb4w6+ohnfEFnPNQEYJ1HMjp5cVJfvXlx1yYHmOivEpRRESBRCqJkZbIgFB+Goi28RPRCH4qLC6cVNP0FZp588RJmpAoEudDUENwdeYuv/76Ahcmb7MWCKqBJMp6aGvqiBSxDkpr07ni8a0ad1eeDMb4Tla28TpPxsUCK0Lz6cRIDNIpOds7QJsFIoOQgoxyxa+nW7toPZ7lVEcvlyfHuDZ9h7GlWabLq1SEoaw1COXgQkQDYIh1nnPGKjqDHP3t3ZzqHeTlg4c50dHLvpxD481ADIPsFFgLKAHzRnOjuMCnN6/ywcgVxtYXWNBVKgq0VK5oAlw1UJxTTsIirqkhDuNYi9CubCyoaTpUyAv7BnmxZ4Cc2wKDRGNZJuLi5Cgjq/OsBoJa4BEpgREWbWSaQnWrzY1cJumEvU1ecq/YzSdmIR+qlEkS18bN9R7M1aqcnxgBK7FC8FrPAE3SMQB6FnwBzVaQyxXYl8ky1NbF7cGj3CrOc3N5ismleWYXF6lqQy2K0DpyRRW+Ty7MUMjm2Vdo52jHPg42dXCouY2+1jby1PmnBW59V7GGCChhGSsu8dGtG3w8cYsrsxNMlVfRGUXkyxQhN/GFBc67rVsopy4JKqQSDjg0YwQFozjV1csPT75Ahx8SxMUYFavRQjG6MstXU7eZqhWphR5GKgz14t80uG7TcP6Go34XZE9M2SmNsKin2FDOOZmJynw4eYOq1ayefJkfHDhGa2xfPBv/AJ5UZJpa6G5q4YTpZ7ZyiLniMutr61QjQzmqUNM1hJBklE9TmKEpzNKWL9CVb6GgAkLriCodiRJxcNvlnosC7pZWuDw9zifjN7hwe5TJcpFVoSHruXVwQ9ytUTbAqcSm1oKjCMHRhWQ0HC508N6R07zcNUBIwn8t0EKwjODDsevcWJxm1dRcD4xoYM7d6rru7m16IrI3FBLqdY6xsyERGGmp+oIpXeb9O8OsltZZjSJe7xtkfyZPLlaeJCwS4qg38tKnK9uOybSiOmWMr+iKfgWgrESZOM4oBCoucoiMqy531TRuXDVgqlLi6vwUH9+5ySd3r3NzcZZFXYNM6DoUk8qj5Hwsm9eHNDhUsXWURuMj8KqGvkwr7x45zbsHhugRQdoh6LgYPYZXZ/nw9jDT1RLa9xyKGRt2+kzInlBIAc5qiJiMsz57O4QJJVg2mi+mx1lcW2Pi+Ble6xvkRFcvHUGGAIvC0fkG8XSYtEqJOAPibKqb7h0nt3FhFiFcDDSOYWqjEcpF/UpYbs5OcX5ylA/Gr/PV7F1mdZlK4GEzGWcVtUnHm8im7pTkfNIC2xiOGUG2Zuj3cvz00BB/ffwlDja1OYJOkqUCzNkafxi5yPXlGUoS8D2SaX/HdV3fEdkbCtlwXVOlbLQ4AowvKUrJlZVpxi/M8cWdfn5y8gVe7t5PX0sLzX5ADhFPua4qRmOxsl5jDXH+O+akRrpsejLVCul6XqRwoFRla/hy/Cb/dvE819YXKOcCbDbEWhNb8TgPDtgY0UySWMRY9eKlCNaiI42npKtkijR5FH3ZJn528Aw/P/EqQy2dZHGW2+AC36vCcnH6Ln8ZvsJcVKXm3cdwthdaBXdR9oRCQt1KJp5owm+dSCQsWljCliyrtYjzkzcZuTfOK4eOcu7kEEfb99EdFGgPQpqVTyicZyptkjJLZreEf9pZzoSuWOAawXwZ5xVjvMjDvX2cXDjAyqRlMiqxUotc8F3J9CESuGoeG5v5pHcmHb5wCqokiKomKz0yVc3Rtjb+5sxZfnrgDAezzYTWjcFa9+CsYLixXuQX5//M3fVVoviYSarx2VJFJ3tGIW3jC9GQ56WeWRDWULFVpDDYnM89Y5geu8IH924y0NHNyb5BTvbs52hzN/uDZvJSEirlbrKoa7jGEhnjoEyMq35p9kOaPR/XNa1j/G3Duf7D7Ovs5vjNK/z22kUuzk8yb2tYEdSdF0HaRGhIoJYbmLxdvTCBBr8KXX7Ay/sH+a/n3uKl9n7apE+Iq9YxxmKFIJKWu6Uiv7j8ER9N3qKSlVhRh49xEIN7I923m7JnFDKRmHXNScPay1qL1RGepxCewipBBYvMepQizezcJFfuTVCwHt1Bjr5sC32t7fR3dZHxAzKZDGEQOhLQaonF1RWWV1dYWVohJz1+9MJZ3j40RJtw8TwPS4CHh6A/bOLnp9/gxKHj/Gn0Cn+6cpHx+VmqwhVmRBJ0qFzIR7jqJRkZhHbc1koIMkg6/BynDh/mvVfO8mr7AXqkTw5NEC9PrIRICkpY7pXW+M3VL/jlR3+k1JKlbKqImnDVOmqLzNMzIntGIesB67TQyv1OrZAAGQAO99HEkK/aWleIGygiz7JiLOu2xN31MmptGj32VbreS7IjCdSziafprFXcKK6gg5B3B47SjI+fDMc6iJZ2IXgh18bhobf5z4dfYXjuLtfGR7lxd5yl6jrT60VKJiLCYI3BF4qsCmjP5TnY2cuJvgFeOHCEnmwTXUGBUAgCIjwMDsRFESEoAeOlIv9n+HP++fzvqBVCasoglbtVyfiTSPezpIywhxQykZ34jPeXT6XxS+X6VKoN+1H57Nb7SH5bqBm4UVnmf/32V6y89R5/f/xF2uL1pRICZR3op4cgJwRtmTyDfUd4p/sAS69EzNsKs+VVKkI7NDSj8aVHs5+jXWVpkT55T9GqfDJCooRrt0W6bSMcSGsJxdXFGf710nl+c/0Sc0oTxU5MoniNHrzYcC7Phuw5hfy20si+ev8rSOpm4jWedWu+khDgG25WV/mnT37P+MIM/+XsOwwEWXLakkkdFRfi8QX40iMfejQDveSp5lpcg5l1ISdPQCBU2hetsASIGComTvFpg5AekVDME/Hp1Ai/+vITPr1zk1VhMaGfVuw0ns2zFejZKM+cQiaSOEL31/4lS4AkWG2tYxerKEHkW25VV1j9+jMmlhf56fEznOs7RFeYjWOdcRDegjLGgQII56wI5ZEUJble5xRLIM0jW1xhRiQsWoLEpyIEI0uzvH/rCn8cu8bXK7OsePEULQQ8rsruPSrfWYVMim4fVtuXfr7xT6ooCQyfiUMpZQ/uRVX+ODHMxNoCF++Nce7AEYa6B+gOHD1dgPN0tdEunBPXc6dpvNihT0JZCVWcK4QQrKMoCctEcZ6v741zYfwGV2buMlEpsiw1xnOlcCnS8Ibz2Z3rt1flO6uQO3Yv77uByZSXrsnSCiAX1o4k1AJB1RourUwxsbbA8NwEZ7r6OdHVx6HOHvqa22hVIZ5xyoyIWyAg5ZJJqfTi6rfEYVk0FUbmprkxNcmVmduMLE0zUVxiVWiqgaQWN32ZNDGwVyiNnox8dxXyG0jiCjVElTb8tTHQgLYW4UuqyjJTKVGcGWds/h6fTbRwoLOHQ5376Mu30Z4r0FookAkCmvzwPuBRQ01r1qsVVkslVkolZtaLjBbnGZ2dYmx2ivnKGuvCUFU468lGi/ggxtm9KDb+leBWbuhpYmdr3++NQrrszOb3NxKsu4WlEhZrNNqC9STlQDIVRdxbnOLK0gwtd0ZozzXRkW+mu6Wd1lye5kwuzT9bBJFxiG6rpXUWikUW1teYXS8yu1akhCYSFi8bOMB9q9OAelry9mQuy+5K4xKjAQ1jp8oID1VIEaMouAh1UgHzWORx7fhBtVl28yYyzs1Z7cg9iXtl8DyslFStpWSrTC/NIeam8a0glDJOORKX0Tnwqchot3YUoJVEex6EAVopajoisrrh4A18jTsY/l6VZN0sGn4eBZLvgQophMD3vHo1S1xE23Avd02sfTyX/v5pI52u7TaWKK4dEzHmtonnIQEI6aqAtMX1xoQ+xjo2g/uDMw5P3F1eE3s5FjA2wuoEku/+Y7sjfdeUMJHGJZAgBlI1LnO106XHjqZs8yg2dw/Lo/Cl3C8bVG7T9Xi0C/RtxrGXZYvna+N/dhBEfSiwdB0+botG/KS06rk8F2I9sTimWymIhN2MgPYQS/lQhUwp+RLFpO4gfFenlufyeCR1yhpmAI3dqulzW9lWIQWQ8Tx6W9rxahZfeo8EPPlcvl+SgO9npKItX0Ai0ZF2KCFS7MD0OXmgQmY9n8G2LmS5BtqitU4B55PlwHcpTvZcHp8IQGhDxkg6cgUyUuFJp14ySVvtwKA9UCHzfsCx7n56sgVELarnZMVzZXwuG0VYCKykNcjS3dSCryEQ0kUSXGByR/t58JQtFQdzrRzr7sOWKyghNuRSxRY/z+X7Ji5QpaylSUh6gxydfhZbrsUQMEmCf2fW64EKGSLo9EPePHaSXFx2pUQM0WHr2wni3mOeK+ezLFaITVDQQliUBM9ouryAU21ddOFBrYq2jkA88H1HHdiASLedPFAhPSzNyuPNg8c53t1LWIvwtYk5l9MS103fe66Qz6Y4W5hm2pEypliJInIG9uebOd7SSbN21H5J01smzOwYce3BCmmhSUiONHfwN2fO0aN9sjWDl4IY1YGMtEjwvu8LIj+XZ0ZEQx4pea20ISzX6AvyHO/cR3uQRUXaOTRS4HkemUzGkWFJ8VDFfKAzLoUgEJKClPzs6Ev8cP8xOvAItEFZi4yhmpOgefLzXCGfTXFV9qahSNniVzW9KssLHX0cbe/Bj02Vy5YKcvkc+XwepXZGf/zw6JB12DP7VRP/7dwPealrPx3WI9Suglq6suuGqVo8+1Wk30NxM6HLkggsymiyNUOn9Xixs59XevbTIX1EzeEnmRh3s621lTAMv/2UnW4g3XqgCXixbT//442f8HLXAVqtRwb3mTIWaeKGKOHQYYXcCBT6XL7b4mpFNQiDtJqgpmmtGF7tHuSt/cc5mGklHwkC6bqIrDEopejq6t6xdYQdFldIIIxfn+s6hP92QPjpH/hobJhlq1Gej46PqdEuoyOTOmybItk+l++qWNc7pHzseol8FTqN4vX9R3it/yiDQYFc1eLp2LOISaY6OzvJZHbu0AAIu6UfXl8FuiprmaIlREARGK+u8KsvPuTfL11golqi4kvwFfgekdVUrUGLOgbi96sQ/9kTaTWiGhEWS7zc3sePjpziWFsPrVqSrRq8yCCs4zvXWPLZDMePHycX5h7pODtUyEQl3btlayljmSwX+fjuLT4cG2Z0borphXkqOCSHSFrneQuZQhhvL9sBDn/TANKjAhh/3wJVO7g+DYUS0kJGCAY7OznZuY8X2vYx4OfJRwKvHKG0TqfaCEsQBvT37aOrqxM/BnfYqWyjkA8dKxooWcvU+goj81NMLMyysLLM3YVZFkpFVivrlI3Geh4aibFyQy/Lxtu/+QKJLbbceU/X9hd8631sPM5OVPNhY9mNfTy+sWy+PhvJ5x36XNbzaM0VaM8X6Mjl2ZdvoSAVzfhkDHjG8T0mOJvWWoIgoKenh67uLsfoK3e+foRvqJDuBNxPzRiW1ovcnZtmZnGB1ahMJKFsNVWj0UKghYcRqg7iuWWB6sZgUcIruOHTTV+SjZ827Ndum2jfHJLa/HhsLrnf/GBY8WArs5Mi3J2U8D2s/H/r67KDsdw3ftNwzZLKHR9BVnnkpE8OSUbHSmhdCCghBCVu2c3n8/T29tLa2oqnPMf/84jyjRWyUWpaUyyvM7+8xNTsNJWohpF1Aksr1CZOv812r/Hv1mvOByvS/cX/W0dDN1R9b1NPt+Gdbbax4sHR1r1tITd/a1PGLSYgUMbiGRdJ8axANsDYGO2YH4IgoNDcTHt7B02FAp7nfWNH9lsrZIpMBpQrFZZXl1leXma9VKJcqaTN81v3iiSfNFi2emHbNlunQ2/YZmNSa6utN32SfnXjsTY90w9QyO3A8B5lRfogtd6pfXnQPnY6lq324Sq6LNK42cdTcsNd9H2fXC5Pc3OBQqFAmM2ipJ8e8KkqpETEimkplUqUSiXWimtUKhUq1QqRMQ77MD1c/RLUh508fWLzPCTq36q/sVEhN2zwAAu2Ydf3KVz6aoMp3eLCPkQh7xvs1vKQKVvscB8P2mxHYxFbUvlshKOxFl95+J6H7/uxMrosTCaTQSkvLTP7NiG+XZmybUP1j/u/g3SqRTWqlQqVapVIa6ytU1jEW6Z/U/qzdCpNh1jfesN53n/SNv56w0C2pESmUY8b/tOglBu+ts2E9xBt2Umt6I7oe3ZhP5v3cd903aCQGy9xnanWhe8Uge8TBiG+7xMEAVJutxT7ZrLrCmljQHmBrGdqRDIx1725+6fXTSdyf6hoBw5AXUcesOW2+9lOITd/vhPk2p1Yt11RyEe6LumRN43DxAeS8ccpPjrunjnc940DFmxWxqeukMkTJDa+Ub+QQsQk487Baaxm39HON4z2G3znftn73sbu7+Nh+xGxl71hPd/odsb/bH17t63asN1uKOSuQKkkT7pDfeC+eIZN12nJgHc86G9ydt/2iuzWPnZrP09oLHLTRlsompCAg7G2MZLJro0vOdauWEi2ULTGve7yoJ/LY5bkhja+tYWaPI76hMcHNvVcCb+78hTv3bdWyMdgtZ/L91gePbfzXJ7LY5TvDT7kc/l28qTqWZ9byOeyp+S5Qj6XPSX/HzgtDr5dV2DvAAAAAElFTkSuQmCC;" vertex="1" parent="1">
          <mxGeometry x="608.1999999999999" y="78.75" width="32.7" height="32.5" as="geometry" />
        </mxCell>
        <mxCell id="XqwRq8SYC38xC89JIGz4-77" style="rounded=0;orthogonalLoop=1;jettySize=auto;html=1;exitX=0;exitY=1;exitDx=0;exitDy=0;entryX=0.25;entryY=0;entryDx=0;entryDy=0;" edge="1" parent="1" source="XqwRq8SYC38xC89JIGz4-102" target="XqwRq8SYC38xC89JIGz4-56">
          <mxGeometry relative="1" as="geometry" />
        </mxCell>
        <mxCell id="XqwRq8SYC38xC89JIGz4-81" value="Alert ID" style="edgeLabel;html=1;align=center;verticalAlign=middle;resizable=0;points=[];" vertex="1" connectable="0" parent="XqwRq8SYC38xC89JIGz4-77">
          <mxGeometry x="-0.8265" relative="1" as="geometry">
            <mxPoint x="-21" y="10" as="offset" />
          </mxGeometry>
        </mxCell>
        <mxCell id="XqwRq8SYC38xC89JIGz4-79" style="rounded=0;orthogonalLoop=1;jettySize=auto;html=1;exitX=0;exitY=1;exitDx=0;exitDy=0;entryX=0.25;entryY=0;entryDx=0;entryDy=0;" edge="1" parent="1" source="XqwRq8SYC38xC89JIGz4-103" target="XqwRq8SYC38xC89JIGz4-57">
          <mxGeometry relative="1" as="geometry" />
        </mxCell>
        <mxCell id="XqwRq8SYC38xC89JIGz4-83" value="Alert ID" style="edgeLabel;html=1;align=center;verticalAlign=middle;resizable=0;points=[];" vertex="1" connectable="0" parent="XqwRq8SYC38xC89JIGz4-79">
          <mxGeometry x="-0.8345" y="1" relative="1" as="geometry">
            <mxPoint x="-22" y="9" as="offset" />
          </mxGeometry>
        </mxCell>
        <mxCell id="XqwRq8SYC38xC89JIGz4-76" value="" style="text;html=1;strokeColor=none;fillColor=#d5e8d4;align=center;verticalAlign=middle;whiteSpace=wrap;rounded=0;labelBackgroundColor=none;" vertex="1" parent="1">
          <mxGeometry x="550" y="-160" width="730" height="30" as="geometry" />
        </mxCell>
        <mxCell id="XqwRq8SYC38xC89JIGz4-85" value="" style="shape=image;verticalLabelPosition=bottom;labelBackgroundColor=default;verticalAlign=top;aspect=fixed;imageAspect=0;image=https://adatis.co.uk/wp-content/uploads/CogSearchIcon-1.png;" vertex="1" parent="1">
          <mxGeometry x="529.1" y="290" width="80" height="80" as="geometry" />
        </mxCell>
        <mxCell id="XqwRq8SYC38xC89JIGz4-87" value="" style="shape=image;verticalLabelPosition=bottom;labelBackgroundColor=default;verticalAlign=top;aspect=fixed;imageAspect=0;image=https://azureplayer.net/wp-content/uploads/2020/01/azure-cosmos-db.png;" vertex="1" parent="1">
          <mxGeometry x="994" y="300" width="59.83" height="60" as="geometry" />
        </mxCell>
        <mxCell id="XqwRq8SYC38xC89JIGz4-97" style="rounded=0;orthogonalLoop=1;jettySize=auto;html=1;exitX=1;exitY=0.5;exitDx=0;exitDy=0;entryX=0;entryY=0.5;entryDx=0;entryDy=0;strokeColor=default;" edge="1" parent="1" source="XqwRq8SYC38xC89JIGz4-89" target="XqwRq8SYC38xC89JIGz4-85">
          <mxGeometry relative="1" as="geometry" />
        </mxCell>
        <mxCell id="XqwRq8SYC38xC89JIGz4-89" value="Question generation" style="text;html=1;strokeColor=none;fillColor=none;align=center;verticalAlign=middle;whiteSpace=wrap;rounded=0;fontSize=14;fontStyle=1" vertex="1" parent="1">
          <mxGeometry x="240.34999999999997" y="275" width="146.62" height="20" as="geometry" />
        </mxCell>
        <mxCell id="XqwRq8SYC38xC89JIGz4-90" value="" style="shape=image;verticalLabelPosition=bottom;labelBackgroundColor=default;verticalAlign=top;aspect=fixed;imageAspect=0;image=data:image/png,iVBORw0KGgoAAAANSUhEUgAAAKQAAACjCAYAAAAEsLX5AAAABHNCSVQICAgIfAhkiAAAABl0RVh0U29mdHdhcmUAZ25vbWUtc2NyZWVuc2hvdO8Dvz4AAAAmdEVYdENyZWF0aW9uIFRpbWUAZG9tIDI4IG1haSAyMDIzIDE4OjA5OjIyLAcHeAAAIABJREFUeJzsvdmTHEd+5/lx94jIs+77RuE+SYAgwaubZN8taUYjjUYak83YmO3DmK3ty77ty9r+B/syb2v7NCvTw0izI2l1tlpqdZNsHiBAEiBxFoACCijUfV+ZGRHuvg8ekZlVKACFJlgApf6RiayqjIzw8Pj57/j+DhfWWsuvQDZ5AYjkVf2g/r2exDZ/2/R5/VkBu+nMT4e2XmM7snJ3rvN10ZOMP5leg9n2o0fP/tN/Pt6v+sUHhrJ17ncyTrF1ErY8RPGYG34ajPMvlbZMq6Q2l+4ppP/VDhd8/fP9KzPkV6ftpMcOJIr9iivyq37/ebvO10Zu/Lbu9924I/GrquxNZHHjt2CMQaq61WYsCBBiu9vZeumtam47Cbnl9ycZ/ZPM6FedlWfNjzsc/3brZusTALDWIrd9hk+XvrKEtNZirMUi3ICFIMZW15MRAOIh87PdDYrHfL6DUzwNetYM9VXpCcafioHtlr+iKmuqx3yd9JUZ0liLtgYrJBqBlY4hNWCwWCG2MZcfRt90LvhmUvp8UoaU27yUEHg4Bv066VdiyFTaGSAWECKIsKyGGyxtrLG0tsq6iQm1RiPQFuwjme0ZeaO/JmAzWiKtY8BACDKeRzYIaMjnacnmaQvyBDimlDzEx64/2a9AO2bI1N8SifqNgRBYtobp0hr3lxe4uzTN/fkZ7kxPsB6HVOKIWICxElu9he1o5zJ0BwN9ND0N2Oexk51c47Fjedx5+BXPsc34d3geaUBi8aUkH2RoKhZpb2mlt7GNwx399DY00ZstkhcChWMgiTPd3GlE7Xp1P+5o2DyBU2MwVZaMEaxbw1Rpg8tL05yduMXFOze5vzjLehxSthojBUiwViCUQoiHMeTTw+tEerrHHLQjnn0MPc6J3slYduKI79ZY6o8V1iFuMpksAWSFYk9HD6/sOcR3uvexv7mVZj9DTkg8YRHGABYlvAcM0u3EzcMAvSdiSA1UgBWjubm6zC+uf8nPr15gdG2BMKvQniASIHwPLWoSwvk1T8c+fOjk29rEP9Y4eNwDfOyMWOxjDhI7APV3jSF3+IS3fGvT94UFyprcRsjx5i5+6/TrvDm4n958I3kpyGDxkUgrvmaGrLMJSsCC0XwyP8Z/P/8+n9y9xZq0kAnQUhCaGKRzYowAYdyXlRAPgX12TpanB+096oZ3dokEOn7k4thZFOOrj+Xpnqd6PrvZ5BCA1ZCxIDbKtKH44YmX+e1jr3KspYsWIcluHUzdhR/lyW8a644YUkAErAB/P3aJP/rgH7i6PseyL4ikxPcCpBRUwhAhnKcNzkBO7u6paOWnwZDpAn4UycccYHciIRGJlPy6x7IzCfmkU7e9AJHEOsITkiISf2mVd/Yf4w9f/g4vdw7RAARsa8HumB7v1AgncleAc9Nj/Okn73NjY5ENTzo7UQkiNBgeYEQj3M9CiK+ssZ+WH27FDkLqOznR4/weKx4b23hqY9mBDfl0lIvBUw74KVmDbSrw4fgohUyB7MmAF9t6nIeeHG2t3TwHOxjEYxnSAmUsd8N1/t8Pfs7I8izLShCq2sqsSmghHljRKVPucDxfO0n7aMn0OIkENVv1YZJppxLpeRrLk5AVoBGUJBgJH94aodHLU3jpDQ4VmxDGIKVCiS03twNk/ZEMaUmkozH85YWzfDJ7jwVliJRMYCBbveH6962T/DSkW1X7P8apedzkWx5u5Ist7zse1Dbn2ZEzsltj2ek5HnN6k5wofdZKSPAli+WYj+6M0FVoYODUqxSkXwszpjf4gPTa/joPVTwWZzcuG83VhWneG/mSJd9S8SVaCKyoqecUTJWPYQr7FV7pPT3q85TEY14PO+ZJvv+o457GeXZ7LDu5jhU1M0MAxliMEIQZxf3KKuduX+fz0Rus69gdbx/2hLb/EzxCQqYMuRhHfDh6nTtL81QaA2fMC5swvkj/rw540wQ8bVX9CPUjkgMeZ+DbHXhGj3NYkoMe/fFTuuunZjs/hXPUT0uCM6CFwSiBVIZ764ucv3eLrsYmDja1UczksAmmuflED7/GQxnS4GzH++EGn4yOUPYEodVY6bLi0qSJh13jaamKred8PNkdTP7jmOlxZ9jZ3T1NU+VZnwM237EFhASdsGbkwYKuMLI4zYG5SZqsINfWifRceoYQ6ZcefY1Hqux1HXNjdY4b81OYjMLKusNFTYQ/6gaeNlP+mp4dVQHyhOoVshawqkPGN5YZX1tiZnWJpZUlDNYl2exwWTySITeikJuzEyzoMrEUIJ+MvbazZX5N/zzJCKgIw2JUYmZ9mXUdMjk/SxiHTyShH4mmleOIyeUF4kCCrzC2Lghkt7z/mv5Fk8Vlfq3piPnSGhUL88vLLK2uYs0WPPIR9Ggv22iWSmtEErQx1YCLoOZVPyqH59f0L4esACMFkYS1KERLMBZmZ2Ywsan52o8RYI+UkMYYSqWyu6C1yDqPOmXKXzPjr8mRAKGwUhEndqMUgvX1DSphhVjvDHJ5JDAuAGUt0lg863IgN4GjdZjnc1vTlOY2PlDhuFtUb0WbTWMxD8zZk09kPbz2rEmIJLqkDTbWKCmplEqsb2yQz+ZAeI91tB8fOrQPF6NV8P05Y8b6h1Rlw4ck3Yq646WVYA2IOnOk7mGbhF9c5t/mhWgeOKfAWlGLWonnh3G+NhLufo0xCGNRCPA81lZXaW5qRluBpwRKPlwx7yiWnU52faREJOr7ITj8MyKXYSNJhFDCbYYkwiAEwlisNS7wLyVSKmRs0eUIG7vEAF9BBgikhy8kAtDWEFpDaDQhlhD3OxmPTD7HRhgB4Cm/mpQuEOgkM6g+keLhj8M+nmu/juYJT4keNqowCsFalJSPTbLZUbZPOgebwnhb3p8rSiM6iX6o5oxaiyclHhIbx+j1Ciq2NAY5Ohs66W5uo6e9lZaGAvnApzGTIyczKKuI0GzoCmthiaX1dSbn55lZXmBqeZ6llRJxHOHlslg0Lg1UYoWrxHTXdzMl63SWtE86fw+q9OeTNTdTNcNxSzBlO3riIq+taP3zRNUFI2oq1YhaOFEYEDpCVGKa8Ohr7ORARx+HuwcYbO6gLZunMZvDC3wCKQmUwhcKgURjiKwm1JpyHLFRKrNWKTFVXmZ8aZ6Ld29xZ36amY01Ql9hvIA4GYSwFsn23CfTgZMM/JFUJxmo//F5exK/Ov3KDPk8TkH92GzVkLQoa/EMBNpSMILhtl5O9e3lRMcA+5ra6WtsptnPEuDUfSrE0lci27DCw3pgPCDbhMGyTsxyuczLnXu4tjTBhYlbXJq4x1ylQqgUEZKYWny8qlmsdUmwD8TnHxeMrx1jLY9X8c+M6vGYncvxZ9hK5eujNNFC4mxdLzJkShGH2ns51buXF3uHOdrZR0+ukaKV5KSrOa5Pnq+fzk2PXIhqYgEIcvg0Z326ehs43N3Lic4BPm8f5fP7d7g6O8VUZQ2bUdjARxv9oNEtEsZ6kpurk5DPH9Ut5UQyWGOqnS8eN+R/dgzp8FGLtOALgQxDGrXkRN8w39t/klf3HKYv10iDlQ7SAnyoq7KwhDiHpLq2bc1027zunSeZniMvs3S2D3GguZMjnYO8f/sqH90b4dbqHJGUIC06Yai0RMDWn3SnjPlcMmId2fpZcgB5vSP8KPpGMeTOBIMTOcoYchrabYaXh/fxr06+wYnmAZqkT5ak9iOZIWtBW4gEaCFZQROhibXGGIO1BiEEnlIEwiODIouTqtWoFVTrlDu9HGd699LV0kZPaxv/eOUzRhZnWFYa66lk/C6ndJPA3NrtbVvRWfvcPnQ2njM1/gS44DeGIat2IQ9mnNRu18k1ZSHQhi6V44cHTvB7r79Nn2wgj0ThGMel4ddisBtWs7CxwWK5xP1ojRVbYaVcohRW0CbCU4qGbJ6mTIFWmaM7U6Qlk6Ulk8OnxpQ2OX8By75sI837T9LX0MJfXviIj+7fYimKkFIihMIq8dBnVYPXRIJ72k3+THK7D2HK54whn4C+MQy5HdVHOoR1he0ZJHkD3V6WHx0+xX888x3a8chiUdaAkGhc140Qy0oUMlcpcXdtiatjo9yYuMfdlTlWdchaVKYSVTDWFTflM1ka/RztuSL723vZ39XP4b5hOoMMTdk8eSHJ4CY1ayW+NWS8DA39B2hpaMT87G+4cHcUFShUECBRm0wDi3C9kowhMpoYS6SgbGMikQDzUoGUaCwp1PrPib6RDJkyYlW6JFEVz1r8MKJb5vjtQ6f5D2e+TwuQsRpfKCKtQVkqQrBiNOOVVc5P3ub9kUuMTI4zv7FKLEFkfLQAmwEyGSetrGUJzVS8xo3FFT6aHCN/STHQ1sFLew/xoyNn2JtvoM0LKAqBL0AKiYezL083dNP4nd/hz//h7xDFAk0tLXS0t5ELMnhCoKTAWks5ClleW2VudZn5jVXuLM0wtjzHkokoYRFZhfUVxhjX+lAIpBF1WsPUwrsYx+j1kvR5C6ttoW8kQ8KD8yotiPWQJnzePnaM33/1O7QCHpqMcKWb0lOUgGUsn0yM8jcXPuLs2A3mRIRtyEJbnlJYQWxt8WVTSzEhXyIyHkYorq4tcufc+5z/4gI/fPEVfvPoyww3tFDAMaJKF4uUnGzp4NAf/CeXE0AtOSXtKpZGxeLkVcIyQ5mbS/e5cGuEL8dGuTM7w9LqBl7GRwQesZBsG/4QZrN9+g2hbxxD2i1qWiRGpLTQqgLe3neMf/PKt2hFkQUEihioxJpQSW5R4v/77CP+6dJ5JkvLRDkf6eWJpAtxSU/x8N4JTrlKKZBSYowF3yP2FPfiMn967j1Gx+7yO6ff5NWhvbR7QTVDKu0Y5gEVNBaBQiISwFzU5VQb4WRbHkEDWQabhvnWi4MsnKhwdWqcX167yEd3Rri/voHKZ4ilwlSZ0mCkqZ4rhWOfb7lYo28cQ9aTsE4CCQvZ2HKiZw/fO/AC+zONNOJChdpqkB6hUoyGK/zx2Z/z7uhl5m2Zcl5R0THWaKRwjBj4PmEYPvK6xliEcD0xpZToOEZYy0a5zPziAstrq0SxdrNb53UJDApJDoh1hJK+a8KVrqoHPGjIIMAqhKfowKezdz9H2vp59chJfnbjc87dGWE5jgk9SSwhlomcFYCVNVjpG8KU3ziGTOu+hXU9g3wrkKGmN9PAGwMHONM9SKOQToVbEEJRBm7oVf7r+z/hk4lR5kyZkg9aCVcnlIhdKSVxHD/i6hasTeWkk2o6Rq+us7ehjTdPn+bNPUc43tFLa5BxxXDgMqarGt8gsXjSq5P2oppB5H6rvTwAmf4saPd8Cp5PS2Yvw00tnOod4hdXLnJh4g7rGYEo5oiNxlqBSRhd2Me3dXle6BvDkPUAdVVVW9dxKxPDC3uHeWlwL21ehsAAwmIExEKwgOZPPvon3h+7xoKICH1BLHEmfxo9SCSI1eYBUaI8D60TJwIQscGzGhlqGvyAk4eP84MDL3KstYfhhlZaPJ+AOhhROI9e44Api0Inra9jDBEajdsJwUfiJxhnCiUB1UahHlAAcl5AS2MHPZkCQ/lWum58xk+vfsaGqoAv0AkGtfPigeeDvjEMCTV7KP1ZSQkVTU++iZe697Cnsa36IA0O6J7XEX9z5Ty/uHqReRkRBo4ZbSI56q1+aW3VsagXKNY6b1VKgTQWP9I0GcnB9j5eP3yMl7qGOdzWTbPwyCGrzJNKPSMEZWDNGmajVcYX55jfWGdhZZX1sExFRxgsnvTJ+xkaMjnaGhppLRYZbOmgCZ9GwDPG2aJCJC2WJUGmSLFvL/lcBk9J/un6RZYklJPxm1SlpPeyRX1vh+0+S/pGMSTUkmYFFg+LF8Uc6e/jSHs3TUkuosX1nlkzMZcXJvnrzz9kTpcJMz6xSloF2hQqeUhD/nqbKzZIYxGxJo9iqLmDV3qGeX3gICf7h+jw8uQs+CLxlq1NJKIgFoLlqMKtxRmuTU9wc2WG0cVplqKQ5Y0NQh0TG4OxBoEg8HwKQZbGbJ7WTJ4Dbd3sbWjjaGc3gw0tFBLpm4Y9A6BV+pxq68d/McD3FD8duchCbAhVXXiS2gLZFAxK3p8XKfrcMGT9hNQ7uW4Fp9ktTlIpIVHGICtlWr0Mp3oHGW5qIYuLYxtAC8FsuczPrl/gxso8YU4RS8ck1orExhQOjIYk/d4xp04SASROIoowpoCiO9fI4fYezuw5wCv9+9hbaKVIra1xKhU1sAHMxSVuL81xefIeX07c5vbcNDOlNZbiMrGn0FKClNV8SWsMIqwgw3XkyhxBDJfu3nbX7e3npb49HOsZYKChmSahCJJr+0CT9Dja3I3/0ltsxBG/vD3Cgo6peIl9mvpNyftzIhAfoOeSIcGlwQOIJDKBtQgNQmsCacgjKEqfk939vNDZS6efIZNIGQ2UdMytxTl+ef0Kq4GgIh2zmFQq2s0qdas54CHxNHhhTKvKcrijl9cG9/PqwH4OtnbSgMQHPOvK1U0SigyBVRtze2WJ89N3+ODuVS6NjzEfliDjowOB9gOsBI3cDFonFmM6JqslUxXD7Mo8N9YW+HxyjNeG9vOtoYO82NFHd66QfNNJy0YhOJTv5A9Ov0OpFHF2+g7zcYyRkjRTrZqsXIddPi/SEZ4jhtyUkSUAaxAWPCER2qC0pYCiKAI6Mzl6G5oZaGnhpcG97G1qJUPSTUdItICZ9Q0+G7vBdHmNcl46jxonFeslhBMYtsqM0oKSAj+MaBUBPbkWTg/t442Dxzne0Uu3zJAjzSgSpHm3EbAhLJPrq1xZnOT921f5+PY1xjaWqAQSikENqK672e1Kz5zEFmhpiZQhl82i0dwqLTL75VnGpu+xcPQl3txzhK58AzkEHpYAKAInGnr53Re/xfzHG6zNT6A9g1DKmSrpHNfP93MkLp9LhgTwlUIZi6c1gRG0yAwHWro53tXPqYFhDnb10uAHFPCqDCIQxDjnYWx9lU9vj1AJJFrVVUvCpphjyozSpom8Fj8ytKB4rXcPPzh+mpe6hmj3cq7OhtQssK6POtI5T+USN8ur/NPNS7w38iWjK7OseRDnA2LlEnSVEFUbd9ubrpIDfYywqIxHZCM8KVGFgOUo5MOZUebKyyyEG/zw0Gn25BqdeQHVWPrrvfu4efAF5r5Y5/bGMhVVg0SVC+lvmvvnhSefG4ZMyQqQxpBBkokMzcLjcFcfZ/Yd5fVDJ+iXRRohYcJEulHbdERbw7IuM7o2y+3lOcKsk5gIU+vYVjWmEnVnDYGGooYW6TPU2s73T73CG31H6fJzFA1ktcETAqFENbwXAiUbs1iu8NORi7x7/QsuzdxnybNVRgxNTBzHSClRnpf0uaEaXXoUCSGw1qCtwRi3s4WWhqAQcHN9kb/4/EN0pPn3J9+iww+cTZmYEFngnWOnGJ2fYmn0CrMmxqqaaqgvYa7NxrOn54YhNS6lP+N72I0yqhwyXGzlN469xG8ce4W+oBGPWty33gJyzFhTn0uVMrcWppmNNogKebS0LqKjpEtAEwpttUMGrUXEMYVYsC9o4jdeeIV/++LbFIWzEX0gI50ah6T60BjKSjAfh5yfG+XPPniXKwszrApLWEgxRoPRCXgvPRACow1xrAFQSlUjNJsy1ZM2Ydbq6t9c1ajAWOOSMISknPW5G67z02sXaPCy/N7JN6tJHZG2BFIwJPJ8Z/go9+ZnWZ6/DzJZENZW229vQYWeOT03DOkjEJFBVSo0GcW3Dh3jt4+9yum2ATqUi0ubLevYVJVQbbkLBJUoYmZ9mdgXVSAdHBxjEwdGWrBhTBBFDBaaeOf4CX7zxMsc8FpoF4IgsUlN4oVHxgHbWkpWpOb60gR/ffaXvD96hXkf1jKCUMpaPXidTepaN1tnm2YyoI2LCAkBUiSScHsZlWpWkyRLGOeRYD1BWQhubyzxt5c/pbu9k+8MHEQBvhIo4xy/432DHJ0Y5NbyAvM6JFaCSNS6V8pkfqR4PlT3rjKkpaYi6g1ph6f5+GHE3mwD//rl1/j20GH25Bpplopsausl0Q43cRZrQSVedfXBAeUoZH5txTFfEu+20tmRsYnJKB/fGJpEwGt7D/M7L7zG8aZuWjMBWcDDIFydIBaoWEtFwKoQ3Fie5RfXP+XsjUvcXVukkvepeIKyiF0Gj7WIdFcrWzMlXBqYcMXzxmJi1+jTJlumPLDrQdppI2XwhGHSzYwkDmtd9w3XNub5888/ZG9XF/uDJuf9JzPSqvIc7dnD51PjLM6MI5QC4SI5Ardz1/NEuysht8uSAnwN/voGBxra+fevfYe3B/fR5+fJIfC1S2TQQhAJmSTWgtPPERkhCZLYtRROolW0ZiOsoMWDRflCCmykyWvBG/uO8O9efJ2TxQ7ahCTr2KUKrKd24oYQ3F6Z58M71/hw9CrXFyZZJSYsBIRGo5SPNU6e2jTwnHr9JvHcNYhQk1eC1qBIoS3H3MoqK5UyoTRoT7osH5FAM3WdNmpr11RhG5MqB99jTcLl+QnevXqR/hffQlhDVkgCAQUEB7p6ONjVy9j8NCsCQmGqEZtdoSdw45+dyhZgEyBQliL2Zxv4w9e+zdtD++kL8mSNcAY6Fm0FFSFYA6ZNzKWZMS5/eZGX+oZ4dfgQrbkiQtTSt2JrCXWMlVRVtItZS4QVqDCmK9fEyfYBjjZ10WwlGeuSF9z3k9ZywIQucf7uTT68eYXLs+NMlddYtxrru0YAVkiMNtV8Rotx2+kltq20FhVpMqFmuKmTM/sPc7JvH81BltnSKhfv3uLc7evc21ghzHjEvqKiDZoEnpLKxZKSpA6bxOiFoKrmpVQsVSJ+ce1L3nzhNPtFLoHBBAEwmGnkaGM7F4IMy+EqIusjrK3rz5Ry99N6tvWxofT8O6NdY8hU/dXHThXgaWiXGf7d69/mu0OH6PKzTm0mej0EKgjmooiLUxO8f/sal5buM333Do35PC8OHqgmu1avY63bgTZJXhUWxySp/agNDULRoTI0ofCFm4hqlEXAvDWcv3ODs+M3uTh9h7H1RdakJcwqIg0gknYtrszTU5IodvUyWOtsOQ2ZGDoyDbwwvIdv7z3O0bZu9jW2kBGKdRNztKmTI139fHz3Bl9MjDG9voZRApUJCK2zNaywCGuqGw3Y9F9Rq+iLpOD2ygIXJscY7D6ISeJGQgiKQjFQaKIzX+TGxiJSBNRafaZP5mkxpK29ttpmO6BdYciUEavNqazz9AItaI4lPzr2Et/b/wJ9foHAWpdGKCCyglVhuLO2xIej13l35BpXFqZYEBUCUyGUddEWNjMl1ZDjZig4nR5lwbdUM2uscPs4LlnNF3OTnL93m/O3r3F9boJFQqKsh1Geq2Wph0pELdFDSFdEJnRMRkOHV+Bwdy9nhg5yqneYvW09NCFpSEaTER75lk46m5rZ19bF0fZePh2/xZXZCSYrJQh8DCaRM/UPtuZ+pOOIhWDFRHx6/TI/aN9Ho+eSMS0WD0FHUxPdLa2o2XGkre1hXt/A4Olq8C0O5w5pdyTkVntdgNKWoha80jXA7554lW4vRxZn9BubbH2M5srCFP8wcpH3bl7l9soylZyP9hSyIuqypB+1uutWLE6Fm6SjRep0AJSt4X5plQ/u3OAX90b4fGKMhXCDkjCYQLkGnHHkdnFI0sBNYitKYTFa42uLDCMapWJfWzcne/byat8BTncP0exlqxnjqRSX1u0d2C182tr72dPQysGuXj6+e52PxkcYW11iw8REShBLW8MwU2ashpvc32MFN8bHmC+v0V708ZIyXwU0F4q0N7eQUR4VY+qqGak747OnXbchBRalDbnYMJRv4l+fepXjje1krcs1RLvdoZaF5uLCJH9z5Rw/v/4FszpGF7Mu6iJtzfgXtSiwrLvKpgqwumaWAoPEIJPrOVcE1nTMlYUJ/uTDf2AkXGU1ozA5SSxcvFlbJ22qvXhSKSksaIOoxDRaSV+mieM9g7x64BgnevfRFzTQlHjFEVCpkxw1XFXgWUtXkKXYu5fBtg72d3ZzdvQa1+fnGFtbZEVqQp9km+cEqrEi2S3LJZQYXzG7usS9pVn25BvJej4Si8JS9LO05ZvI+xmW4xA8zyEP6Yw9Jxy5ywxpkdaljLXic2bPfl4d2EeDtUgchmdw0vHG6jx/eeU8P7v+BQvEmFzGSQhtkUo67C45qyQpZYA6Ybm91BTWjUFaByM5jxpKVnO/ssat1TnKTXliTzqpmDoPIgGtkw3OXTa6wGqLV9H0+QVOtPfz7aGDvDx0kL6GVjIopLWunNUYJtdXmFpepCtfpL25lQbhEYg0q1yjrKVRKYqZRgaHX+RM7zDv3Rjh3TtXuLQyyUxcIiaJ+xnrWg+m0Rxc/udKWGJycZ5S1xAFz3c5AQhywqcpKFLIZLFrJYTnHn09EvE8MOWuS0hpLQUkB1o6eefwSVoIwGhkUqgUKrhfKfHza1/y4e3rzAlNlAnQ1jpsbZN36MjZzmILQ25PRoAWFi3rMU1ng4WepOK5McSqpsZSS6i6sbkF31iC2NKoAjrzjfzg2GneOfgC+3PN5KhlaZcxzIdl7iwv8MGtL7h45TLDfYN8+8TLHGzppCNboCiVK4XFhU0VlgKCfLaVthOvcfzgAX56+VPO3rnOvZV51kxMKB1EZKypNtZy0BisRGUq1t2fh0QKZytnpCJQDktIcXibOEay7l6fJe0KQ4pqwNQlMHRk85zq2cPRlj6yGHzlgoElYAnNu6OX+PnIF0yU14jzWSrWOrsTHExkH+xvLnj8ZDoVb9HKFeDH0knHzVWvotpwNI032wS0EzZlRsjFli6Z5a09R/itV97kcKGdglCuTxCWCMtaHHJzfYF371/n3StfcH1qHC0FF24t8f69Ub5z/BRvHTjBkaZ22lVATig86zxqrMFH0CIlJzNtHHzph3x74BB/98XHnLt7k8mwRNmHyJNoWyt5NRJWKhtE1lT7fKfzwVG+AAAgAElEQVTdOjJKEXheLYxUPy/22TMj7JqEdD0SBe5hDjS38cqeQ7Sg8DBgDDGCkrRcWZvhZze/ZKy0RMWXlEyEkQqrDZ7yNgHdm1VMavDvbFottehH/WkcY0tkWrFHYvca8LUlZwTtfo4Xh4f48ckzvNa+jyLQBGjjSgc2sMzEG5y7N8LfXTjHp5NjrCpQLUVnBhjJRCXiv517lwu3R/j+sVN8e/goe4utFKUkg8KzCmlcEkkOl2X0WscQe77XxSsTo/zjpc+4MH6bhUpERUkiWdtGqFSpVDHKdKGmteGeUtVIz/NIu8KQSimHguuYglDsa+7iVNc+cggUCmTN6P/5xU+5Oj/BmjRYT+ElTgWek2NW1Hp919Nj9562sgoGyyR6koLC6UMT1qVmBUIRGmdfCQu+lahKRKvxON7Vz4+OnuJ7B05QlCoJNbrsn7KEaSxnJ0b5+y8/4bO7N1nQZXRWIZSHjZ1TFEsNvkC2N3B5fY7Rj3/Ke6NX+PGJM7y97zg9IqBZQKDcnBichMsDg2Tp6TnMSx39/PLuNf7q07N8ev8eupDBzwVIBIFUSXtB7bBYXAcNlzpXMxqd9Hc/Pw/SEXaJIbXW+FIiNbTkCvS3tJMTtcq61JYbnZ/m0r3bzMclokAlWjPdArnWTHRTT58nGolEWFPdtTYlJyUdmmmtpVwuIzMBeSux5ZCclhzu7OOd46d4fegAw36BVuWRMQZhBSZ5wGOzM/zZ+Q94b+wa92yJlYykHPggBJ6UyERVpgtqxYT4RR9rBZeXppl67+/5/OpVfnD8NGeGD9KaFIyl7f48HHbqWUuvyvHDoRfY3z7MLydG+dnFc4wvTGHWQ5q8LL6Q+MKrtpA2QKg1YRRVLdz6RgvPSzOBXWFIg4Gki21XYwsDXT3Vm0+93HXg3K3rTJZWKSdORwpAi/TApzBjabiv+vuWz4WwBNmAUGuypQoHmrt469ALvDp4kOGmNhozAYFNEjAEjsGNxEjIZQJaGvIUfB9VWkNZi68UEYbIWrxEp5pE6ruSWIixoCxzcYWzM7e5/cEMn4zf4J2jJznVNkADYJI6H084RyUvJEp6ZBt9enNFTrf18/HoZc6+/z7dXoGMkKDjJHfNdfFdjyNKUYhUqrq7xhM1S90F2iUb0qJjjWegs9hMV3PbJt6KgRliLozfYjEqE/sOLaxy4FNcvVWVX3fG1IP2DASxxZZCOnINvPHCEd4ZPMLx9h56cgUyUiWRGssGVL3XFE/sKhR5+/hpOgb7+eD2Vc7euc7k+ioiUFjPc1hhip+mmUAWEIJYCmLPEKJZ12tMjVzg2v27vLXnMG8fP8lQvhmdFnYJpy2yFgIUzUGO1vYeBnIFzrT1MdzYSsHzXfkHItnZV7MaV9iIwk3mzZPHUr5e2r3QYWwoqgy9uRba/GJV6lkcfjZeXmZsbZ6yZxGZIMkR3Cwh0y63MqnQSlPQnCloHZOljkoCZLt34z4zIFSCJ9ZL3yTrMa+hQ3scGzjCqQPHOd7Vx55iC03SJ4NbOBvAZHmVy7P3MLHm5eHDtJIhD3hCMdzURltjI0MNbRxv7+Oju9f5bPIO02sbqEIOPEUURSjluUKzWtcDtIRYuOYBJa0pLU8zd2mZK7P3ODN0kNf2H2Eg30TeOHswkC6JGKBJSrINzfQVGshqS1Yql+MohIt6RWXmyytsxCFWCtL9WW0Cqj8vTs7uwD44QLroZWjz8xSSbL3EpyAWljuLMyzGZSJPgCedVEwyB1KbJ2UybAJp282BQWFtdYN2W/dP2g+8NprknAlTOhWoGGho43fPvMUrh06wp72bBunjJxncZQTzlQ0uz01wdvwWF2fGiKKIW4tzvNy3n6PtfTRJlUA1AU0t3QwWmhhu62Kws4ezYyPcnJ9hrRKTUapuAyZbjVXbBCM11uIHkpKCsco6c/dvMr48z/jKHC/37+doRz/d+YYEZ3Sx6tQezwmFp2p3m5ZbLGysMb20QCkKsVlv8y5syX/PQ4+L3WHIJDG1oAIa/UzVUE/JWLg7PcG6jlzS6hac7GHTZLe8tj/mwU8245fuYRZVwKGWbvadaaM914A0rrwhFoJFE3F7aY4L90Y5N36L6wszzJsKcawZXz7H1ZkpTvft4/TAMHsaWmlQPoE1tPoBp7sG6Gpp41B7H+fHbvL53TvcXV9iXWtiX6BlUg2ZqGGRiHyNRSuQhQzroWa0tMzSyBfcmJnk1OB+Tg/tZ19LJ21elgK1ViubggMJ0xtgcXWFmaUFIqvRKNSz571taVcYMgVnC36GxsAx5FYvd3FlhRiDQLmu/ULUJCMPZ8qtJOpetQ2fUnxDVEPbVdWeHJsVks5M3kkra4iEoCQ14ysLXJi+z8d3b3BhYozJyhqh74MfoD3DSlhhZuIWl6fvc3Vxktf6DnC8q4++fIEigqxwtTq9gw282DXER20jvDt2jevzk8yE65SNY7y0xgVq6tS1dBFoJcFTTGvN9Nxdbq7OcnXxPmf6D3Cqc4i9LW20yIAA5/SkuKOom7lSucxGaaPObv0VHuQu0C4xpDOuA6XIKK9WqFWncrU1IFxL46pdmOQvpgqlluVsN3FpjQlF1RXaDO3YOoyjXp1XP60mZ0QWSkJyv7zK7eVZPrl1nbOjNxhdXWDdF8QZj1gCJnY1PRlFWUomShv89NoFbk1OcGbfQV7p38uh5k46M3lyWBqQ5LMNdBx7iUNDQ3w8coXzd29ye3memXCdDRFjfQ+UqjIkFmwMQihC67LKUQGTcYWF0avcmrjH9cH9vL73CCfah+gvNFGE2oK3BolECUFboYHexnaKy/No67LTo7pCsueFds+GTEVS4t+mxU86UStR7B5wbI1L3xdOdafxhqoDkzCsSVxvKVJmEg6GSX4XosZkJtndQCShQ5Oci6R1isESI4isZSGqMLK6wi/v3+D9kS+4vTjLhjDEBQ8thCupTfovpirWaI32JSUPrm3Mc+fCh3x+7xZvH3yBV3sPMpxvoCOTwQdaEbxcaOfES29xuneY925e4cO71xldm2c9tmgpQEissUlDUxDGOWXWGKy02EARKsm9uMz0yJd8du8O3zlyih/vO8WBpmZapEcO4RIwpCWD4GjPIN/XEeNhiQsz96kEgsomrOH5oF3MGLfEJtlqg812nwU8T1WxNqtU4gHWHbctPvGQRlHpt+qkYjXtX9ROUzP8BRtYZsMS7965yp9fOM+lhSnWfIstBG7/Z1OrhkoLzupJC7cHTSihouDzmXuMzUzxZdcNfnDkJb699yADfoaMgYyBnIIz3QPs6e7j2MQ+/unK53x2b5SZjRJR4BEp5TJxklzHdNcIkyDY2gOtFGVpWF5bZPrjn3Pn7hh/8OZ3eaW9n3YvIKscMO5ZKAjJS/3DzJuQuXd/wmh5hWxDQDks1+b3OaBdAsZdPmE5jqjoGI2rWZGyluldLBZRUrqOENYkPp+oPoztsEi7lTXq7MIHQos4pkylZqrSDRBhWdEhH8zd4r/83X9nIZdhLSsJBVRzq+vMg9RigO3hEiNAFDKsGstHEzeYmJ9FSM3vHTjp2kwn58oAnUh+1Lufl9r7+PDOdX7yxXkuL0wyF5UxvmuoapIUI5vAOAjj9tYBhCcQxYD1yPDR/Bjjf/cn/C8/+De83r2fduGRtxJPCpSAdjxebxtg8ujL/D+f/oK1xMTB1sb0rGlX4CdrHZQRGk3Z6GpT9zQEKIGWQgNZ4SGNJaqE6FhXGcul2Zut2RSb6VETKox7YWuZPHVfEwgia1iMyyzYkFIg0FkPAq8uTJTcCw8y+wP3KyC0mg00pYxgLYAlXXFxaYFrJpqcw8f14xkMcvz4wIv8r7/5+/ynt77PC81tZJfX8DdKqDgEq6v3kZbZpotMK4HOB5SLAXeiNf7LX/w3zk6NsoLGKuH2r9aWvIXhQiNvDx1kX3M7YnkNH4mUzwk3sksMqeMY4SnWdMhUaY3VOjBGCggEDDS3UzQS3wqCwHfN5x8yT/V8GWPR1i3xtIhLWJCxQRmLNNrFc5PtulItXs+XLqva2aFKuQckrOt2IY1FPthUt0rmIa9NkJRIO6O5cGgI3FtYYCoqsYxhzVpiYykAB3KN/Nv9p/k/fviH/OdXv8sAAdlKCFGEsC5X0hMCL20piItqxcYSa432PSY9zR+991MuTI+zGEVoIfCS/RwzwGBTM799+jXajUegH73Od5t2hSGFEEglWQ3LTJeXWLGlTZv+eAgOtPfTW2x1tdFbO75uQ65LmWt/7GKy9R60xTeCjFV4UiW7rlqs1g+kZQls8rekFzeiqr+ErTFjmgtZyxJ6MkoBaGcHwvWJu/zff/U/+MtL57hTWqUs3XUzAjqUx7HGNv7g5Lf433//f+JHh16kXwYUN2LyoSVrBBjtNvMUm+cqVoJy3uf68ix/ef4DRhZmCJWoaiNloc3L8nL7EC9092HWNhDG7g4j7IB2DYdEwoYOmVxZYGZ1kX2N+SpDKqDPy3O0o48ba3Msmxih5Lat6qDGfHEYJUByjRmFEGQQZC1QCSGXAWnxjEh6fKc2qdgmw0VUV0ASbKz6UpbNUNKWbtCPJWVd3Du2bveGVWX4bP4+752f5LPpu7y+7wine/bQlykmXdYse3MNNGQydJ3+Pq8PHeTDkctcnBpjtlQmSrBLrU2CMDh7WguQnse6bzk7eYfB8Rs0NzRwsNBIkCAMPtCbK/DG/qN8cm8UrZNUO/lk9/R10K7BPghBJGG2tMr00gI09iXmmVNBDQheGNzHhxM3mY+W0SrdeF1Uz1Ef7tJCsFAusao1ZUCJGgDf29zCt4+9SOWa4dbSlEss9HyM5xFJqq1Lqpu6VTFpJ6WstY5hkz/XP6R6UPlJHp7AaQJfuHh4WcKKL7gbrTE7foPRuSmu9ezhrX1HOdLTT6sIyCBotpKWpg4GCw0caejmvfsj/OPNL7i2POO2m6NWj2STzhfaukrJ6VLEB3dvcLCrh+5CgcYkYCuwNHoepwcO0dv0ESW9RvmJnujXR7uTXGEhxiA9wXx5jXsLM1QGXS4hJtlHEDjRO8S+jh7uT60T6xiUSCIYArRBJttbWCwm63NpdpwvV2doKBbwZFAFxXvyDfzmwZMMNrbx6cRNPr1zg/GNFSoZAYHC6MTKE+lurG6jIiOVS02zaY8eN/6qFBXbNxh9KNUEbhXHlwZUkvdlBcS+ZIGItZVZZjZWubk4w4v9e3l5zyGOtfXSJBR5BFkvR6G9h4ZikYwXEF07z5erM+DVUIaqzWosRkIlIxldnuHS9BjH2jrJ55uTfX0sgZB0Fps5PLyfOyMXnxs7cncYMlFvxlcshSVuz00yvbFMW67ZlaSi8C30FBp4Zd9Bbi5PU1qdByEJkyo7KSUy2ULGAjrwuLU6x19fOUe0UeGV3j30FxrICUlGeuwvtNC7t4mDXX0cbunjw4kRLk2PM1suEVY0Mu+egCYB6HEtWExSaiGxVWaqV9tb983eCVVTzqhFhRQCkQD/sSeJc4LxqML01B1Glue5sjDN24NH+K19RyiIAE+4UobhXBNvDB3i8twE15Znq8nN1L2n4zWeYDUMuTZ9j9GuIXrzzeTBedZWkpdwdPgA7968TMVotHw8gvB10y41ChAIKREYKlHInYUZLt6/Tf+BU+SlJAtgISPgzMB+rt69zeLaKrMmdpEcY1DSc9GaZLaNEJQ8wSd3brC6tMbdhVlODwxzqL2bzkyBHNAoJAeKbfQfb2N/bx8fjl7ls3uj3Fm7Ry40yKRXo2MUm/QlqcWRoeb8VI9LNfxjJIrgQQfIQhLp2UwuR1MQ+5JYwITeYHH0Kiszs7zeN0hXwcfDVQ1KoDVfoCVfxBeSUrIp03bDsbhCtrHFGUaWpjgxMExOuAYCwkIGycGOfjozRTbCVcJnbkHuWj6kg2aktVgpmVpf4f3bVzk2dJC9QcHtNy3dYPZkm/nuvheYWF5kdWHcdY3FhefSDc+rToyvKCvLl0uT3Fua4/LMXd7Ye4SXe4bZ09RCq+fCdRngTEs/wy91cLRzgE+yX2A3yi4rh8R0xBXdS+FKErR0sF9akVgfKNoa6dlKKcOmTlNVYlELldotx1f7SkqBUR6Rskyvr7AelrEFWw3yWZyt7EmJEgpZ12Rr27kXgrnSOrdX55gJV+kIWjEJTKYQ7Mk205NtYDJcZ93qZx6x2SUb0mKMg1eMUizrmItz9zg7dYP+wVOEiWOjcMzz8p6D3F2dZ+aLFW6vL1IOJEbKTVwhAGsNVinivGIu1Hx07yY3p+5zeWgf3z50gqOtvQw2NtOEQlnokBneHDzMkY5elhYWaMsW8LdgkqmtlzYCqEVmNj/2+kaoD9xvMsCtkeL6PkSuf6/LPq9G7IVwuzMIg5Zux9nQ6jpss96jcj3LPSmJ7cOZ0gjYMJrx5QUmlxY51NGKTurgfSFoQtCdLxKspDGvZ8uRuwP7WEBIhLBoDBvSMlnZ4IOrl3in6wgNmWy1PtrHbZ32naMvsmFC/uLix4yWl7GBh/J8NKbaFKDag1sIbEai/SyTYcjfj17is4lRTg/t51+deoPDuTY6M3kyCBqAllwjorexKsGiBHoU0uFxvrEYWcMj7aZO9TUyD3l2aUOBZDsJ12olhYyswQhXChFLF7FKDQcXkHKLN7YGYzy0SWqujUka7UuXSW+Tv2nSns/bkhEQe4qFconZ1VVMB4BLXJFKOAioqRVx32Jl4uiZ2gLZbdo9YDz52QiB9X1KnuDS1Dg/vfoZc9YQASQRkwzQowr8xtFX+J2X3mBP0EBDaAkM+FKhPJemhahtfKQFVIQmzCh0S54pGfGTK5/xf/7ZH/PHF97nyvoKMzomsmnnXdfyT1qLMJbAWPKhoVCOyIUWP7SIUGNjXZd1VAPHH0fSgB9bMpElX7EUjcKrs06d1HuEuk1VeKLi0xry+g93wi4WgZGScqyphGHyHNwWywqXqpYPfOdk7eB8XzftEkDvHkS6N7TGEgnBvAn5k3O/5OL6HBvWkCon3zpJNuTn+Z3Dr/A/f+u3OJHrQC6tY8MI6StiTBL1SLwMYfCUQClLaCIiTxA15bljS/zXj37G//Yn/xf/48an3Ao3WBOuoL+SXFNJaPED3uw9wB+8/A7NFUGubChILymUciSodcx4FFNKIDCQLWkGZYHvHzjJ68OHk53GHCnANwJvmxB9/XVgO5vTVmGpHcE1VhBFrgQWhMtPTaU34Ac+4jmJZz+bDrpCIJQiAiaiEn/8858w8KPfIxvkUG6fBDzrdjDo97L8cPgYA00d/OnFD/jo9jVmF1bIZAOMlNUKwhRkT91wI8B6EqsUQS7g7toaf/SLn3D56hV+4+SrnO7fS6ufcT1vgBySgWyR//jmDzhw/Bh/de4DLt8fw+oKYaCIfZWoaCeVN4sTV+utrGtSmo0trcLj9IHD/Pj4GU63DtDu+yhcHHsrDz3EIthykPtivde/UzLG7WRrrIvkOF60GBNjlY9Sz4t8fCbt+EgmQxMCIiv5fPwmf/SPf8t/fvvH7Ck0VAclcBuYtyqPU21ddL32A946dJy/vfgJ5+9cZ82XmHyGCmCRrijMJF3NpK169xUEIiNZ0JoPZm4z+t4sx/v38OaRE7zUM0y3yJDF9eVuD3zebh/k0NttXJi5yz9+cY4LU3dZ0DE6G2A8rxbrNgakxOoIG0d4oaFLZHm5b5jvHXyBF3oGac/mKUqPjHDJdDbxim3SLCqtrEhNzpqkShaXTLr+kuwoIeoiTULsLG3MgokMJta1doJWuDg/kAkyyXlEEi94dsz5TCRkFeIAIgWrOuTWxCTLscuVTBdrqroyQCAVxWITrdk8Q4U2zh04zHtXv2BkbopFYnTgY5DO865L57EkhfgeGCWIPUFoS8zfu87NhSku9+/lrX1HOdrZRwsBSkhahCBXKNI6cID+pjbOTdzmlzcvMzI3RSmOsYGPFpZYO/PClEKyseXFvr28c+gEZzoG2FdspjnI1G0kDzZRvqZ+g5O6e01YdvMHPEQiikd9uPkwYS2B55ENfNJMPveh619UroS1JvrPmJ5Z0/u6BQlC0NrSTF7WdkHY1B4umSyFoE35FFs76W1o4ERTD5+M3+T90SvcWJ5lTVhiL+kFlDzYtNwU4XDvtFdjaDUbq7PMjixxbfYer+w5wJt7j3Go2EMBV17a4mc43tZDV6GRwx09fHr3Judvj3BneY41oV1rk8iwt7mdtw+/yOmevRxq66TNz5JFVPuWR8JtMuKTgOVVD3yH8/RV5tm6FLpiJkNDLr/JNk3hrqXVVWLzfNTXPDOGtNYmGSqutfFAVw8NnofRBiMdQA216IirgTEEQhJYS97P0dU9SE9DEwPtHa4g//5tJtaXCaVImo3KmsRNBE9s4iQDWxIJy2q8wez8PcY3Frk+eY/Xeg7y2r5D9OaaCYRwDZ6yRTq78wwVWzjQ2sn58RtcHLuJtZYXDx7i1f5DnO4dpNsvklPSmQoIKsDUyiJjUxO0F4qc6B+oIg6ympj5aOtxK7j+JHObfl8ZaPAzNGZzta7B1iETEbC4sUZsnyhK//DxsnkRPemC2kWG3G5oSXcKa+lr7yDjeUkRl0ia3ltK1qClwBMu99FPoCFrDRkEewqNNBUOM9jczsH2Hj4fv8W16ftMrrttNqSviIyutkImYUYt3F40BG67tbGNFeaWlrk3P8etlSleGTjMid5h2n3X+7wByXCxmda9Bfa1d3CqvRcda07uO8xAsYMmIQi0k4gbQjBeWuXa7ASf3xphamaKt46c4HD/YDLhorqvjmDzpknVRqI27brxIHCP3XzcdtI2jcmrJDTbkS/SWWyq9ThPMNBlLFNrq8RVI5adc/52lAxWbPl5p87YrvWHrKdqQmySOKuEorO5iUBKVNrTG9ccaWR+hqn1Ffo7uxloaCVnLYFwFXhSQGAt7ULS2NzFUEMLxzr6OXdnhHPjN7m5OMtCqYz0JcJLGVPVMrpl4pFbp+rXpeVGaYnxaxe4NjvJ28vzvNw9zP7mdlr8LDkBgfRob+rmhaZOtDHkVAZIurgpmC2vM7Iwy8eTtzl7/xY3J8bJK5/jym1xUt0fbFMFW2Je2HRuUo1Q/3stkTitM7fVeuEts51KR0BoS0uQZW9zB33FJld+LEBIV0s0o0tMrC8RVcOyX+Ex2+2l45N0Vtt1lV2voWyyinNBQHO+4FrWAQi3i9ZyHHJ+7Cbv37jM/v37OT14gANtHXRlGihIWd1FQVmLJyy+8mnpGGRfcxdH+4Z4//qXnL97g5moxJrVjtGTHRRqqtxNlZEQJV3X1rVhY3aC+aVlxjrG+O7e47w6uI+uYmNtX23hEQtDbF0r5TkTMr60wMWJ23wyNsIXMxPMRGUiaQlyGdezHDDGNe3XWLQxGDS1gsan41UIKVAycfAqEb0tPRzq6KHZy9bt++gYcnRpmtlwnUjU4uXPknYf9km9GcAYV/aayWQoZrJ4JE3ccepkVUdMROt8vjjFZ1/Ocfb+db575BTf6jrI3sZmip6Pnzg7AvD///bO7DmO487zn8ysow807osACN4HSOokdViSLVsez+WN3Y3Y2X2ZP2rf92ki9m3C65hZR8x47fEpS6IOSiJFigRJECAIgrjPBvqqzNyHrKpuEAAJSiAJUfwxADS7q6uyqn71y/xd36+1BBjyXkhX3zGGOvsZ6u7n/ZGvuTQ/ySKaioUobnWsMxAkpboxCL4QiHyWpVKNS2O36CHL8bZuupuaY5D5mJ5YWEoYZtbW+Hj+Du9fv8SliVvM18qUPIUOPai6OnVP+g2edJx2TB+IbztPbhRrLdY4aOjAwrHePg529uA3HMni8CK/GrvBQlROiUqftjxVNthkCvJiIHZnvOrgABVdY1VXKfqWkqdZmptk8i9zXO8d4b0zr3K6Z5CubIEmqQixDjPIuLhGQSkOBHk6T7/By0On+c1XF/jg5hXurC6zFFUpSbBeHOS2TlEkAhFFZAzkqhHH2nr40dlTvHv0NAMFByFYs4aKtdQQLFar3Fpb5C83LvObrz/nTmmZWugUUSuFtAphXb5ZCIVD34ip5oV0P9usIcXGX9vLFh9bY7GmShBZejNNDHUP0Nfc5tbe8ewQCctKrcKV8RHKyqCF2ryjpyBPRSEb10oAnufSWe7Jdb8dL6HF2IiyqbIuPDLZgBkNv5+6xcd3bvHTl17jvaGznGjuoNMLyFlLaK1L91mHnyil4IQs0P/Sj/jR0dP82+ef8MHoMHdra6wLQQVDpCN85REgkeWIg0ETf3X6Vf7uxdc43NRKTsgYttlQwrBqLbeLq/xp9DL/fvE8o8tz6FxIlA/QcSjLaotE4CkfzwtitA2wsWIKIWOImSSN5zRLxvSsLn4oEo4mVxZHQ2Bc1gPjzupJki4kIwyhEDSVa/z49Gle3XeIFhyETdITv6ojvlq4w8jMBDSF7srvnpH+xvJULaSIsXyqkaZkq0TkUFisNXhCOCdHKlAS6XvUhEArxzxQ9uFfPv+IL4aH+emZ13j35Isca2mjRVhC66qGpHBKGWLJCUFTvouBH/6csydf5NeXP+XTW1eZL5dBCqTVNCuP146e4R9/9DPOhO20CIlnoIZhTQjKCKYqa3wyPsxvLn7OF5O3WfQNojVHJOrBbtf7XY9Au/K7RuSL3ReJideHhlBKzPIyQ52DvLN/iANN7SniXA0oAzOVMn8Z/ooVU6VqvRgg9unL08nUCOIpS4DW1KIqlWoFEzjAKefsWLJ+QCGTJfR8KkIikWn6JvIg7GzmTrnM//7893wwdpm/feEcPz16hsEg79BltUVJixAWFeesOxG829HPiXc6+PLwCf70xSfcnBjn0L5+/vbcD3i17ygdXoAvXGgmkrCGYI4an02O8OtLH3PxzigrJiJqDvFiSD2pTcMy0CljnVHQFY2krQtATFX77a9lnEN38VqDskYaQqQAAB7cSURBVAavrNmXbeYf3nyXV3sGaEakhcYWWLU1LpYm+XD0a6q+JLImjvs+/UXk08vUxFOPtRBFEeWo6gpNhSNHMhgyQUBbromc8lmNIoSMS81wTsGqrWKUxmtSDJcXWTz/R67euMl7Qy/y+pHjdKsQX4AfK4iHKwHLSEkos7T1H2OotYeFyhod2QI92TxtXoiizgq7iuHSvVH+cO1LPrlzk4naGusBVIwAz1ERS5vAvtTnPIFFWUOgIaMNobEpfqMCl3ffFUfG7UcCnjaE2tAaSf7h7Xd5o/cIXV5IGG+lcRZyqrjC77/6gnvlNYL2JqpaJ8mwXZFGW7uTUr1GeTIKabd6+uJgGIJyrcb04jzlQjc5qZBSIgzkhU93poWOTBOL5aU4eOu+bZKgsXJZGY3GaMP5mTFGF2f4cOxr3jl+hrcODtGKJMRCFOErVyltEQgvIN/cziHa8BAIYxBGY6RiGbi8cpe/XP+KixOj3F5ZYF6XKflgpIqvegwXmBTRYpFSOu5CBF4lohAJjra3cbSlCx9SEqMElhqRxBfdnTNxcayNIavTKvN4GVBHzRT16yDjcreqptt4/Pc3f8KPD71IT6bJnReu5K8KzFVKfDE5wpe3b6IzAVpbZIw2txuSQNUkOXzb8N5O5KmuIQEXc7SGe4tz1PoN1nNY3UI456QtV2BfvpWx5XlMVqXcg0KIuJPPWaZIwroPRmiKeoWpiSI35u9x9c4o7w69wMn2fnLSsREoVxvkUGfjDI7FTc/rFibWFnj/+mU+vHuD4cUpFnSFsoSaL9HpjRMNtYgCbQyelPhWIio1ssZysLWDN06f5IeDpznd0YNqSOmRWMhtblQapE49jXrWxsTVUo5DR2ArNXJGcKzQwX966Qe8d+AU+3MFMkKRrGQNglUbcWl+gt9evsB8rUIUJGwMgkfQme1vJdsExh9hH0+MnnhTTwqQEORqYRidnqR4skZH6JgCVRwk725p5XBPH1/cuYU2Lngt4oZ+SDhsXOZCWygr11ZaNhEra7PMjKxwbWGCt46c4dzhEwxm2yigCKkXwTowe8t0VOLi+AgfjXzN1Zm73K2sUpSGmifiFlFbHzz38eUIx/QVVmrsC5t4Zf8B3jh4ghe6DzBYaCdvhWtyi71wI+pKYBv2IQQP9Hadxx2Tj0Y1/JqhO8jyyuBB3jvxEq8NHGOfnyUXK5kGylhKWK4uTvPr6xe5OHeXcka5JAGCBiTYbyWN59KI7LHlBLmNPLGuw03SkFeqCbg5M8lMtE4/hTir5pqYurMFhjr76cu3MKrXkDE4diNGT/pXxNg5yoCylKWkpCvMzY5zu7jMtYVp3uw/ykv7DtKTKxDGgZLFapmrc5OcH7/OZ7evM7o0z7qEirJYT7naypTe2KaWOZmalAVZMfRkmjg50MfrfYd5ff9hjrR10iJD/AbNc6BTxAUg9buWoHSIOAl8v3VJ1niCBO/Roy/bTEd7G68PHOG1fUd4sXeAZjykdq2xDtjKUZjcWJzl19e+5C+3h1nyiLHN4z0KsfU9+gaSUEbb+17vVJ7ilJ3aBYznMV5c5crCJEdzbTSpACXcWqtFSoZaO3l1/2EmblzC95WDCiH9enzyIg4yO0tmbPzXV4hAMVJcYu7aJcZnZ7ixOMuJfYN05JtZr5S5OTnBl3ducmX2DrOVdUwmQ005SD0hbLwesmnszxpn2aW2qKqm08tytKOXswNHeXXwKCc79tHjZ8jilCc524QRYZEat5dmKdnIdR2mraw2tYDSaqS1BJ4fe+WWBLI6awQvdw/QEmbp6+rhZM8APSpHk41p7owD64+EixBcXZrl/13/kt/dusx0tYTJ+A5nctO92N07+032/PQUssEyWN9noVTl07ER3uo4RFchxMMiMWQwHCoUeOvQcT4eH+FOrYxQpCgLyfrIitjPiJ0Fp5zOr60ai8qGrBi4uDTNSHGRfVOjdLS2sra2xu3JuyyUithcSNSUIULEvTpuKrOOFCdFRxPa4BlL1kj68q2c7TvCjw8Oca7vMG1BhgDn2XuQ5s21EEQWFqIKH0+P8MnYNYqmivXdERptorQCZQW+VOTCTApXLeMG/4L0eHvgGD84cAKJAw/wYkuNBTxJBVjDcG1xjl8Nf87vRr/ibqWIDrzYmWzs9N5tlfzm8uQgnbfoRkpug5FgQ5/rkxPcOb7EYL4ZTykUhsBa2lXIqc4+3jlykn/98hOqTT7lhgKJhEQy9T4bm6ZjHPFIgFFglaRUqzIzdRtxb8zNWEphCiERLu1hknSiTfDKXVBHaI2IDE0aesM8x7p6efvoGd48doqDMk8hjvfJuGgk8WxLwrKiI+6uLHJl/i7/8sUHDC/PUPIFRmwMSNdZvgRN2RxZP4hx1OPpVWtCJKGQrlAjXkII4ripgJKABVPjysIU/375M/48do1JXaLmqzjpwOPRwG2m50dxmJ4Qto/dUiHdZ65lNGzKMb20yIXx6xxubiNfaEOhUEgCIRhsauPnp89xa3SMy6U5TM6jQsN8GEvaLrpF0NnGnxspQHqunVY4clCUxFeKSGtEAmyKWzNKLGiDqmla8Dje3MmPD5/mJ6de4XC+A6x2TF7EZWjWEBlDJAVF4G65yMWFCf7jymdcGL3BgqhhwoDIU0kv5oa6RmMMQghaC03kvDBtXYWGhIKMH0RTd44SRtrx9SJfLE3yy8/+zJf3HDVy5EustSjlIYTEPi4GBlG/1inQlqgr5cN8m6cf9sEpSc1oKtLywY2rDO07RGe+hS7pCH4kliYEQ82d/OO7P+N//uaXzFRrWM85BwDYzY37jflyEXu1NWsQym1ftY79VVvjuMW0JqrVUEKmOOTSGJd+jKA708xrh47z10PnONt5gDyOMhjjQBBkDPtSk4qicGSaN5anef/mV/zp6kVuFReRzU1olXGQ1jQY82RNF/eJ+0bSmm0ii4dAuywVgoTxKLnhWrlUYMUa1k3EwnqVX1z8gP+48jm3qytUcj74jjlNxdkYu0vV4VtJoyLClnbhgbInFBJASoXNhtwszvPnO18z2NpGc0uPWx8Jh7DQ4QW8O3CM1Z/9Pf/0+39jolLBZj2Mco6OTbI/Jm7uTzzxOB2ZvHZoZAlBkUUq6br7jJsqpRSgIzzpIUs12oXPGwPH+OsXz3F2/1HaCeN1osFHohVobalZ50wsW8NweYHf3fySP1y6wPjqAjYTIlsKaEQc/JZJedNGWBYLoRW0qpDTg4fx4kirbLAvUczlXRWwbi2rVjNWXeXDm1/x6wvnmauVWFOCWnM2pU6u59c3XpdExAPgWJ6k7BmF1FZjhaUWenw0cp3jXfvpa2mn2yoCYwmVIjSWgvL4q8EXMT+2/PMHf+TW+hKl0FkKK2zcNro5jJG0jTYyoaaAqNaCMSkimB9ZAiPwSjVe6D/Mz19+g7d6D9OnsmStRBntcMiFpKw1NWGpKUUVwbRe40/Dl/jdtc+5tjzNstBU8kEa87PGZUakFGyK1RmLtIIsHv3ZFl4+cASVIvu4cyohKEtH5zxVWuXrydtcGBvm8r3b3FqZwxSylEJBJGRaeZQQ1SdHe5ptrg+TPaGQRrh1k5QCFfpMl8r89qvP6fHz/OzIKcL06TZkUXRIxd8OnqEn28L//exDPpwcZV5pbKCoNUxHae9yAypDup5PFDMm+PSVQlqLqlQJ1ioM9fTz3utneWvgGAcLrbQonyyukxClsNZSNQ7sqoJlDsH7ty/zu6ufc2VqnMVaiZovqXmKqtVERqOkQMi4vEKAMC6tZ+LcmoqLNPLW41TnAINewVUtxY+QBmZ0mfdHrnJ+ZJiRxVmm1lZYispUfYHO+VgFUezkyYSLuXH9vleQSbeRPaGQED/JnnLoCqHPyPIc/3HzEu35PG/2DpKLUV+t1WSEpMMLeL17kPYfFhgcG+b3wxcZXZimIh0Fm/XclGi3WlxStxceEk+DLZbJGEFPkOUnb7/DOwdOcbiljb4w6+ohnfEFnPNQEYJ1HMjp5cVJfvXlx1yYHmOivEpRRESBRCqJkZbIgFB+Goi28RPRCH4qLC6cVNP0FZp588RJmpAoEudDUENwdeYuv/76Ahcmb7MWCKqBJMp6aGvqiBSxDkpr07ni8a0ad1eeDMb4Tla28TpPxsUCK0Lz6cRIDNIpOds7QJsFIoOQgoxyxa+nW7toPZ7lVEcvlyfHuDZ9h7GlWabLq1SEoaw1COXgQkQDYIh1nnPGKjqDHP3t3ZzqHeTlg4c50dHLvpxD481ADIPsFFgLKAHzRnOjuMCnN6/ywcgVxtYXWNBVKgq0VK5oAlw1UJxTTsIirqkhDuNYi9CubCyoaTpUyAv7BnmxZ4Cc2wKDRGNZJuLi5Cgjq/OsBoJa4BEpgREWbWSaQnWrzY1cJumEvU1ecq/YzSdmIR+qlEkS18bN9R7M1aqcnxgBK7FC8FrPAE3SMQB6FnwBzVaQyxXYl8ky1NbF7cGj3CrOc3N5ismleWYXF6lqQy2K0DpyRRW+Ty7MUMjm2Vdo52jHPg42dXCouY2+1jby1PmnBW59V7GGCChhGSsu8dGtG3w8cYsrsxNMlVfRGUXkyxQhN/GFBc67rVsopy4JKqQSDjg0YwQFozjV1csPT75Ahx8SxMUYFavRQjG6MstXU7eZqhWphR5GKgz14t80uG7TcP6Go34XZE9M2SmNsKin2FDOOZmJynw4eYOq1ayefJkfHDhGa2xfPBv/AJ5UZJpa6G5q4YTpZ7ZyiLniMutr61QjQzmqUNM1hJBklE9TmKEpzNKWL9CVb6GgAkLriCodiRJxcNvlnosC7pZWuDw9zifjN7hwe5TJcpFVoSHruXVwQ9ytUTbAqcSm1oKjCMHRhWQ0HC508N6R07zcNUBIwn8t0EKwjODDsevcWJxm1dRcD4xoYM7d6rru7m16IrI3FBLqdY6xsyERGGmp+oIpXeb9O8OsltZZjSJe7xtkfyZPLlaeJCwS4qg38tKnK9uOybSiOmWMr+iKfgWgrESZOM4oBCoucoiMqy531TRuXDVgqlLi6vwUH9+5ySd3r3NzcZZFXYNM6DoUk8qj5Hwsm9eHNDhUsXWURuMj8KqGvkwr7x45zbsHhugRQdoh6LgYPYZXZ/nw9jDT1RLa9xyKGRt2+kzInlBIAc5qiJiMsz57O4QJJVg2mi+mx1lcW2Pi+Ble6xvkRFcvHUGGAIvC0fkG8XSYtEqJOAPibKqb7h0nt3FhFiFcDDSOYWqjEcpF/UpYbs5OcX5ylA/Gr/PV7F1mdZlK4GEzGWcVtUnHm8im7pTkfNIC2xiOGUG2Zuj3cvz00BB/ffwlDja1OYJOkqUCzNkafxi5yPXlGUoS8D2SaX/HdV3fEdkbCtlwXVOlbLQ4AowvKUrJlZVpxi/M8cWdfn5y8gVe7t5PX0sLzX5ADhFPua4qRmOxsl5jDXH+O+akRrpsejLVCul6XqRwoFRla/hy/Cb/dvE819YXKOcCbDbEWhNb8TgPDtgY0UySWMRY9eKlCNaiI42npKtkijR5FH3ZJn528Aw/P/EqQy2dZHGW2+AC36vCcnH6Ln8ZvsJcVKXm3cdwthdaBXdR9oRCQt1KJp5owm+dSCQsWljCliyrtYjzkzcZuTfOK4eOcu7kEEfb99EdFGgPQpqVTyicZyptkjJLZreEf9pZzoSuWOAawXwZ5xVjvMjDvX2cXDjAyqRlMiqxUotc8F3J9CESuGoeG5v5pHcmHb5wCqokiKomKz0yVc3Rtjb+5sxZfnrgDAezzYTWjcFa9+CsYLixXuQX5//M3fVVoviYSarx2VJFJ3tGIW3jC9GQ56WeWRDWULFVpDDYnM89Y5geu8IH924y0NHNyb5BTvbs52hzN/uDZvJSEirlbrKoa7jGEhnjoEyMq35p9kOaPR/XNa1j/G3Duf7D7Ovs5vjNK/z22kUuzk8yb2tYEdSdF0HaRGhIoJYbmLxdvTCBBr8KXX7Ay/sH+a/n3uKl9n7apE+Iq9YxxmKFIJKWu6Uiv7j8ER9N3qKSlVhRh49xEIN7I923m7JnFDKRmHXNScPay1qL1RGepxCewipBBYvMepQizezcJFfuTVCwHt1Bjr5sC32t7fR3dZHxAzKZDGEQOhLQaonF1RWWV1dYWVohJz1+9MJZ3j40RJtw8TwPS4CHh6A/bOLnp9/gxKHj/Gn0Cn+6cpHx+VmqwhVmRBJ0qFzIR7jqJRkZhHbc1koIMkg6/BynDh/mvVfO8mr7AXqkTw5NEC9PrIRICkpY7pXW+M3VL/jlR3+k1JKlbKqImnDVOmqLzNMzIntGIesB67TQyv1OrZAAGQAO99HEkK/aWleIGygiz7JiLOu2xN31MmptGj32VbreS7IjCdSziafprFXcKK6gg5B3B47SjI+fDMc6iJZ2IXgh18bhobf5z4dfYXjuLtfGR7lxd5yl6jrT60VKJiLCYI3BF4qsCmjP5TnY2cuJvgFeOHCEnmwTXUGBUAgCIjwMDsRFESEoAeOlIv9n+HP++fzvqBVCasoglbtVyfiTSPezpIywhxQykZ34jPeXT6XxS+X6VKoN+1H57Nb7SH5bqBm4UVnmf/32V6y89R5/f/xF2uL1pRICZR3op4cgJwRtmTyDfUd4p/sAS69EzNsKs+VVKkI7NDSj8aVHs5+jXWVpkT55T9GqfDJCooRrt0W6bSMcSGsJxdXFGf710nl+c/0Sc0oTxU5MoniNHrzYcC7Phuw5hfy20si+ev8rSOpm4jWedWu+khDgG25WV/mnT37P+MIM/+XsOwwEWXLakkkdFRfi8QX40iMfejQDveSp5lpcg5l1ISdPQCBU2hetsASIGComTvFpg5AekVDME/Hp1Ai/+vITPr1zk1VhMaGfVuw0ns2zFejZKM+cQiaSOEL31/4lS4AkWG2tYxerKEHkW25VV1j9+jMmlhf56fEznOs7RFeYjWOdcRDegjLGgQII56wI5ZEUJble5xRLIM0jW1xhRiQsWoLEpyIEI0uzvH/rCn8cu8bXK7OsePEULQQ8rsruPSrfWYVMim4fVtuXfr7xT6ooCQyfiUMpZQ/uRVX+ODHMxNoCF++Nce7AEYa6B+gOHD1dgPN0tdEunBPXc6dpvNihT0JZCVWcK4QQrKMoCctEcZ6v741zYfwGV2buMlEpsiw1xnOlcCnS8Ibz2Z3rt1flO6uQO3Yv77uByZSXrsnSCiAX1o4k1AJB1RourUwxsbbA8NwEZ7r6OdHVx6HOHvqa22hVIZ5xyoyIWyAg5ZJJqfTi6rfEYVk0FUbmprkxNcmVmduMLE0zUVxiVWiqgaQWN32ZNDGwVyiNnox8dxXyG0jiCjVElTb8tTHQgLYW4UuqyjJTKVGcGWds/h6fTbRwoLOHQ5376Mu30Z4r0FookAkCmvzwPuBRQ01r1qsVVkslVkolZtaLjBbnGZ2dYmx2ivnKGuvCUFU468lGi/ggxtm9KDb+leBWbuhpYmdr3++NQrrszOb3NxKsu4WlEhZrNNqC9STlQDIVRdxbnOLK0gwtd0ZozzXRkW+mu6Wd1lye5kwuzT9bBJFxiG6rpXUWikUW1teYXS8yu1akhCYSFi8bOMB9q9OAelry9mQuy+5K4xKjAQ1jp8oID1VIEaMouAh1UgHzWORx7fhBtVl28yYyzs1Z7cg9iXtl8DyslFStpWSrTC/NIeam8a0glDJOORKX0Tnwqchot3YUoJVEex6EAVopajoisrrh4A18jTsY/l6VZN0sGn4eBZLvgQophMD3vHo1S1xE23Avd02sfTyX/v5pI52u7TaWKK4dEzHmtonnIQEI6aqAtMX1xoQ+xjo2g/uDMw5P3F1eE3s5FjA2wuoEku/+Y7sjfdeUMJHGJZAgBlI1LnO106XHjqZs8yg2dw/Lo/Cl3C8bVG7T9Xi0C/RtxrGXZYvna+N/dhBEfSiwdB0+botG/KS06rk8F2I9sTimWymIhN2MgPYQS/lQhUwp+RLFpO4gfFenlufyeCR1yhpmAI3dqulzW9lWIQWQ8Tx6W9rxahZfeo8EPPlcvl+SgO9npKItX0Ai0ZF2KCFS7MD0OXmgQmY9n8G2LmS5BtqitU4B55PlwHcpTvZcHp8IQGhDxkg6cgUyUuFJp14ySVvtwKA9UCHzfsCx7n56sgVELarnZMVzZXwuG0VYCKykNcjS3dSCryEQ0kUSXGByR/t58JQtFQdzrRzr7sOWKyghNuRSxRY/z+X7Ji5QpaylSUh6gxydfhZbrsUQMEmCf2fW64EKGSLo9EPePHaSXFx2pUQM0WHr2wni3mOeK+ezLFaITVDQQliUBM9ouryAU21ddOFBrYq2jkA88H1HHdiASLedPFAhPSzNyuPNg8c53t1LWIvwtYk5l9MS103fe66Qz6Y4W5hm2pEypliJInIG9uebOd7SSbN21H5J01smzOwYce3BCmmhSUiONHfwN2fO0aN9sjWDl4IY1YGMtEjwvu8LIj+XZ0ZEQx4pea20ISzX6AvyHO/cR3uQRUXaOTRS4HkemUzGkWFJ8VDFfKAzLoUgEJKClPzs6Ev8cP8xOvAItEFZi4yhmpOgefLzXCGfTXFV9qahSNniVzW9KssLHX0cbe/Bj02Vy5YKcvkc+XwepXZGf/zw6JB12DP7VRP/7dwPealrPx3WI9Suglq6suuGqVo8+1Wk30NxM6HLkggsymiyNUOn9Xixs59XevbTIX1EzeEnmRh3s621lTAMv/2UnW4g3XqgCXixbT//442f8HLXAVqtRwb3mTIWaeKGKOHQYYXcCBT6XL7b4mpFNQiDtJqgpmmtGF7tHuSt/cc5mGklHwkC6bqIrDEopejq6t6xdYQdFldIIIxfn+s6hP92QPjpH/hobJhlq1Gej46PqdEuoyOTOmybItk+l++qWNc7pHzseol8FTqN4vX9R3it/yiDQYFc1eLp2LOISaY6OzvJZHbu0AAIu6UfXl8FuiprmaIlREARGK+u8KsvPuTfL11golqi4kvwFfgekdVUrUGLOgbi96sQ/9kTaTWiGhEWS7zc3sePjpziWFsPrVqSrRq8yCCs4zvXWPLZDMePHycX5h7pODtUyEQl3btlayljmSwX+fjuLT4cG2Z0borphXkqOCSHSFrneQuZQhhvL9sBDn/TANKjAhh/3wJVO7g+DYUS0kJGCAY7OznZuY8X2vYx4OfJRwKvHKG0TqfaCEsQBvT37aOrqxM/BnfYqWyjkA8dKxooWcvU+goj81NMLMyysLLM3YVZFkpFVivrlI3Geh4aibFyQy/Lxtu/+QKJLbbceU/X9hd8631sPM5OVPNhY9mNfTy+sWy+PhvJ5x36XNbzaM0VaM8X6Mjl2ZdvoSAVzfhkDHjG8T0mOJvWWoIgoKenh67uLsfoK3e+foRvqJDuBNxPzRiW1ovcnZtmZnGB1ahMJKFsNVWj0UKghYcRqg7iuWWB6sZgUcIruOHTTV+SjZ827Ndum2jfHJLa/HhsLrnf/GBY8WArs5Mi3J2U8D2s/H/r67KDsdw3ftNwzZLKHR9BVnnkpE8OSUbHSmhdCCghBCVu2c3n8/T29tLa2oqnPMf/84jyjRWyUWpaUyyvM7+8xNTsNJWohpF1Aksr1CZOv812r/Hv1mvOByvS/cX/W0dDN1R9b1NPt+Gdbbax4sHR1r1tITd/a1PGLSYgUMbiGRdJ8axANsDYGO2YH4IgoNDcTHt7B02FAp7nfWNH9lsrZIpMBpQrFZZXl1leXma9VKJcqaTN81v3iiSfNFi2emHbNlunQ2/YZmNSa6utN32SfnXjsTY90w9QyO3A8B5lRfogtd6pfXnQPnY6lq324Sq6LNK42cdTcsNd9H2fXC5Pc3OBQqFAmM2ipJ8e8KkqpETEimkplUqUSiXWimtUKhUq1QqRMQ77MD1c/RLUh508fWLzPCTq36q/sVEhN2zwAAu2Ydf3KVz6aoMp3eLCPkQh7xvs1vKQKVvscB8P2mxHYxFbUvlshKOxFl95+J6H7/uxMrosTCaTQSkvLTP7NiG+XZmybUP1j/u/g3SqRTWqlQqVapVIa6ytU1jEW6Z/U/qzdCpNh1jfesN53n/SNv56w0C2pESmUY8b/tOglBu+ts2E9xBt2Umt6I7oe3ZhP5v3cd903aCQGy9xnanWhe8Uge8TBiG+7xMEAVJutxT7ZrLrCmljQHmBrGdqRDIx1725+6fXTSdyf6hoBw5AXUcesOW2+9lOITd/vhPk2p1Yt11RyEe6LumRN43DxAeS8ccpPjrunjnc940DFmxWxqeukMkTJDa+Ub+QQsQk487Baaxm39HON4z2G3znftn73sbu7+Nh+xGxl71hPd/odsb/bH17t63asN1uKOSuQKkkT7pDfeC+eIZN12nJgHc86G9ydt/2iuzWPnZrP09oLHLTRlsompCAg7G2MZLJro0vOdauWEi2ULTGve7yoJ/LY5bkhja+tYWaPI76hMcHNvVcCb+78hTv3bdWyMdgtZ/L91gePbfzXJ7LY5TvDT7kc/l28qTqWZ9byOeyp+S5Qj6XPSX/HzgtDr5dV2DvAAAAAElFTkSuQmCC;" vertex="1" parent="1">
          <mxGeometry x="208" y="267.5" width="32.7" height="32.5" as="geometry" />
        </mxCell>
        <mxCell id="XqwRq8SYC38xC89JIGz4-95" style="edgeStyle=orthogonalEdgeStyle;rounded=0;orthogonalLoop=1;jettySize=auto;html=1;entryX=0;entryY=0.75;entryDx=0;entryDy=0;exitX=1.013;exitY=0.787;exitDx=0;exitDy=0;exitPerimeter=0;" edge="1" parent="1" source="XqwRq8SYC38xC89JIGz4-91" target="XqwRq8SYC38xC89JIGz4-85">
          <mxGeometry relative="1" as="geometry">
            <mxPoint x="20" y="350" as="sourcePoint" />
          </mxGeometry>
        </mxCell>
        <mxCell id="XqwRq8SYC38xC89JIGz4-96" style="rounded=0;orthogonalLoop=1;jettySize=auto;html=1;exitX=1;exitY=0.25;exitDx=0;exitDy=0;entryX=0;entryY=0.5;entryDx=0;entryDy=0;" edge="1" parent="1" source="XqwRq8SYC38xC89JIGz4-91" target="XqwRq8SYC38xC89JIGz4-90">
          <mxGeometry relative="1" as="geometry" />
        </mxCell>
        <mxCell id="XqwRq8SYC38xC89JIGz4-91" value="" style="shape=image;verticalLabelPosition=bottom;labelBackgroundColor=default;verticalAlign=top;aspect=fixed;imageAspect=0;image=https://upload.wikimedia.org/wikipedia/commons/thumb/e/e1/Microsoft_Office_SharePoint_%282019%E2%80%93present%29.svg/2097px-Microsoft_Office_SharePoint_%282019%E2%80%93present%29.svg.png;" vertex="1" parent="1">
          <mxGeometry x="28.1" y="295" width="71.61" height="70" as="geometry" />
        </mxCell>
        <mxCell id="XqwRq8SYC38xC89JIGz4-94" value="Knowledge source" style="text;html=1;strokeColor=none;fillColor=none;align=center;verticalAlign=middle;whiteSpace=wrap;rounded=0;" vertex="1" parent="1">
          <mxGeometry x="6.810000000000002" y="360" width="114.19" height="30" as="geometry" />
        </mxCell>
        <mxCell id="XqwRq8SYC38xC89JIGz4-99" value="" style="text;html=1;strokeColor=none;fillColor=#99CC95;align=center;verticalAlign=middle;whiteSpace=wrap;rounded=0;labelBackgroundColor=none;" vertex="1" parent="1">
          <mxGeometry x="83.62" y="-140" width="116.38" height="10" as="geometry" />
        </mxCell>
        <mxCell id="XqwRq8SYC38xC89JIGz4-100" value="" style="text;html=1;strokeColor=none;fillColor=#99CC95;align=center;verticalAlign=middle;whiteSpace=wrap;rounded=0;labelBackgroundColor=none;" vertex="1" parent="1">
          <mxGeometry x="338.82" y="-140" width="361.18" height="10" as="geometry" />
        </mxCell>
        <mxCell id="XqwRq8SYC38xC89JIGz4-102" value="" style="text;html=1;strokeColor=none;fillColor=#99CC95;align=center;verticalAlign=middle;whiteSpace=wrap;rounded=0;labelBackgroundColor=none;" vertex="1" parent="1">
          <mxGeometry x="829.82" y="-140" width="145.18" height="10" as="geometry" />
        </mxCell>
        <mxCell id="XqwRq8SYC38xC89JIGz4-103" value="" style="text;html=1;strokeColor=none;fillColor=#99CC95;align=center;verticalAlign=middle;whiteSpace=wrap;rounded=0;labelBackgroundColor=none;" vertex="1" parent="1">
          <mxGeometry x="1088.41" y="-140" width="145.18" height="10" as="geometry" />
        </mxCell>
        <mxCell id="XqwRq8SYC38xC89JIGz4-104" value="&lt;font style=&quot;font-size: 21px;&quot;&gt;User&lt;/font&gt;" style="text;html=1;strokeColor=none;fillColor=none;align=center;verticalAlign=middle;whiteSpace=wrap;rounded=0;fontSize=14;fontStyle=1" vertex="1" parent="1">
          <mxGeometry x="40" y="-184" width="1240" height="20" as="geometry" />
        </mxCell>
      </root>
    </mxGraphModel>
  </diagram>
</mxfile>
